SplineFontDB: 3.2
FontName: altea
FullName: altea
FamilyName: altea
Weight: Regular
Copyright: frankenwiniefont, zmann
Version: 2024
ItalicAngle: 0
UnderlinePosition: -292
UnderlineWidth: 150
Ascent: 1638
Descent: 410
InvalidEm: 0
sfntRevision: 0x00010000
LayerCount: 2
Layer: 0 1 "Back" 1
Layer: 1 1 "Fore" 0
XUID: [1021 201 -1811484198 24439]
StyleMap: 0x0040
FSType: 8
OS2Version: 3
OS2_WeightWidthSlopeOnly: 0
OS2_UseTypoMetrics: 0
CreationTime: 1351116431
ModificationTime: 1705182976
PfmFamily: 17
TTFWeight: 400
TTFWidth: 5
LineGap: 222
VLineGap: 0
Panose: 2 0 5 0 0 0 0 0 0 0
OS2TypoAscent: 1434
OS2TypoAOffset: 0
OS2TypoDescent: -410
OS2TypoDOffset: 0
OS2TypoLinegap: 205
OS2WinAscent: 1716
OS2WinAOffset: 0
OS2WinDescent: 418
OS2WinDOffset: 0
HheadAscent: 1716
HheadAOffset: 0
HheadDescent: -418
HheadDOffset: 0
OS2SubXSize: 1434
OS2SubYSize: 1331
OS2SubXOff: 0
OS2SubYOff: 283
OS2SupXSize: 1434
OS2SupYSize: 1331
OS2SupXOff: 0
OS2SupYOff: 977
OS2StrikeYSize: 102
OS2StrikeYPos: 530
OS2CapHeight: 1434
OS2XHeight: 1024
OS2Vendor: 'HL  '
OS2CodePages: 20000111.41000000
OS2UnicodeRanges: 800000a7.5000004a.00000000.00000000
MarkAttachClasses: 1
DEI: 91125
ShortTable: maxp 16
  1
  0
  236
  180
  5
  0
  0
  0
  0
  0
  0
  0
  0
  0
  0
  0
EndShort
LangName: 1033 "" "" "Regular" "" "" "Version 1.00 October 27, 2012, initial release" "" "truefonts.blogspot.com +AKkA (kaiserzharkhan). 2012. All Rights Reserved" "" "kaiserzharkhan" "This font was created using FontCreator 6.0 from High-Logic.com" "" "http://truefonts.blogspot.com" "kaiserzharkhan font http://truefonts.blogspot.com"
LangName: 1027 "" "" "Normal"
LangName: 1029 "" "" "oby+AQ0A-ejn+AOkA"
LangName: 1030 "" "" "normal"
LangName: 1031 "" "" "Standard"
LangName: 1032 "" "" "+A5oDsQO9A78DvQO5A7oDrAAA"

StartChar: .notdef
Encoding: 65536 -1 0
Width: 1024
GlyphClass: 1
Flags: W
LayerCount: 2
Fore
SplineSet
100 0 m 1,0,-1
 100 1434 l 1,1,-1
 924 1434 l 1,2,-1
 924 0 l 1,3,-1
 100 0 l 1,0,-1
150 50 m 1,4,-1
 874 50 l 1,5,-1
 874 1384 l 1,6,-1
 150 1384 l 1,7,-1
 150 50 l 1,4,-1
325 1148 m 1,8,9
 356 1176 356 1176 383 1191 c 0,10,11
 436 1221 436 1221 495 1221 c 0,12,13
 587 1221 587 1221 643 1173.5 c 128,-1,14
 699 1126 699 1126 699 1046 c 0,15,16
 699 997 699 997 676 947.5 c 128,-1,17
 653 898 653 898 589 818 c 0,18,19
 526 738 526 738 490 686 c 128,-1,20
 454 634 454 634 454 587 c 0,21,22
 454 549 454 549 478 454 c 1,23,-1
 446 454 l 1,24,25
 411 551 411 551 411 602 c 0,26,27
 411 678 411 678 492.5 820 c 128,-1,28
 574 962 574 962 574 1037 c 0,29,30
 574 1094 574 1094 541 1127 c 128,-1,31
 508 1160 508 1160 450 1160 c 0,32,33
 412 1160 412 1160 381 1143 c 0,34,35
 355 1128 355 1128 325 1103 c 1,36,-1
 325 1148 l 1,8,9
389 334 m 2,37,-1
 446 392 l 2,38,39
 457 402 457 402 466 402 c 0,40,41
 476 402 476 402 488 391 c 2,42,-1
 544 331 l 2,43,44
 553 320 553 320 553 311 c 0,45,46
 553 300 553 300 543 289 c 2,47,-1
 487 227 l 2,48,49
 473 213 473 213 466 213 c 0,50,51
 455 213 455 213 446 223 c 2,52,-1
 385 294 l 2,53,54
 378 303 378 303 378 312 c 0,55,56
 378 322 378 322 389 334 c 2,37,-1
EndSplineSet
Validated: 1
EndChar

StartChar: exclam
Encoding: 33 33 4
Width: 508
GlyphClass: 1
Flags: W
LayerCount: 2
Fore
SplineSet
326 294 m 1,0,-1
 330 294 l 1,1,2
 397 231 397 231 426 162 c 1,3,-1
 422 162 l 1,4,5
 386 182 386 182 370 182 c 1,6,-1
 370 174 l 1,7,8
 402 130 402 130 442 102 c 1,9,-1
 450 102 l 1,10,-1
 450 106 l 1,11,12
 434 146 434 146 434 158 c 1,13,14
 506 122 506 122 562 62 c 1,15,-1
 562 58 l 1,16,17
 499 -9 499 -9 430 -38 c 1,18,-1
 430 -34 l 1,19,20
 450 2 450 2 450 18 c 1,21,-1
 442 18 l 1,22,23
 398 -14 398 -14 370 -54 c 1,24,-1
 370 -62 l 1,25,-1
 374 -62 l 1,26,27
 414 -46 414 -46 426 -46 c 1,28,29
 390 -118 390 -118 330 -174 c 1,30,-1
 326 -174 l 1,31,32
 259 -111 259 -111 230 -42 c 1,33,-1
 234 -42 l 1,34,35
 270 -62 270 -62 286 -62 c 1,36,-1
 286 -54 l 1,37,38
 254 -10 254 -10 214 18 c 1,39,-1
 206 18 l 1,40,-1
 206 14 l 1,41,42
 222 -26 222 -26 222 -38 c 1,43,44
 150 -2 150 -2 94 58 c 1,45,-1
 94 62 l 1,46,47
 157 129 157 129 226 158 c 1,48,-1
 226 154 l 1,49,50
 206 118 206 118 206 102 c 1,51,-1
 214 102 l 1,52,53
 258 134 258 134 286 174 c 1,54,-1
 286 182 l 1,55,-1
 282 182 l 1,56,57
 242 166 242 166 230 166 c 1,58,59
 266 238 266 238 326 294 c 1,0,-1
224 1433 m 2,60,-1
 439 1433 l 1,61,62
 449 1433 449 1433 449 1425 c 2,63,-1
 449 320 l 2,64,65
 449 312 449 312 439 312 c 2,66,-1
 224 312 l 2,67,68
 214 312 214 312 214 320 c 2,69,-1
 214 1425 l 2,70,71
 216 1433 216 1433 224 1433 c 2,60,-1
EndSplineSet
EndChar

StartChar: quotedbl
Encoding: 34 34 5
Width: 508
GlyphClass: 1
Flags: W
LayerCount: 2
Fore
SplineSet
197 1108 m 1,0,-1
 167 1108 l 1,1,-1
 105 1467 l 2,2,3
 101 1490 101 1490 101 1500 c 0,4,5
 101 1537 101 1537 121.5 1557 c 128,-1,6
 142 1577 142 1577 181 1577 c 256,7,8
 220 1577 220 1577 241.5 1557.5 c 128,-1,9
 263 1538 263 1538 263 1501 c 0,10,11
 263 1493 263 1493 259 1467 c 2,12,-1
 197 1108 l 1,0,-1
509 1108 m 1,13,-1
 479 1108 l 1,14,-1
 417 1467 l 2,15,16
 413 1490 413 1490 413 1500 c 0,17,18
 413 1537 413 1537 433.5 1557 c 128,-1,19
 454 1577 454 1577 493 1577 c 256,20,21
 532 1577 532 1577 553.5 1557.5 c 128,-1,22
 575 1538 575 1538 575 1501 c 0,23,24
 575 1493 575 1493 571 1467 c 2,25,-1
 509 1108 l 1,13,-1
EndSplineSet
Validated: 1
EndChar

StartChar: numbersign
Encoding: 35 35 6
Width: 508
GlyphClass: 1
Flags: W
LayerCount: 2
Fore
SplineSet
596 859 m 1,0,-1
 511 569 l 1,1,-1
 753 569 l 1,2,-1
 839 859 l 1,3,-1
 596 859 l 1,0,-1
673 1433 m 1,4,-1
 766 1433 l 1,5,-1
 625 957 l 1,6,-1
 867 957 l 1,7,-1
 1009 1433 l 1,8,-1
 1101 1433 l 1,9,-1
 960 957 l 1,10,-1
 1219 957 l 1,11,-1
 1190 860 l 1,12,-1
 931 860 l 1,13,-1
 848 570 l 1,14,-1
 1127 570 l 1,15,-1
 1097 472 l 1,16,-1
 817 472 l 1,17,-1
 677 0 l 1,18,-1
 585 0 l 1,19,-1
 724 472 l 1,20,-1
 484 472 l 1,21,-1
 342 0 l 1,22,-1
 250 0 l 1,23,-1
 390 472 l 1,24,-1
 117 472 l 1,25,-1
 147 570 l 1,26,-1
 418 570 l 1,27,-1
 504 860 l 1,28,-1
 209 860 l 1,29,-1
 238 957 l 1,30,-1
 533 957 l 1,31,-1
 673 1433 l 1,4,-1
EndSplineSet
EndChar

StartChar: dollar
Encoding: 36 36 7
Width: 508
GlyphClass: 1
Flags: W
LayerCount: 2
Fore
SplineSet
546 1421 m 2,0,-1
 615 1421 l 2,1,2
 627 1419 627 1419 627 1409 c 2,3,-1
 627 1277 l 1,4,-1
 690 1277 l 1,5,-1
 690 1409 l 2,6,7
 692 1421 692 1421 702 1421 c 2,8,-1
 771 1421 l 2,9,10
 782 1419 782 1419 782 1409 c 2,11,-1
 782 1277 l 1,12,-1
 1093 1277 l 2,13,14
 1104 1275 1104 1275 1104 1265 c 2,15,-1
 1104 1052 l 2,16,17
 1104 1041 1104 1041 1093 1041 c 2,18,-1
 782 1041 l 1,19,-1
 782 776 l 1,20,-1
 1167 776 l 2,21,22
 1179 775 1179 775 1179 765 c 2,23,-1
 1179 707 l 2,24,25
 1179 353 1179 353 822 184 c 0,26,27
 799 173 799 173 782 173 c 1,28,-1
 782 12 l 2,29,30
 782 0 782 0 771 0 c 2,31,-1
 702 0 l 2,32,33
 690 0 690 0 690 12 c 2,34,-1
 690 150 l 1,35,-1
 650 144 l 1,36,-1
 627 144 l 1,37,-1
 627 12 l 2,38,39
 627 0 627 0 615 0 c 2,40,-1
 546 0 l 2,41,42
 535 0 535 0 535 12 c 2,43,-1
 535 144 l 1,44,-1
 12 144 l 2,45,46
 0 144 0 144 0 155 c 2,47,-1
 0 368 l 2,48,49
 2 380 2 380 12 380 c 2,50,-1
 535 380 l 1,51,-1
 535 535 l 1,52,-1
 29 535 l 2,53,54
 17 535 17 535 17 546 c 2,55,-1
 17 719 l 2,56,57
 17 1085 17 1085 397 1254 c 1,58,59
 464 1271 464 1271 535 1283 c 1,60,-1
 535 1409 l 2,61,62
 537 1421 537 1421 546 1421 c 2,0,-1
253 776 m 1,63,-1
 535 776 l 1,64,-1
 535 1035 l 1,65,-1
 529 1047 l 1,66,67
 399 1019 399 1019 322 920 c 0,68,69
 276 863 276 863 253 776 c 1,63,-1
627 1041 m 1,70,-1
 627 776 l 1,71,-1
 690 776 l 1,72,-1
 690 1041 l 1,73,-1
 627 1041 l 1,70,-1
627 535 m 1,74,-1
 627 374 l 1,75,76
 635 374 635 374 690 385 c 1,77,-1
 690 535 l 1,78,-1
 627 535 l 1,74,-1
782 535 m 1,79,-1
 782 426 l 1,80,81
 839 455 839 455 891 529 c 1,82,-1
 891 535 l 1,83,-1
 782 535 l 1,79,-1
EndSplineSet
Validated: 1
EndChar

StartChar: percent
Encoding: 37 37 8
Width: 1610
GlyphClass: 1
Flags: W
LayerCount: 2
Fore
SplineSet
449 1459 m 256,0,1
 547 1459 547 1459 639.5 1410 c 128,-1,2
 732 1361 732 1361 784 1270.5 c 128,-1,3
 836 1180 836 1180 836 1080 c 0,4,5
 836 981 836 981 785.5 891.5 c 128,-1,6
 735 802 735 802 642.5 751.5 c 128,-1,7
 550 701 550 701 449 701 c 0,8,9
 349 701 349 701 256.5 751.5 c 128,-1,10
 164 802 164 802 113 891.5 c 128,-1,11
 62 981 62 981 62 1080 c 0,12,13
 62 1180 62 1180 114 1270.5 c 128,-1,14
 166 1361 166 1361 258.5 1410 c 128,-1,15
 351 1459 351 1459 449 1459 c 256,0,1
206 1066 m 0,16,17
 219 974 219 974 261.5 892.5 c 128,-1,18
 304 811 304 811 368 768 c 0,19,20
 425 728 425 728 482 728 c 0,21,22
 489 728 489 728 495 729 c 0,23,24
 558 732 558 732 610 782 c 128,-1,25
 662 832 662 832 683 918 c 0,26,27
 696 972 696 972 696 1029 c 0,28,29
 696 1061 696 1061 692 1094 c 0,30,31
 680 1187 680 1187 636 1269.5 c 128,-1,32
 592 1352 592 1352 529 1394 c 0,33,34
 471 1432 471 1432 414 1432 c 2,35,-1
 403 1432 l 2,36,37
 342 1429 342 1429 290 1380 c 128,-1,38
 238 1331 238 1331 217 1245 c 0,39,40
 202 1187 202 1187 202 1128 c 0,41,42
 202 1097 202 1097 206 1066 c 0,16,17
297 -29 m 1,43,-1
 1237 1432 l 1,44,-1
 1321 1432 l 1,45,-1
 383 -29 l 1,46,-1
 297 -29 l 1,43,-1
1161 738 m 0,47,48
 1258 738 1258 738 1351 688.5 c 128,-1,49
 1444 639 1444 639 1496 548.5 c 128,-1,50
 1548 458 1548 458 1548 359 c 0,51,52
 1548 259 1548 259 1497.5 169.5 c 128,-1,53
 1447 80 1447 80 1354.5 30 c 128,-1,54
 1262 -20 1262 -20 1161 -20 c 256,55,56
 1060 -20 1060 -20 968 30 c 128,-1,57
 876 80 876 80 825 169.5 c 128,-1,58
 774 259 774 259 774 359 c 0,59,60
 774 458 774 458 826 548.5 c 128,-1,61
 878 639 878 639 970.5 688.5 c 128,-1,62
 1063 738 1063 738 1161 738 c 0,47,48
918 344 m 0,63,64
 931 252 931 252 973.5 170.5 c 128,-1,65
 1016 89 1016 89 1080 46 c 0,66,67
 1139 7 1139 7 1196 7 c 2,68,-1
 1207 7 l 2,69,70
 1270 10 1270 10 1322 60 c 128,-1,71
 1374 110 1374 110 1395 196 c 0,72,73
 1408 250 1408 250 1408 307 c 0,74,75
 1408 339 1408 339 1404 372 c 0,76,77
 1392 465 1392 465 1348 547.5 c 128,-1,78
 1304 630 1304 630 1241 672 c 0,79,80
 1183 710 1183 710 1126 710 c 2,81,-1
 1115 710 l 2,82,83
 1054 707 1054 707 1002 658 c 128,-1,84
 950 609 950 609 929 523 c 0,85,86
 914 465 914 465 914 406 c 0,87,88
 914 375 914 375 918 344 c 0,63,64
EndSplineSet
EndChar

StartChar: ampersand
Encoding: 38 38 9
Width: 1111
GlyphClass: 1
Flags: W
LayerCount: 2
Fore
SplineSet
393 1438 m 2,0,-1
 444 1438 l 2,1,2
 660 1438 660 1438 755 1163 c 1,3,4
 760 1128 760 1128 760 1107 c 2,5,-1
 760 1035 l 2,6,7
 760 900 760 900 632 775 c 1,8,9
 684 762 684 762 775 643 c 1,10,11
 900 744 900 744 999 744 c 2,12,-1
 1071 744 l 2,13,14
 1081 743 1081 743 1081 734 c 2,15,-1
 1081 571 l 1,16,-1
 1076 561 l 1,17,-1
 1050 566 l 1,18,-1
 1035 566 l 2,19,20
 902 566 902 566 836 413 c 1,21,-1
 836 372 l 1,22,23
 902 219 902 219 1035 219 c 2,24,-1
 1050 219 l 1,25,-1
 1076 224 l 1,26,-1
 1081 214 l 1,27,-1
 1081 51 l 2,28,29
 1081 41 1081 41 1071 41 c 2,30,-1
 999 41 l 2,31,32
 879 41 879 41 755 168 c 1,33,34
 672 54 672 54 520 10 c 1,35,36
 505 10 505 10 505 0 c 1,37,-1
 331 0 l 1,38,39
 331 12 331 12 250 31 c 1,40,41
 0 174 0 174 0 393 c 2,42,-1
 0 444 l 2,43,44
 0 631 0 631 199 780 c 1,45,46
 76 904 76 904 76 1035 c 2,47,-1
 76 1107 l 2,48,49
 76 1266 76 1266 235 1387 c 1,50,51
 315 1438 315 1438 393 1438 c 2,0,-1
275 1066 m 1,52,53
 307 918 307 918 423 918 c 1,54,55
 561 951 561 951 561 1076 c 1,56,57
 530 1224 530 1224 413 1224 c 1,58,59
 275 1191 275 1191 275 1066 c 1,52,53
204 413 m 1,60,61
 204 273 204 273 372 209 c 1,62,63
 415 209 415 209 418 204 c 1,64,65
 552 204 552 204 617 347 c 1,66,-1
 632 413 l 1,67,68
 632 567 632 567 464 627 c 1,69,70
 437 627 437 627 418 632 c 1,71,72
 271 632 271 632 209 464 c 1,73,74
 209 440 209 440 204 413 c 1,60,61
EndSplineSet
Validated: 1
EndChar

StartChar: quotesingle
Encoding: 39 39 10
Width: 346
GlyphClass: 1
Flags: W
LayerCount: 2
Fore
SplineSet
197 1108 m 1,0,-1
 167 1108 l 1,1,-1
 105 1467 l 2,2,3
 101 1490 101 1490 101 1500 c 0,4,5
 101 1537 101 1537 121.5 1557 c 128,-1,6
 142 1577 142 1577 181 1577 c 256,7,8
 220 1577 220 1577 241.5 1557.5 c 128,-1,9
 263 1538 263 1538 263 1501 c 0,10,11
 263 1493 263 1493 259 1467 c 2,12,-1
 197 1108 l 1,0,-1
EndSplineSet
Validated: 1
EndChar

StartChar: parenleft
Encoding: 40 40 11
Width: 758
GlyphClass: 1
Flags: W
LayerCount: 2
Fore
SplineSet
252 601 m 0,0,1
 254 878 254 878 351.5 1131 c 128,-1,2
 449 1384 449 1384 620 1573 c 1,3,-1
 700 1573 l 1,4,5
 528 1331 528 1331 470 1135 c 0,6,7
 413 942 413 942 413 612 c 2,8,-1
 413 590 l 2,9,10
 413 260 413 260 470 68 c 0,11,12
 528 -128 528 -128 700 -370 c 1,13,-1
 620 -370 l 1,14,15
 449 -181 449 -181 351.5 71.5 c 128,-1,16
 254 324 254 324 252 601 c 0,0,1
EndSplineSet
Validated: 1
EndChar

StartChar: parenright
Encoding: 41 41 12
Width: 758
GlyphClass: 1
Flags: W
LayerCount: 2
Fore
SplineSet
138 -370 m 1,0,-1
 58 -370 l 1,1,2
 230 -128 230 -128 288 68 c 0,3,4
 345 260 345 260 345 590 c 2,5,-1
 345 612 l 2,6,7
 345 942 345 942 288 1135 c 0,8,9
 230 1331 230 1331 58 1573 c 1,10,-1
 138 1573 l 1,11,12
 309 1384 309 1384 406.5 1131 c 128,-1,13
 504 878 504 878 506 601 c 0,14,15
 504 324 504 324 406.5 71.5 c 128,-1,16
 309 -181 309 -181 138 -370 c 1,0,-1
EndSplineSet
Validated: 1
EndChar

StartChar: asterisk
Encoding: 42 42 13
Width: 1024
GlyphClass: 1
Flags: W
LayerCount: 2
Fore
SplineSet
502 1491 m 1,0,-1
 506 1491 l 1,1,2
 587 1415 587 1415 621 1333 c 1,3,-1
 616 1333 l 1,4,5
 573 1357 573 1357 554 1357 c 1,6,-1
 554 1347 l 1,7,8
 592 1294 592 1294 640 1261 c 1,9,-1
 650 1261 l 1,10,-1
 650 1266 l 1,11,12
 631 1314 631 1314 631 1328 c 1,13,14
 717 1285 717 1285 784 1213 c 1,15,-1
 784 1209 l 1,16,17
 708 1128 708 1128 626 1094 c 1,18,-1
 626 1099 l 1,19,20
 650 1142 650 1142 650 1161 c 1,21,-1
 640 1161 l 1,22,23
 587 1123 587 1123 554 1075 c 1,24,-1
 554 1065 l 1,25,-1
 559 1065 l 1,26,27
 607 1084 607 1084 621 1084 c 1,28,29
 578 998 578 998 506 931 c 1,30,-1
 502 931 l 1,31,32
 421 1007 421 1007 387 1089 c 1,33,-1
 392 1089 l 1,34,35
 435 1065 435 1065 454 1065 c 1,36,-1
 454 1075 l 1,37,38
 416 1128 416 1128 368 1161 c 1,39,-1
 358 1161 l 1,40,-1
 358 1156 l 1,41,42
 377 1108 377 1108 377 1094 c 1,43,44
 291 1137 291 1137 224 1209 c 1,45,-1
 224 1213 l 1,46,47
 300 1294 300 1294 382 1328 c 1,48,-1
 382 1323 l 1,49,50
 358 1280 358 1280 358 1261 c 1,51,-1
 368 1261 l 1,52,53
 421 1299 421 1299 454 1347 c 1,54,-1
 454 1357 l 1,55,-1
 449 1357 l 1,56,57
 401 1338 401 1338 387 1338 c 1,58,59
 430 1424 430 1424 502 1491 c 1,0,-1
EndSplineSet
Validated: 1
EndChar

StartChar: plus
Encoding: 43 43 14
Width: 1014
GlyphClass: 1
Flags: W
LayerCount: 2
Fore
SplineSet
378 998 m 2,0,-1
 577 998 l 2,1,2
 588 996 588 996 588 987 c 2,3,-1
 588 695 l 1,4,-1
 885 695 l 2,5,6
 897 693 897 693 897 684 c 2,7,-1
 897 479 l 2,8,9
 897 468 897 468 885 468 c 2,10,-1
 588 468 l 1,11,-1
 588 176 l 2,12,13
 588 165 588 165 577 165 c 2,14,-1
 378 165 l 2,15,16
 367 165 367 165 367 176 c 2,17,-1
 367 468 l 1,18,-1
 69 468 l 2,19,20
 58 468 58 468 58 479 c 2,21,-1
 58 684 l 2,22,23
 60 695 60 695 69 695 c 2,24,-1
 367 695 l 1,25,-1
 367 987 l 2,26,27
 369 998 369 998 378 998 c 2,0,-1
EndSplineSet
Validated: 1
EndChar

StartChar: comma
Encoding: 44 44 15
Width: 557
GlyphClass: 1
Flags: W
LayerCount: 2
Fore
SplineSet
238 258 m 1,0,1
 282 258 282 258 326.5 192.5 c 128,-1,2
 371 127 371 127 371 41 c 0,3,4
 371 -68 371 -68 300 -185.5 c 128,-1,5
 229 -303 229 -303 161 -303 c 1,6,-1
 161 -260 l 1,7,8
 234 -217 234 -217 248 -70 c 1,9,10
 248 49 248 49 119 91 c 1,11,-1
 119 133 l 1,12,-1
 238 258 l 1,0,1
EndSplineSet
Validated: 1
EndChar

StartChar: hyphen
Encoding: 45 45 16
AltUni2: 0000ad.ffffffff.0 0000ad.ffffffff.0
Width: 936
GlyphClass: 1
Flags: W
LayerCount: 2
Fore
SplineSet
50 595 m 2,0,-1
 876 595 l 2,1,2
 887 593 887 593 887 584 c 2,3,-1
 887 377 l 2,4,5
 887 366 887 366 876 366 c 2,6,-1
 50 366 l 2,7,8
 39 366 39 366 39 377 c 2,9,-1
 39 584 l 2,10,11
 41 595 41 595 50 595 c 2,0,-1
EndSplineSet
Validated: 1
EndChar

StartChar: period
Encoding: 46 46 17
Width: 508
GlyphClass: 1
Flags: W
HStem: 9 292<178.252 378.65>
VStem: 134 289<53.3479 256.652>
LayerCount: 2
Fore
SplineSet
279 302 m 1025,0,-1
280 301 m 1025,1,-1
279 302 m 1025,2,-1
279 302 m 1025,3,-1
377 264 m 1025,4,-1
426 155 m 1025,5,-1
383 52 m 1025,6,-1
134 155 m 128,-1,8
 134 215 134 215 177 258 c 128,-1,9
 220 301 220 301 281 301 c 0,10,11
 340 301 340 301 381.5 261 c 128,-1,12
 423 221 423 221 423 161 c 0,13,14
 423 95 423 95 382 51 c 0,15,16
 343 9 343 9 281 9 c 0,17,18
 220 9 220 9 177 52 c 128,-1,7
 134 95 134 95 134 155 c 128,-1,8
EndSplineSet
Validated: 2049
EndChar

StartChar: slash
Encoding: 47 47 18
Width: 569
GlyphClass: 1
Flags: W
LayerCount: 2
Fore
SplineSet
93 -50 m 1,0,-1
 13 -50 l 1,1,-1
 554 1434 l 1,2,-1
 634 1434 l 1,3,-1
 93 -50 l 1,0,-1
EndSplineSet
Validated: 1
EndChar

StartChar: zero
Encoding: 48 48 19
Width: 1014
GlyphClass: 1
Flags: W
LayerCount: 2
Fore
SplineSet
355 1439 m 2,0,-1
 649 1439 l 2,1,2
 841 1439 841 1439 959 1234 c 1,3,4
 994 1159 994 1159 994 1094 c 2,5,-1
 994 345 l 2,6,7
 994 153 994 153 789 35 c 1,8,9
 712 0 712 0 649 0 c 2,10,-1
 345 0 l 2,11,12
 153 0 153 0 35 205 c 1,13,14
 0 277 0 277 0 345 c 2,15,-1
 0 1094 l 2,16,17
 0 1298 0 1298 225 1414 c 1,18,19
 286 1439 286 1439 355 1439 c 2,0,-1
235 934 m 2,20,-1
 235 504 l 2,21,22
 235 322 235 322 380 255 c 1,23,24
 437 235 437 235 499 235 c 0,25,26
 678 235 678 235 744 395 c 0,27,28
 759 437 759 437 759 519 c 2,29,-1
 759 934 l 2,30,31
 759 1146 759 1146 569 1199 c 1,32,33
 517 1204 517 1204 485 1204 c 0,34,35
 301 1204 301 1204 240 1014 c 1,36,37
 235 963 235 963 235 934 c 2,20,-1
EndSplineSet
Validated: 1
EndChar

StartChar: one
Encoding: 49 49 20
Width: 400
GlyphClass: 1
Flags: W
LayerCount: 2
Fore
SplineSet
10 1433 m 2,0,-1
 25 1433 l 2,1,2
 227 1433 227 1433 333 1204 c 1,3,4
 353 1146 353 1146 353 1100 c 2,5,-1
 353 10 l 2,6,7
 353 0 353 0 343 0 c 2,8,-1
 129 0 l 2,9,10
 119 0 119 0 119 10 c 2,11,-1
 119 1030 l 2,12,13
 119 1145 119 1145 70 1179 c 1,14,15
 0 1197 0 1197 0 1204 c 2,16,-1
 0 1423 l 2,17,18
 2 1433 2 1433 10 1433 c 2,0,-1
EndSplineSet
Validated: 1
EndChar

StartChar: two
Encoding: 50 50 21
Width: 984
GlyphClass: 1
Flags: W
LayerCount: 2
Fore
SplineSet
11 1433 m 2,0,-1
 436 1433 l 2,1,2
 784 1433 784 1433 921 1072 c 1,3,4
 937 1015 937 1015 937 975 c 0,5,6
 937 718 937 718 684 555 c 1,7,8
 572 496 572 496 490 496 c 2,9,-1
 259 496 l 1,10,-1
 259 248 l 1,11,-1
 943 248 l 2,12,13
 954 246 954 246 954 237 c 2,14,-1
 954 11 l 2,15,16
 954 0 954 0 943 0 c 2,17,-1
 16 0 l 2,18,19
 5 0 5 0 5 11 c 2,20,-1
 5 733 l 2,21,22
 7 743 7 743 16 743 c 2,23,-1
 490 743 l 2,24,25
 589 743 589 743 673 889 c 0,26,27
 690 926 690 926 695 986 c 1,28,29
 617 1185 617 1185 458 1185 c 2,30,-1
 11 1185 l 2,31,32
 0 1185 0 1185 0 1196 c 2,33,-1
 0 1422 l 2,34,35
 2 1433 2 1433 11 1433 c 2,0,-1
EndSplineSet
Validated: 1
EndChar

StartChar: three
Encoding: 51 51 22
Width: 975
GlyphClass: 1
Flags: W
LayerCount: 2
Fore
SplineSet
16 1442 m 2,0,-1
 721 1442 l 2,1,2
 732 1440 732 1440 732 1431 c 2,3,-1
 732 1203 l 1,4,5
 417 948 417 948 417 943 c 1,6,-1
 445 943 l 2,7,8
 794 943 794 943 932 580 c 1,9,10
 949 522 949 522 949 482 c 0,11,12
 949 224 949 224 694 60 c 1,13,14
 581 0 581 0 499 0 c 2,15,-1
 22 0 l 2,16,17
 11 0 11 0 11 11 c 2,18,-1
 11 239 l 2,19,20
 13 249 13 249 22 249 c 2,21,-1
 499 249 l 2,22,23
 598 249 598 249 683 396 c 1,24,25
 699 433 699 433 705 493 c 1,26,27
 626 694 626 694 466 694 c 2,28,-1
 16 694 l 2,29,30
 5 694 5 694 5 705 c 2,31,-1
 5 905 l 1,32,-1
 0 943 l 1,33,34
 25 957 25 957 309 1193 c 1,35,-1
 16 1193 l 2,36,37
 5 1193 5 1193 5 1203 c 2,38,-1
 5 1431 l 2,39,40
 7 1442 7 1442 16 1442 c 2,0,-1
EndSplineSet
Validated: 1
EndChar

StartChar: four
Encoding: 52 52 23
Width: 921
GlyphClass: 1
Flags: W
LayerCount: 2
Fore
SplineSet
10 1437 m 2,0,-1
 379 1437 l 2,1,2
 571 1437 571 1437 688 1232 c 1,3,4
 723 1157 723 1157 723 1092 c 2,5,-1
 723 808 l 1,6,-1
 853 808 l 2,7,8
 863 807 863 807 863 798 c 2,9,-1
 863 589 l 2,10,11
 863 579 863 579 853 579 c 2,12,-1
 723 579 l 1,13,-1
 723 10 l 2,14,15
 723 0 723 0 713 0 c 2,16,-1
 499 0 l 2,17,18
 489 0 489 0 489 10 c 2,19,-1
 489 579 l 1,20,-1
 10 579 l 2,21,22
 0 579 0 579 0 589 c 2,23,-1
 0 1427 l 2,24,25
 2 1437 2 1437 10 1437 c 2,0,-1
234 1202 m 1,26,-1
 234 808 l 1,27,-1
 489 808 l 1,28,-1
 489 933 l 2,29,30
 489 1121 489 1121 334 1187 c 1,31,32
 274 1202 274 1202 234 1202 c 1,26,-1
EndSplineSet
Validated: 1
EndChar

StartChar: five
Encoding: 53 53 24
Width: 945
GlyphClass: 1
Flags: W
LayerCount: 2
Fore
SplineSet
10 1432 m 2,0,-1
 833 1432 l 2,1,2
 843 1430 843 1430 843 1421 c 2,3,-1
 843 1203 l 2,4,5
 843 1192 843 1192 833 1192 c 2,6,-1
 245 1192 l 1,7,-1
 245 906 l 1,8,-1
 427 906 l 2,9,10
 763 906 763 906 895 557 c 1,11,12
 911 502 911 502 911 463 c 0,13,14
 911 215 911 215 666 57 c 1,15,16
 558 0 558 0 479 0 c 2,17,-1
 21 0 l 2,18,19
 10 0 10 0 10 10 c 2,20,-1
 10 229 l 2,21,22
 12 239 12 239 21 239 c 2,23,-1
 479 239 l 2,24,25
 574 239 574 239 656 380 c 1,26,27
 672 416 672 416 677 474 c 1,28,29
 601 666 601 666 448 666 c 2,30,-1
 16 666 l 1,31,-1
 5 672 l 1,32,33
 0 1028 0 1028 0 1229 c 2,34,-1
 0 1421 l 2,35,36
 2 1432 2 1432 10 1432 c 2,0,-1
EndSplineSet
Validated: 1
EndChar

StartChar: six
Encoding: 54 54 25
Width: 970
GlyphClass: 1
Flags: W
LayerCount: 2
Fore
SplineSet
393 1434 m 1,0,-1
 533 1434 l 1,1,-1
 533 1240 l 2,2,3
 533 1230 533 1230 523 1230 c 2,4,-1
 493 1230 l 2,5,6
 298 1230 298 1230 219 1011 c 0,7,8
 209 988 209 988 209 946 c 2,9,-1
 209 921 l 1,10,-1
 214 891 l 1,11,12
 209 883 209 883 209 866 c 2,13,-1
 209 861 l 1,14,15
 331 936 331 936 453 936 c 2,16,-1
 483 936 l 2,17,18
 759 936 759 936 901 647 c 1,19,20
 936 565 936 565 936 483 c 2,21,-1
 936 453 l 2,22,23
 936 236 936 236 737 85 c 0,24,25
 684 40 684 40 558 5 c 1,26,-1
 558 0 l 1,27,-1
 378 0 l 1,28,29
 378 12 378 12 309 25 c 1,30,31
 0 169 0 169 0 453 c 2,32,-1
 0 483 l 2,33,34
 1 558 1 558 10 558 c 1,35,-1
 5 568 l 1,36,-1
 5 971 l 2,37,38
 5 1237 5 1237 289 1394 c 1,39,-1
 393 1429 l 1,40,-1
 393 1434 l 1,0,-1
229 458 m 0,41,42
 229 301 229 301 418 234 c 1,43,44
 452 229 452 229 473 229 c 0,45,46
 637 229 637 229 702 418 c 1,47,48
 707 452 707 452 707 473 c 0,49,50
 707 637 707 637 518 702 c 0,51,52
 492 707 492 707 468 707 c 0,53,54
 300 707 300 707 234 523 c 1,55,56
 229 480 229 480 229 458 c 0,41,42
EndSplineSet
Validated: 1
EndChar

StartChar: seven
Encoding: 55 55 26
Width: 926
GlyphClass: 1
Flags: W
LayerCount: 2
Fore
SplineSet
10 1438 m 2,0,-1
 379 1438 l 2,1,2
 571 1438 571 1438 689 1233 c 1,3,4
 724 1158 724 1158 724 1093 c 2,5,-1
 724 864 l 1,6,-1
 859 864 l 2,7,8
 869 862 869 862 869 854 c 2,9,-1
 869 644 l 2,10,11
 869 634 869 634 859 634 c 2,12,-1
 724 634 l 1,13,-1
 724 10 l 2,14,15
 724 0 724 0 714 0 c 2,16,-1
 499 0 l 2,17,18
 489 0 489 0 489 10 c 2,19,-1
 489 634 l 1,20,-1
 285 634 l 2,21,22
 275 634 275 634 275 644 c 2,23,-1
 275 854 l 2,24,25
 276 864 276 864 285 864 c 2,26,-1
 489 864 l 1,27,-1
 489 934 l 2,28,29
 489 1111 489 1111 355 1178 c 0,30,31
 302 1203 302 1203 220 1203 c 2,32,-1
 110 1203 l 2,33,34
 75 1203 75 1203 0 1198 c 1,35,-1
 0 1428 l 2,36,37
 2 1438 2 1438 10 1438 c 2,0,-1
EndSplineSet
Validated: 1
EndChar

StartChar: eight
Encoding: 56 56 27
Width: 892
GlyphClass: 1
Flags: W
LayerCount: 2
Fore
SplineSet
391 1433 m 2,0,-1
 442 1433 l 2,1,2
 658 1433 658 1433 752 1159 c 1,3,4
 757 1124 757 1124 757 1103 c 2,5,-1
 757 1032 l 2,6,7
 757 897 757 897 630 772 c 1,8,9
 739 722 739 722 808 564 c 0,10,11
 833 498 833 498 833 427 c 2,12,-1
 833 407 l 2,13,14
 833 141 833 141 549 20 c 1,15,16
 503 13 503 13 503 0 c 1,17,-1
 330 0 l 1,18,19
 330 12 330 12 249 30 c 1,20,21
 0 173 0 173 0 391 c 2,22,-1
 0 442 l 2,23,24
 0 629 0 629 198 777 c 1,25,26
 76 900 76 900 76 1032 c 2,27,-1
 76 1103 l 2,28,29
 76 1262 76 1262 234 1382 c 1,30,31
 314 1433 314 1433 391 1433 c 2,0,-1
274 1062 m 1,32,33
 306 915 306 915 422 915 c 1,34,35
 559 948 559 948 559 1072 c 1,36,37
 528 1220 528 1220 412 1220 c 1,38,39
 274 1187 274 1187 274 1062 c 1,32,33
203 412 m 1,40,41
 203 272 203 272 371 208 c 1,42,43
 413 208 413 208 417 203 c 1,44,45
 550 203 550 203 615 346 c 1,46,-1
 630 412 l 1,47,48
 630 565 630 565 462 625 c 1,49,50
 436 625 436 625 417 630 c 1,51,52
 270 630 270 630 208 462 c 1,53,54
 208 438 208 438 203 412 c 1,40,41
EndSplineSet
Validated: 1
EndChar

StartChar: nine
Encoding: 57 57 28
Width: 975
GlyphClass: 1
Flags: W
LayerCount: 2
Fore
SplineSet
470 1431 m 0,0,1
 480 1431 480 1431 579 1426 c 1,2,3
 579 1416 579 1416 664 1392 c 1,4,5
 931 1237 931 1237 931 981 c 2,6,-1
 931 951 l 2,7,8
 931 877 931 877 921 877 c 1,9,-1
 926 867 l 1,10,-1
 926 466 l 2,11,12
 926 200 926 200 644 45 c 1,13,14
 562 15 562 15 510 5 c 1,15,-1
 510 0 l 1,16,-1
 401 0 l 1,17,-1
 401 198 l 2,18,19
 403 208 403 208 411 208 c 2,20,-1
 441 208 l 2,21,22
 634 208 634 208 713 426 c 0,23,24
 723 448 723 448 723 490 c 2,25,-1
 723 515 l 1,26,-1
 718 545 l 1,27,28
 723 553 723 553 723 569 c 2,29,-1
 723 574 l 1,30,31
 599 500 599 500 480 500 c 2,32,-1
 451 500 l 2,33,34
 183 500 183 500 35 782 c 1,35,36
 0 871 0 871 0 951 c 2,37,-1
 0 981 l 2,38,39
 0 1255 0 1255 287 1397 c 1,40,41
 352 1418 352 1418 352 1426 c 1,42,43
 356 1426 356 1426 470 1431 c 0,0,1
228 966 m 0,44,45
 228 794 228 794 416 733 c 1,46,-1
 466 728 l 1,47,48
 636 728 636 728 698 916 c 1,49,-1
 703 966 l 1,50,51
 703 1136 703 1136 515 1198 c 0,52,53
 489 1203 489 1203 466 1203 c 0,54,55
 294 1203 294 1203 233 1015 c 0,56,57
 228 989 228 989 228 966 c 0,44,45
EndSplineSet
Validated: 1
EndChar

StartChar: colon
Encoding: 58 58 29
Width: 557
GlyphClass: 1
Flags: W
LayerCount: 2
Fore
SplineSet
252 1020 m 1,0,-1
 256 1020 l 1,1,2
 323 957 323 957 352 888 c 1,3,-1
 348 888 l 1,4,5
 312 908 312 908 296 908 c 1,6,-1
 296 900 l 1,7,8
 328 856 328 856 368 828 c 1,9,-1
 376 828 l 1,10,-1
 376 832 l 1,11,12
 360 872 360 872 360 884 c 1,13,14
 432 848 432 848 488 788 c 1,15,-1
 488 784 l 1,16,17
 425 717 425 717 356 688 c 1,18,-1
 356 692 l 1,19,20
 376 728 376 728 376 744 c 1,21,-1
 368 744 l 1,22,23
 324 712 324 712 296 672 c 1,24,-1
 296 664 l 1,25,-1
 300 664 l 1,26,27
 340 680 340 680 352 680 c 1,28,29
 316 608 316 608 256 552 c 1,30,-1
 252 552 l 1,31,32
 185 615 185 615 156 684 c 1,33,-1
 160 684 l 1,34,35
 196 664 196 664 212 664 c 1,36,-1
 212 672 l 1,37,38
 180 716 180 716 140 744 c 1,39,-1
 132 744 l 1,40,-1
 132 740 l 1,41,42
 148 700 148 700 148 688 c 1,43,44
 76 724 76 724 20 784 c 1,45,-1
 20 788 l 1,46,47
 83 855 83 855 152 884 c 1,48,-1
 152 880 l 1,49,50
 132 844 132 844 132 828 c 1,51,-1
 140 828 l 1,52,53
 184 860 184 860 212 900 c 1,54,-1
 212 908 l 1,55,-1
 208 908 l 1,56,57
 168 892 168 892 156 892 c 1,58,59
 192 964 192 964 252 1020 c 1,0,-1
252 470 m 1,60,-1
 256 470 l 1,61,62
 323 407 323 407 352 338 c 1,63,-1
 348 338 l 1,64,65
 312 358 312 358 296 358 c 1,66,-1
 296 350 l 1,67,68
 328 306 328 306 368 278 c 1,69,-1
 376 278 l 1,70,-1
 376 282 l 1,71,72
 360 322 360 322 360 334 c 1,73,74
 432 298 432 298 488 238 c 1,75,-1
 488 234 l 1,76,77
 425 167 425 167 356 138 c 1,78,-1
 356 142 l 1,79,80
 376 178 376 178 376 194 c 1,81,-1
 368 194 l 1,82,83
 324 162 324 162 296 122 c 1,84,-1
 296 114 l 1,85,-1
 300 114 l 1,86,87
 340 130 340 130 352 130 c 1,88,89
 316 58 316 58 256 2 c 1,90,-1
 252 2 l 1,91,92
 185 65 185 65 156 134 c 1,93,-1
 160 134 l 1,94,95
 196 114 196 114 212 114 c 1,96,-1
 212 122 l 1,97,98
 180 166 180 166 140 194 c 1,99,-1
 132 194 l 1,100,-1
 132 190 l 1,101,102
 148 150 148 150 148 138 c 1,103,104
 76 174 76 174 20 234 c 1,105,-1
 20 238 l 1,106,107
 83 305 83 305 152 334 c 1,108,-1
 152 330 l 1,109,110
 132 294 132 294 132 278 c 1,111,-1
 140 278 l 1,112,113
 184 310 184 310 212 350 c 1,114,-1
 212 358 l 1,115,-1
 208 358 l 1,116,117
 168 342 168 342 156 342 c 1,118,119
 192 414 192 414 252 470 c 1,60,-1
EndSplineSet
Validated: 1
EndChar

StartChar: semicolon
Encoding: 59 59 30
AltUni2: 00037e.ffffffff.0 00037e.ffffffff.0
Width: 556
GlyphClass: 1
Flags: W
LayerCount: 2
Fore
SplineSet
257 307 m 1,0,1
 330 448 330 448 360 312 c 128,-1,2
 390 176 390 176 390 90 c 0,3,4
 390 -19 390 -19 319 -136.5 c 128,-1,5
 248 -254 248 -254 180 -254 c 1,6,-1
 180 -211 l 1,7,8
 253 -168 253 -168 267 -21 c 1,9,10
 267 98 267 98 75 116 c 1,11,-1
 173 217 l 1,12,-1
 257 307 l 1,0,1
252 990 m 1,13,-1
 256 990 l 1,14,15
 323 927 323 927 352 858 c 1,16,-1
 348 858 l 1,17,18
 312 878 312 878 296 878 c 1,19,-1
 296 870 l 1,20,21
 328 826 328 826 368 798 c 1,22,-1
 376 798 l 1,23,-1
 376 802 l 1,24,25
 360 842 360 842 360 854 c 1,26,27
 432 818 432 818 488 758 c 1,28,-1
 488 754 l 1,29,30
 425 687 425 687 356 658 c 1,31,-1
 356 662 l 1,32,33
 376 698 376 698 376 714 c 1,34,-1
 368 714 l 1,35,36
 324 682 324 682 296 642 c 1,37,-1
 296 634 l 1,38,-1
 300 634 l 1,39,40
 340 650 340 650 352 650 c 1,41,42
 316 578 316 578 256 522 c 1,43,-1
 252 522 l 1,44,45
 185 585 185 585 156 654 c 1,46,-1
 160 654 l 1,47,48
 196 634 196 634 212 634 c 1,49,-1
 212 642 l 1,50,51
 180 686 180 686 140 714 c 1,52,-1
 132 714 l 1,53,-1
 132 710 l 1,54,55
 148 670 148 670 148 658 c 1,56,57
 76 694 76 694 20 754 c 1,58,-1
 20 758 l 1,59,60
 83 825 83 825 152 854 c 1,61,-1
 152 850 l 1,62,63
 132 814 132 814 132 798 c 1,64,-1
 140 798 l 1,65,66
 184 830 184 830 212 870 c 1,67,-1
 212 878 l 1,68,-1
 208 878 l 1,69,70
 168 862 168 862 156 862 c 1,71,72
 192 934 192 934 252 990 c 1,13,-1
EndSplineSet
Validated: 33
EndChar

StartChar: less
Encoding: 60 60 31
Width: 1014
GlyphClass: 1
Flags: W
LayerCount: 2
Fore
SplineSet
927 1074 m 1,0,-1
 302 715 l 1,1,-1
 927 360 l 1,2,-1
 927 193 l 1,3,-1
 87 674 l 1,4,-1
 87 757 l 1,5,-1
 927 1241 l 1,6,-1
 927 1074 l 1,0,-1
EndSplineSet
Validated: 1
EndChar

StartChar: equal
Encoding: 61 61 32
Width: 1014
GlyphClass: 1
Flags: W
LayerCount: 2
Fore
SplineSet
87 631 m 1,0,-1
 927 631 l 1,1,-1
 927 491 l 1,2,-1
 87 491 l 1,3,-1
 87 631 l 1,0,-1
87 943 m 1,4,-1
 927 943 l 1,5,-1
 927 803 l 1,6,-1
 87 803 l 1,7,-1
 87 943 l 1,4,-1
EndSplineSet
Validated: 1
EndChar

StartChar: greater
Encoding: 62 62 33
Width: 1014
GlyphClass: 1
Flags: W
LayerCount: 2
Fore
SplineSet
87 1241 m 1,0,-1
 927 757 l 1,1,-1
 927 674 l 1,2,-1
 87 193 l 1,3,-1
 87 360 l 1,4,-1
 712 715 l 1,5,-1
 87 1074 l 1,6,-1
 87 1241 l 1,0,-1
EndSplineSet
Validated: 1
EndChar

StartChar: question
Encoding: 63 63 34
Width: 950
GlyphClass: 1
Flags: W
LayerCount: 2
Fore
SplineSet
77 1430 m 2,0,-1
 484 1430 l 2,1,2
 655 1430 655 1430 799 1241 c 1,3,4
 868 1132 868 1132 868 1023 c 0,5,6
 868 879 868 879 734 741 c 1,7,8
 610 626 610 626 424 626 c 2,9,-1
 276 626 l 1,10,-1
 276 228 l 2,11,12
 276 219 276 219 267 219 c 2,13,-1
 68 219 l 2,14,15
 59 219 59 219 59 228 c 2,16,-1
 59 316 l 2,17,18
 59 496 59 496 64 834 c 1,19,-1
 73 838 l 1,20,-1
 457 838 l 2,21,22
 593 838 593 838 660 1010 c 1,23,24
 660 1150 660 1150 507 1213 c 0,25,26
 500 1218 500 1218 484 1218 c 2,27,-1
 77 1218 l 2,28,29
 68 1218 68 1218 68 1227 c 2,30,-1
 68 1421 l 2,31,32
 70 1430 70 1430 77 1430 c 2,0,-1
167 205 m 1,33,-1
 170 205 l 1,34,35
 225 153 225 153 249 96 c 1,36,-1
 246 96 l 1,37,38
 216 113 216 113 203 113 c 1,39,-1
 203 106 l 1,40,41
 229 70 229 70 262 47 c 1,42,-1
 269 47 l 1,43,-1
 269 50 l 1,44,45
 256 83 256 83 256 93 c 1,46,47
 315 63 315 63 361 14 c 1,48,-1
 361 11 l 1,49,50
 309 -44 309 -44 252 -68 c 1,51,-1
 252 -65 l 1,52,53
 269 -35 269 -35 269 -22 c 1,54,-1
 262 -22 l 1,55,56
 226 -48 226 -48 203 -81 c 1,57,-1
 203 -88 l 1,58,-1
 206 -88 l 1,59,60
 239 -75 239 -75 249 -75 c 1,61,62
 219 -134 219 -134 170 -180 c 1,63,-1
 167 -180 l 1,64,65
 112 -128 112 -128 88 -71 c 1,66,-1
 91 -71 l 1,67,68
 121 -88 121 -88 134 -88 c 1,69,-1
 134 -81 l 1,70,71
 108 -45 108 -45 75 -22 c 1,72,-1
 68 -22 l 1,73,-1
 68 -25 l 1,74,75
 81 -58 81 -58 81 -68 c 1,76,77
 22 -38 22 -38 -24 11 c 1,78,-1
 -24 14 l 1,79,80
 28 69 28 69 85 93 c 1,81,-1
 85 90 l 1,82,83
 68 60 68 60 68 47 c 1,84,-1
 75 47 l 1,85,86
 111 73 111 73 134 106 c 1,87,-1
 134 113 l 1,88,-1
 131 113 l 1,89,90
 98 100 98 100 88 100 c 1,91,92
 118 159 118 159 167 205 c 1,33,-1
EndSplineSet
Validated: 1
EndChar

StartChar: at
Encoding: 64 64 35
Width: 1389
GlyphClass: 1
Flags: W
LayerCount: 2
Fore
SplineSet
668 1481 m 2,0,-1
 708 1481 l 2,1,2
 1039 1481 1039 1481 1265 1145 c 1,3,4
 1376 956 1376 956 1376 758 c 2,5,-1
 1376 723 l 2,6,7
 1376 529 1376 529 1280 372 c 1,8,-1
 889 372 l 2,9,10
 879 372 879 372 879 382 c 2,11,-1
 879 477 l 1,12,-1
 874 477 l 1,13,14
 775 407 775 407 683 407 c 2,15,-1
 618 407 l 2,16,17
 420 407 420 407 306 633 c 1,18,19
 286 695 286 695 286 738 c 2,20,-1
 286 798 l 2,21,22
 286 1005 286 1005 527 1115 c 1,23,24
 581 1130 581 1130 618 1130 c 2,25,-1
 683 1130 l 2,26,27
 775 1130 775 1130 874 1059 c 0,28,29
 876 1059 876 1059 889 1069 c 1,30,-1
 1024 1069 l 2,31,32
 1034 1068 1034 1068 1034 1059 c 2,33,-1
 1034 482 l 1,34,-1
 1120 482 l 1,35,36
 1180 610 1180 610 1180 733 c 2,37,-1
 1180 738 l 2,38,39
 1180 1076 1180 1076 863 1240 c 1,40,41
 767 1270 767 1270 703 1270 c 2,42,-1
 673 1270 l 2,43,44
 414 1270 414 1270 251 989 c 1,45,46
 196 871 196 871 196 738 c 2,47,-1
 196 728 l 2,48,49
 196 422 196 422 487 256 c 1,50,51
 579 211 579 211 673 211 c 2,52,-1
 703 211 l 2,53,54
 755 211 755 211 853 236 c 1,55,-1
 858 236 l 1,56,-1
 858 30 l 1,57,58
 826 0 826 0 708 0 c 2,59,-1
 668 0 l 2,60,61
 334 0 334 0 100 346 c 1,62,63
 0 547 0 547 0 708 c 2,64,-1
 0 763 l 2,65,66
 0 1096 0 1096 281 1340 c 1,67,68
 469 1481 469 1481 668 1481 c 2,0,-1
437 768 m 1,69,70
 437 618 437 618 618 562 c 1,71,-1
 648 557 l 1,72,73
 793 557 793 557 853 723 c 0,74,75
 858 742 858 742 858 763 c 2,76,-1
 858 773 l 2,77,78
 858 911 858 911 693 974 c 0,79,80
 687 974 687 974 643 979 c 1,81,82
 513 979 513 979 442 813 c 1,83,84
 442 795 442 795 437 768 c 1,69,70
EndSplineSet
Validated: 1
EndChar

StartChar: A
Encoding: 65 65 36
Width: 940
GlyphClass: 1
Flags: W
LayerCount: 2
Fore
SplineSet
362 1438 m 2,0,-1
 572 1438 l 2,1,2
 763 1438 763 1438 880 1234 c 1,3,4
 915 1159 915 1159 915 1094 c 2,5,-1
 915 14 l 2,6,7
 915 4 915 4 905 4 c 2,8,-1
 691 4 l 2,9,10
 681 4 681 4 681 14 c 2,11,-1
 681 636 l 1,12,-1
 243 636 l 1,13,-1
 243 14 l 2,14,15
 243 4 243 4 233 4 c 2,16,-1
 19 4 l 2,17,18
 9 4 9 4 9 14 c 2,19,-1
 9 1094 l 2,20,21
 9 1297 9 1297 233 1413 c 1,22,23
 294 1438 294 1438 362 1438 c 2,0,-1
234 941 m 2,24,-1
 234 866 l 1,25,-1
 672 866 l 1,26,-1
 672 931 l 2,27,28
 672 1107 672 1107 538 1175 c 1,29,30
 489 1195 489 1195 468 1195 c 2,31,-1
 438 1195 l 2,32,33
 352 1195 352 1195 269 1085 c 1,34,35
 234 1026 234 1026 234 941 c 2,24,-1
EndSplineSet
Validated: 1
EndChar

StartChar: B
Encoding: 66 66 37
Width: 979
GlyphClass: 1
Flags: W
LayerCount: 2
Fore
SplineSet
10 1428 m 2,0,-1
 501 1428 l 2,1,2
 694 1428 694 1428 807 1213 c 1,3,4
 832 1152 832 1152 832 1082 c 2,5,-1
 832 1042 l 2,6,7
 832 945 832 945 762 842 c 1,8,9
 942 694 942 694 942 486 c 2,10,-1
 942 456 l 2,11,12
 942 192 942 192 666 40 c 1,13,14
 570 0 570 0 486 0 c 2,15,-1
 456 0 l 2,16,17
 185 0 185 0 35 286 c 1,18,19
 0 375 0 375 0 456 c 2,20,-1
 0 1418 l 2,21,22
 2 1428 2 1428 10 1428 c 2,0,-1
225 1187 m 1,23,-1
 225 877 l 1,24,-1
 230 877 l 1,25,26
 341 947 341 947 511 947 c 1,27,28
 591 982 591 982 591 1047 c 2,29,-1
 591 1087 l 1,30,31
 571 1187 571 1187 491 1187 c 2,32,-1
 225 1187 l 1,23,-1
230 461 m 0,33,34
 230 303 230 303 421 235 c 1,35,36
 455 230 455 230 476 230 c 0,37,38
 641 230 641 230 706 421 c 1,39,40
 711 455 711 455 711 476 c 0,41,42
 711 641 711 641 521 706 c 1,43,44
 496 706 496 706 446 711 c 1,45,46
 383 711 383 711 296 636 c 1,47,48
 230 565 230 565 230 461 c 0,33,34
EndSplineSet
Validated: 1
EndChar

StartChar: C
Encoding: 67 67 38
Width: 1057
GlyphClass: 1
Flags: W
LayerCount: 2
Fore
SplineSet
684 1428 m 2,0,-1
 1021 1428 l 2,1,2
 1031 1426 1031 1426 1031 1418 c 2,3,-1
 1031 1200 l 2,4,5
 1031 1190 1031 1190 1021 1190 c 2,6,-1
 729 1190 l 2,7,8
 366 1190 366 1190 248 818 c 1,9,10
 238 756 238 756 238 714 c 2,11,-1
 238 709 l 2,12,13
 238 442 238 442 501 288 c 1,14,15
 605 238 605 238 734 238 c 2,16,-1
 1021 238 l 2,17,18
 1031 236 1031 236 1031 228 c 2,19,-1
 1031 10 l 2,20,21
 1031 0 1031 0 1021 0 c 2,22,-1
 699 0 l 2,23,24
 363 0 363 0 129 302 c 1,25,26
 0 489 0 489 0 699 c 2,27,-1
 0 744 l 2,28,29
 0 1055 0 1055 298 1299 c 1,30,31
 500 1428 500 1428 684 1428 c 2,0,-1
EndSplineSet
Validated: 1
EndChar

StartChar: D
Encoding: 68 68 39
Width: 936
GlyphClass: 1
Flags: W
LayerCount: 2
Fore
SplineSet
273 1433 m 1,0,1
 408 1433 408 1433 615 1309 c 1,2,3
 922 1068 922 1068 922 749 c 2,4,-1
 922 704 l 2,5,6
 922 317 922 317 536 79 c 1,7,8
 366 0 366 0 159 0 c 2,9,-1
 10 0 l 2,10,11
 0 0 0 0 0 10 c 2,12,-1
 0 1418 l 2,13,14
 2 1428 2 1428 10 1428 c 2,15,-1
 30 1428 l 2,16,17
 132 1428 132 1428 273 1433 c 1,0,1
233 1195 m 1,18,-1
 233 243 l 1,19,20
 434 243 434 243 605 451 c 1,21,22
 684 589 684 589 684 714 c 0,23,24
 684 1032 684 1032 362 1170 c 0,25,26
 319 1185 319 1185 233 1195 c 1,18,-1
EndSplineSet
Validated: 1
EndChar

StartChar: E
Encoding: 69 69 40
Width: 750
GlyphClass: 1
Flags: W
LayerCount: 2
Fore
SplineSet
338 1433 m 2,0,-1
 712 1433 l 2,1,2
 721 1431 721 1431 721 1423 c 2,3,-1
 721 1194 l 1,4,5
 647 1199 647 1199 612 1199 c 2,6,-1
 508 1199 l 2,7,8
 306 1199 306 1199 244 1030 c 1,9,10
 234 968 234 968 234 925 c 2,11,-1
 234 861 l 1,12,-1
 438 861 l 2,13,14
 448 859 448 859 448 851 c 2,15,-1
 448 642 l 2,16,17
 448 632 448 632 438 632 c 2,18,-1
 234 632 l 1,19,-1
 234 503 l 2,20,21
 234 234 234 234 517 234 c 2,22,-1
 562 234 l 2,23,24
 572 232 572 232 572 224 c 2,25,-1
 572 10 l 2,26,27
 572 0 572 0 562 0 c 2,28,-1
 343 0 l 2,29,30
 152 0 152 0 35 204 c 1,31,32
 0 276 0 276 0 343 c 2,33,-1
 0 1095 l 2,34,35
 0 1305 0 1305 244 1418 c 1,36,37
 307 1433 307 1433 338 1433 c 2,0,-1
EndSplineSet
Validated: 1
EndChar

StartChar: F
Encoding: 70 70 41
Width: 502
GlyphClass: 1
Flags: W
LayerCount: 2
Fore
SplineSet
355 1438 m 2,0,-1
 714 1438 l 2,1,2
 724 1436 724 1436 724 1428 c 2,3,-1
 724 1198 l 1,4,5
 649 1203 649 1203 614 1203 c 2,6,-1
 504 1203 l 2,7,8
 326 1203 326 1203 260 1069 c 0,9,10
 235 1017 235 1017 235 944 c 2,11,-1
 235 864 l 1,12,-1
 439 864 l 2,13,14
 449 862 449 862 449 854 c 2,15,-1
 449 644 l 2,16,17
 449 634 449 634 439 634 c 2,18,-1
 235 634 l 1,19,-1
 235 10 l 2,20,21
 235 0 235 0 225 0 c 2,22,-1
 10 0 l 2,23,24
 0 0 0 0 0 10 c 2,25,-1
 0 1093 l 2,26,27
 0 1297 0 1297 225 1413 c 1,28,29
 286 1438 286 1438 355 1438 c 2,0,-1
EndSplineSet
Validated: 1
EndChar

StartChar: G
Encoding: 71 71 42
Width: 1077
GlyphClass: 1
Flags: W
LayerCount: 2
Fore
SplineSet
687 1433 m 2,0,-1
 1025 1433 l 2,1,2
 1035 1431 1035 1431 1035 1423 c 2,3,-1
 1035 1204 l 2,4,5
 1035 1194 1035 1194 1025 1194 c 2,6,-1
 731 1194 l 2,7,8
 368 1194 368 1194 249 821 c 1,9,10
 239 759 239 759 239 717 c 2,11,-1
 239 712 l 2,12,13
 239 444 239 444 503 289 c 1,14,15
 608 239 608 239 736 239 c 2,16,-1
 831 239 l 1,17,-1
 831 338 l 2,18,19
 831 533 831 533 612 612 c 0,20,21
 590 622 590 622 547 622 c 2,22,-1
 517 622 l 1,23,-1
 493 617 l 1,24,-1
 488 627 l 1,25,-1
 488 816 l 2,26,27
 489 826 489 826 498 826 c 2,28,-1
 572 826 l 2,29,30
 812 826 812 826 970 587 c 1,31,32
 1035 475 1035 475 1035 363 c 2,33,-1
 1035 10 l 2,34,35
 1035 0 1035 0 1025 0 c 2,36,-1
 702 0 l 2,37,38
 364 0 364 0 129 304 c 1,39,40
 0 491 0 491 0 702 c 2,41,-1
 0 746 l 2,42,43
 0 1058 0 1058 299 1304 c 1,44,45
 501 1433 501 1433 687 1433 c 2,0,-1
EndSplineSet
Validated: 1
EndChar

StartChar: H
Encoding: 72 72 43
Width: 975
GlyphClass: 1
Flags: W
LayerCount: 2
Fore
SplineSet
10 1428 m 2,0,-1
 224 1428 l 2,1,2
 234 1426 234 1426 234 1418 c 2,3,-1
 234 567 l 1,4,-1
 707 567 l 1,5,-1
 707 1418 l 2,6,7
 708 1428 708 1428 716 1428 c 2,8,-1
 930 1428 l 2,9,10
 940 1426 940 1426 940 1418 c 2,11,-1
 940 10 l 2,12,13
 940 0 940 0 930 0 c 2,14,-1
 716 0 l 2,15,16
 707 0 707 0 707 10 c 2,17,-1
 707 333 l 1,18,-1
 234 333 l 1,19,-1
 234 10 l 2,20,21
 234 0 234 0 224 0 c 2,22,-1
 10 0 l 2,23,24
 0 0 0 0 0 10 c 2,25,-1
 0 1418 l 2,26,27
 2 1428 2 1428 10 1428 c 2,0,-1
EndSplineSet
Validated: 1
EndChar

StartChar: I
Encoding: 73 73 44
Width: 273
GlyphClass: 1
Flags: W
LayerCount: 2
Fore
SplineSet
10 1433 m 2,0,-1
 225 1433 l 2,1,2
 235 1431 235 1431 235 1423 c 2,3,-1
 235 10 l 2,4,5
 235 0 235 0 225 0 c 2,6,-1
 10 0 l 2,7,8
 0 0 0 0 0 10 c 2,9,-1
 0 1423 l 2,10,11
 2 1433 2 1433 10 1433 c 2,0,-1
EndSplineSet
Validated: 1
EndChar

StartChar: J
Encoding: 74 74 45
Width: 931
GlyphClass: 1
Flags: W
LayerCount: 2
Fore
SplineSet
663 1435 m 2,0,-1
 877 1435 l 2,1,2
 887 1434 887 1434 887 1425 c 2,3,-1
 887 334 l 2,4,5
 887 127 887 127 658 20 c 0,6,7
 607 0 607 0 543 0 c 2,8,-1
 10 0 l 2,9,10
 0 0 0 0 0 10 c 2,11,-1
 0 224 l 2,12,13
 2 234 2 234 10 234 c 2,14,-1
 483 234 l 2,15,16
 595 234 595 234 633 284 c 1,17,18
 653 329 653 329 653 404 c 2,19,-1
 653 1425 l 2,20,21
 654 1435 654 1435 663 1435 c 2,0,-1
EndSplineSet
Validated: 1
EndChar

StartChar: K
Encoding: 75 75 46
Width: 931
GlyphClass: 1
Flags: W
LayerCount: 2
Fore
SplineSet
0 1433 m 1,0,-1
 224 1433 l 1,1,-1
 224 980 l 1,2,3
 522 1338 522 1338 587 1433 c 1,4,-1
 881 1433 l 1,5,-1
 881 1428 l 1,6,-1
 358 781 l 1,7,-1
 881 10 l 1,8,-1
 881 0 l 1,9,-1
 607 0 l 1,10,11
 556 91 556 91 224 572 c 1,12,-1
 224 0 l 1,13,-1
 0 0 l 1,14,-1
 0 1433 l 1,0,-1
EndSplineSet
Validated: 1
EndChar

StartChar: L
Encoding: 76 76 47
Width: 906
GlyphClass: 1
Flags: W
LayerCount: 2
Fore
SplineSet
10 1419 m 2,0,-1
 222 1419 l 2,1,2
 232 1417 232 1417 232 1409 c 2,3,-1
 232 399 l 2,4,5
 232 285 232 285 281 251 c 1,6,7
 325 232 325 232 399 232 c 2,8,-1
 867 232 l 2,9,10
 877 230 877 230 877 222 c 2,11,-1
 877 10 l 2,12,13
 877 0 877 0 867 0 c 2,14,-1
 340 0 l 2,15,16
 91 0 91 0 5 276 c 0,17,18
 0 302 0 302 0 325 c 2,19,-1
 0 1409 l 2,20,21
 2 1419 2 1419 10 1419 c 2,0,-1
EndSplineSet
Validated: 1
EndChar

StartChar: M
Encoding: 77 77 48
Width: 1077
GlyphClass: 1
Flags: W
LayerCount: 2
Fore
SplineSet
0 1442 m 1,0,-1
 300 1442 l 1,1,-1
 501 931 l 1,2,3
 511 936 511 936 711 1442 c 1,4,-1
 1021 1442 l 1,5,-1
 1021 0 l 1,6,-1
 791 0 l 1,7,-1
 791 1016 l 1,8,-1
 786 1016 l 1,9,10
 635 625 635 625 621 616 c 1,11,-1
 391 616 l 2,12,13
 377 616 377 616 235 986 c 1,14,-1
 230 986 l 1,15,-1
 230 0 l 1,16,-1
 0 0 l 1,17,-1
 0 1442 l 1,0,-1
EndSplineSet
Validated: 1
EndChar

StartChar: N
Encoding: 78 78 49
Width: 940
GlyphClass: 1
Flags: W
LayerCount: 2
Fore
SplineSet
0 1433 m 1,0,-1
 299 1433 l 1,1,-1
 652 542 l 1,2,-1
 657 542 l 1,3,-1
 657 1433 l 1,4,-1
 886 1433 l 1,5,-1
 886 0 l 1,6,-1
 622 0 l 1,7,-1
 234 980 l 1,8,-1
 229 980 l 1,9,-1
 229 0 l 1,10,-1
 0 0 l 1,11,-1
 0 1433 l 1,0,-1
EndSplineSet
Validated: 1
EndChar

StartChar: O
Encoding: 79 79 50
Width: 1446
GlyphClass: 1
Flags: W
LayerCount: 2
Fore
SplineSet
704 1438 m 2,0,-1
 734 1438 l 2,1,2
 1074 1438 1074 1438 1308 1133 c 1,3,4
 1438 944 1438 944 1438 734 c 2,5,-1
 1438 704 l 2,6,7
 1438 303 1438 303 1029 65 c 1,8,9
 866 0 866 0 744 0 c 2,10,-1
 704 0 l 2,11,12
 345 0 345 0 110 335 c 1,13,14
 0 516 0 516 0 689 c 2,15,-1
 0 734 l 2,16,17
 0 1076 0 1076 305 1308 c 1,18,19
 492 1438 492 1438 704 1438 c 2,0,-1
240 714 m 0,20,21
 240 423 240 423 539 275 c 1,22,23
 632 240 632 240 724 240 c 0,24,25
 1015 240 1015 240 1163 539 c 1,26,27
 1198 632 1198 632 1198 724 c 0,28,29
 1198 1020 1198 1020 889 1168 c 1,30,31
 801 1198 801 1198 714 1198 c 0,32,33
 417 1198 417 1198 270 889 c 1,34,35
 240 801 240 801 240 714 c 0,20,21
EndSplineSet
Validated: 1
EndChar

StartChar: P
Encoding: 80 80 51
Width: 979
GlyphClass: 1
Flags: W
LayerCount: 2
Fore
SplineSet
383 1433 m 1,0,-1
 565 1433 l 1,1,2
 565 1421 565 1421 641 1408 c 1,3,4
 949 1257 949 1257 949 974 c 2,5,-1
 949 944 l 2,6,7
 949 672 949 672 661 520 c 1,8,9
 564 484 564 484 489 484 c 2,10,-1
 459 484 l 2,11,12
 344 484 344 484 232 550 c 1,13,-1
 227 550 l 1,14,-1
 227 10 l 2,15,16
 227 0 227 0 217 0 c 2,17,-1
 10 0 l 2,18,19
 0 0 0 0 0 10 c 2,20,-1
 0 974 l 2,21,22
 0 1247 0 1247 288 1398 c 1,23,-1
 383 1428 l 1,24,-1
 383 1433 l 1,0,-1
232 959 m 0,25,26
 232 784 232 784 424 722 c 1,27,28
 458 717 458 717 479 717 c 0,29,30
 646 717 646 717 711 908 c 1,31,-1
 717 959 l 1,32,33
 717 1128 717 1128 530 1196 c 1,34,35
 495 1201 495 1201 474 1201 c 0,36,37
 299 1201 299 1201 237 1009 c 0,38,39
 232 983 232 983 232 959 c 0,25,26
EndSplineSet
Validated: 1
EndChar

StartChar: Q
Encoding: 81 81 52
Width: 1438
GlyphClass: 1
Flags: W
LayerCount: 2
Fore
SplineSet
685 1423 m 2,0,-1
 714 1423 l 2,1,2
 1045 1423 1045 1423 1273 1127 c 1,3,4
 1399 943 1399 943 1399 738 c 2,5,-1
 1399 709 l 2,6,7
 1399 451 1399 451 1205 238 c 1,8,9
 1271 199 1271 199 1341 199 c 2,10,-1
 1370 199 l 1,11,-1
 1394 204 l 1,12,-1
 1399 194 l 1,13,-1
 1399 10 l 2,14,15
 1399 0 1399 0 1389 0 c 2,16,-1
 1316 0 l 2,17,18
 1170 0 1170 0 1035 107 c 1,19,-1
 1030 107 l 1,20,21
 875 24 875 24 724 24 c 2,22,-1
 685 24 l 2,23,24
 335 24 335 24 107 350 c 1,25,26
 0 526 0 526 0 695 c 2,27,-1
 0 738 l 2,28,29
 0 1071 0 1071 296 1297 c 1,30,31
 479 1423 479 1423 685 1423 c 2,0,-1
233 719 m 0,32,33
 233 436 233 436 525 291 c 1,34,35
 615 257 615 257 704 257 c 1,36,37
 894 279 894 279 894 306 c 1,38,39
 865 376 865 376 865 452 c 2,40,-1
 865 505 l 2,41,42
 866 515 866 515 874 515 c 2,43,-1
 1054 515 l 2,44,45
 1064 513 1064 513 1064 505 c 2,46,-1
 1064 442 l 1,47,-1
 1074 442 l 1,48,49
 1166 580 1166 580 1166 729 c 0,50,51
 1166 1016 1166 1016 865 1161 c 1,52,53
 779 1190 779 1190 695 1190 c 0,54,55
 405 1190 405 1190 262 889 c 1,56,57
 233 803 233 803 233 719 c 0,32,33
EndSplineSet
Validated: 1
EndChar

StartChar: R
Encoding: 82 82 53
Width: 970
GlyphClass: 1
Flags: W
LayerCount: 2
Fore
SplineSet
379 1438 m 1,0,-1
 559 1438 l 1,1,2
 559 1426 559 1426 634 1413 c 1,3,4
 939 1263 939 1263 939 984 c 2,5,-1
 939 954 l 2,6,7
 939 765 939 765 779 614 c 1,8,9
 667 529 667 529 639 529 c 1,10,-1
 639 524 l 1,11,12
 774 384 774 384 774 210 c 2,13,-1
 774 0 l 1,14,-1
 569 0 l 1,15,-1
 569 185 l 2,16,17
 569 380 569 380 350 459 c 0,18,19
 327 469 327 469 285 469 c 2,20,-1
 260 469 l 1,21,-1
 225 464 l 1,22,-1
 225 30 l 2,23,24
 225 20 225 20 215 20 c 2,25,-1
 10 20 l 2,26,27
 0 20 0 20 0 30 c 2,28,-1
 0 984 l 2,29,30
 0 1254 0 1254 285 1403 c 1,31,-1
 379 1433 l 1,32,-1
 379 1438 l 1,0,-1
230 969 m 0,33,34
 230 795 230 795 419 734 c 1,35,36
 454 729 454 729 474 729 c 0,37,38
 639 729 639 729 704 919 c 1,39,-1
 709 969 l 1,40,41
 709 1137 709 1137 524 1203 c 1,42,43
 490 1208 490 1208 469 1208 c 0,44,45
 296 1208 296 1208 235 1019 c 0,46,47
 230 992 230 992 230 969 c 0,33,34
EndSplineSet
Validated: 1
EndChar

StartChar: S
Encoding: 83 83 54
Width: 931
GlyphClass: 1
Flags: W
LayerCount: 2
Fore
SplineSet
417 1433 m 2,0,-1
 829 1433 l 2,1,2
 839 1431 839 1431 839 1423 c 2,3,-1
 839 1204 l 2,4,5
 839 1193 839 1193 829 1193 c 2,6,-1
 427 1193 l 2,7,8
 335 1193 335 1193 255 1053 c 1,9,10
 229 983 229 983 229 922 c 1,11,12
 234 912 234 912 234 907 c 1,13,-1
 422 907 l 2,14,15
 733 907 733 907 875 599 c 0,16,17
 907 525 907 525 907 453 c 0,18,19
 907 212 907 212 646 47 c 1,20,21
 542 0 542 0 474 0 c 2,22,-1
 16 0 l 2,23,24
 5 0 5 0 5 10 c 2,25,-1
 5 229 l 2,26,27
 7 240 7 240 16 240 c 2,28,-1
 474 240 l 2,29,30
 566 240 566 240 646 370 c 1,31,32
 672 428 672 428 672 474 c 1,33,34
 600 667 600 667 438 667 c 2,35,-1
 10 667 l 2,36,37
 0 667 0 667 0 677 c 2,38,-1
 0 974 l 2,39,40
 0 1242 0 1242 281 1397 c 1,41,42
 367 1433 367 1433 417 1433 c 2,0,-1
EndSplineSet
Validated: 1
EndChar

StartChar: T
Encoding: 84 84 55
Width: 1004
GlyphClass: 1
Flags: W
LayerCount: 2
Fore
SplineSet
723 1435 m 2,0,-1
 999 1435 l 2,1,2
 1009 1434 1009 1434 1009 1425 c 2,3,-1
 1009 1201 l 2,4,5
 1009 1191 1009 1191 999 1191 c 2,6,-1
 801 1191 l 2,7,8
 635 1191 635 1191 635 1077 c 1,9,10
 629 1065 629 1065 629 988 c 2,11,-1
 629 10 l 2,12,13
 629 0 629 0 619 0 c 2,14,-1
 395 0 l 2,15,16
 385 0 385 0 385 10 c 2,17,-1
 385 988 l 2,18,19
 385 1149 385 1149 354 1149 c 1,20,21
 335 1191 335 1191 213 1191 c 2,22,-1
 10 1191 l 2,23,24
 0 1191 0 1191 0 1201 c 2,25,-1
 0 1425 l 2,26,27
 2 1435 2 1435 10 1435 c 2,28,-1
 291 1435 l 2,29,30
 291 1435 291 1435 723 1435 c 2,0,-1
EndSplineSet
Validated: 1
EndChar

StartChar: U
Encoding: 85 85 56
Width: 1194
GlyphClass: 1
Flags: W
LayerCount: 2
Fore
SplineSet
10 1433 m 2,0,-1
 224 1433 l 2,1,2
 234 1431 234 1431 234 1423 c 2,3,-1
 234 503 l 2,4,5
 234 326 234 326 368 259 c 0,6,7
 421 234 421 234 503 234 c 2,8,-1
 627 234 l 2,9,10
 896 234 896 234 896 517 c 2,11,-1
 896 1423 l 2,12,13
 897 1433 897 1433 906 1433 c 2,14,-1
 1120 1433 l 2,15,16
 1129 1431 1129 1431 1129 1423 c 2,17,-1
 1129 343 l 2,18,19
 1129 152 1129 152 925 35 c 1,20,21
 849 0 849 0 786 0 c 2,22,-1
 343 0 l 2,23,24
 152 0 152 0 35 204 c 1,25,26
 0 276 0 276 0 343 c 2,27,-1
 0 1423 l 2,28,29
 2 1433 2 1433 10 1433 c 2,0,-1
EndSplineSet
Validated: 1
EndChar

StartChar: V
Encoding: 86 86 57
Width: 1355
GlyphClass: 1
Flags: W
LayerCount: 2
Fore
SplineSet
10 1428 m 1,0,-1
 235 1428 l 1,1,2
 250 1424 250 1424 399 1044 c 0,3,4
 696 301 696 301 704 300 c 1,5,6
 1143 1411 1143 1411 1163 1428 c 1,7,-1
 1393 1428 l 1,8,-1
 1403 1423 l 1,9,10
 884 134 884 134 824 0 c 1,11,-1
 579 0 l 1,12,13
 549 42 549 42 135 1093 c 1,14,15
 100 1163 100 1163 0 1423 c 1,16,-1
 10 1428 l 1,0,-1
EndSplineSet
Validated: 1
EndChar

StartChar: W
Encoding: 87 87 58
Width: 2037
GlyphClass: 1
Flags: W
LayerCount: 2
Fore
SplineSet
10 1437 m 1,0,-1
 236 1437 l 1,1,2
 252 1433 252 1433 402 1050 c 0,3,4
 700 303 700 303 708 301 c 1,5,6
 708 310 708 310 934 869 c 1,7,8
 809 1175 809 1175 708 1432 c 1,9,-1
 718 1437 l 1,10,-1
 944 1437 l 2,11,12
 960 1437 960 1437 1055 1181 c 1,13,14
 1064 1185 1064 1185 1165 1437 c 1,15,-1
 1402 1437 l 1,16,-1
 1412 1432 l 1,17,18
 1186 883 1186 883 1186 859 c 1,19,20
 1407 313 1407 313 1417 301 c 1,21,22
 1859 1419 1859 1419 1879 1437 c 1,23,-1
 2110 1437 l 1,24,-1
 2120 1432 l 1,25,26
 1598 135 1598 135 1537 0 c 1,27,-1
 1291 0 l 1,28,29
 1261 41 1261 41 1075 527 c 0,30,31
 1060 558 1060 558 1055 558 c 1,32,33
 841 0 841 0 824 0 c 2,34,-1
 583 0 l 1,35,36
 553 43 553 43 136 1100 c 1,37,38
 100 1171 100 1171 0 1432 c 1,39,-1
 10 1437 l 1,0,-1
EndSplineSet
Validated: 1
EndChar

StartChar: X
Encoding: 88 88 59
Width: 867
GlyphClass: 1
Flags: W
LayerCount: 2
Fore
SplineSet
0 1438 m 1,0,-1
 236 1438 l 1,1,2
 255 1429 255 1429 417 1006 c 1,3,4
 426 1012 426 1012 598 1438 c 1,5,-1
 835 1438 l 1,6,-1
 845 1433 l 1,7,8
 553 718 553 718 548 689 c 1,9,-1
 825 5 l 1,10,-1
 815 0 l 1,11,-1
 583 0 l 1,12,13
 564 22 564 22 422 382 c 1,14,-1
 417 382 l 1,15,16
 273 0 273 0 256 0 c 2,17,-1
 20 0 l 1,18,19
 20 13 20 13 297 694 c 1,20,21
 0 1422 0 1422 0 1438 c 1,0,-1
EndSplineSet
Validated: 1
EndChar

StartChar: Y
Encoding: 89 89 60
Width: 926
GlyphClass: 1
Flags: W
LayerCount: 2
Fore
SplineSet
0 1433 m 1,0,-1
 249 1433 l 1,1,-1
 448 925 l 1,2,3
 458 930 458 930 657 1433 c 1,4,-1
 901 1433 l 1,5,6
 801 1165 801 1165 567 607 c 1,7,-1
 567 0 l 1,8,-1
 333 0 l 1,9,-1
 333 597 l 2,10,11
 333 606 333 606 0 1433 c 1,0,-1
EndSplineSet
Validated: 1
EndChar

StartChar: Z
Encoding: 90 90 61
Width: 960
GlyphClass: 1
Flags: W
LayerCount: 2
Fore
SplineSet
0 1433 m 1,0,-1
 1122 1433 l 2,1,2
 1131 1431 1131 1431 1131 1423 c 2,3,-1
 1131 1194 l 1,4,5
 1105 1176 1105 1176 252 229 c 1,6,-1
 1131 229 l 1,7,-1
 1131 10 l 2,8,9
 1131 0 1131 0 1122 0 c 2,10,-1
 0 0 l 1,11,-1
 0 274 l 1,12,-1
 837 1204 l 1,13,-1
 9 1204 l 2,14,15
 0 1204 0 1204 0 1214 c 2,16,-1
 0 1433 l 1,0,-1
EndSplineSet
Validated: 1
EndChar

StartChar: underscore
Encoding: 95 95 66
Width: 1024
GlyphClass: 1
Flags: W
LayerCount: 2
Fore
SplineSet
5 -35 m 2,0,-1
 1014 -35 l 2,1,2
 1028 -36 1028 -36 1028 -43 c 2,3,-1
 1028 -191 l 2,4,5
 1028 -199 1028 -199 1014 -199 c 2,6,-1
 5 -199 l 2,7,8
 -9 -199 -9 -199 -9 -191 c 2,9,-1
 -9 -43 l 2,10,11
 -7 -35 -7 -35 5 -35 c 2,0,-1
EndSplineSet
Validated: 1
EndChar

StartChar: grave
Encoding: 96 96 67
Width: 1024
GlyphClass: 1
Flags: W
LayerCount: 2
Fore
SplineSet
673 1079 m 1,0,-1
 604 1079 l 1,1,-1
 274 1281 l 2,2,3
 243 1301 243 1301 227.5 1321 c 128,-1,4
 212 1341 212 1341 212 1363 c 0,5,6
 212 1394 212 1394 232.5 1414 c 128,-1,7
 253 1434 253 1434 286 1434 c 0,8,9
 306 1434 306 1434 326.5 1422 c 128,-1,10
 347 1410 347 1410 382 1375 c 2,11,-1
 673 1079 l 1,0,-1
EndSplineSet
Validated: 1
EndChar

StartChar: a
Encoding: 97 97 68
Width: 1100
GlyphClass: 1
Flags: W
LayerCount: 2
Fore
SplineSet
482 1027 m 2,0,-1
 545 1027 l 2,1,2
 696 1027 696 1027 840 918 c 1,3,4
 840 944 840 944 851 944 c 2,5,-1
 1048 944 l 2,6,7
 1058 942 1058 942 1058 934 c 2,8,-1
 1058 10 l 2,9,10
 1058 0 1058 0 1048 0 c 2,11,-1
 851 0 l 2,12,13
 840 0 840 0 840 10 c 2,14,-1
 840 109 l 1,15,16
 696 0 696 0 545 0 c 2,17,-1
 482 0 l 2,18,19
 232 0 232 0 67 249 c 1,20,21
 0 365 0 365 0 482 c 2,22,-1
 0 545 l 2,23,24
 0 795 0 795 249 959 c 1,25,26
 365 1027 365 1027 482 1027 c 2,0,-1
213 519 m 2,27,-1
 213 508 l 2,28,29
 213 305 213 305 441 223 c 0,30,31
 464 213 464 213 508 213 c 2,32,-1
 519 213 l 2,33,34
 722 213 722 213 804 441 c 0,35,36
 814 464 814 464 814 508 c 2,37,-1
 814 519 l 2,38,39
 814 722 814 722 586 804 c 0,40,41
 563 814 563 814 519 814 c 2,42,-1
 508 814 l 2,43,44
 305 814 305 814 223 586 c 0,45,46
 213 563 213 563 213 519 c 2,27,-1
EndSplineSet
Validated: 1
EndChar

StartChar: b
Encoding: 98 98 69
Width: 1095
GlyphClass: 1
Flags: W
LayerCount: 2
Fore
SplineSet
10 1372 m 2,0,-1
 207 1372 l 2,1,2
 217 1370 217 1370 217 1362 c 2,3,-1
 217 942 l 1,4,-1
 223 942 l 1,5,6
 352 1025 352 1025 481 1025 c 2,7,-1
 544 1025 l 2,8,9
 794 1025 794 1025 958 777 c 1,10,11
 1025 660 1025 660 1025 544 c 2,12,-1
 1025 481 l 2,13,14
 1025 231 1025 231 777 67 c 1,15,16
 660 0 660 0 544 0 c 2,17,-1
 481 0 l 2,18,19
 193 0 193 0 31 316 c 1,20,21
 0 417 0 417 0 466 c 2,22,-1
 0 1362 l 2,23,24
 2 1372 2 1372 10 1372 c 2,0,-1
217 476 m 2,25,26
 217 319 217 319 430 223 c 1,27,28
 478 212 478 212 507 212 c 2,29,-1
 518 212 l 2,30,31
 720 212 720 212 802 440 c 0,32,33
 813 463 813 463 813 507 c 2,34,-1
 813 518 l 2,35,36
 813 720 813 720 585 802 c 0,37,38
 562 813 562 813 518 813 c 2,39,-1
 507 813 l 2,40,41
 298 813 298 813 217 570 c 1,42,-1
 217 476 l 2,25,26
EndSplineSet
Validated: 1
EndChar

StartChar: c
Encoding: 99 99 70
Width: 827
GlyphClass: 1
Flags: W
LayerCount: 2
Fore
SplineSet
477 1016 m 2,0,-1
 554 1016 l 2,1,2
 653 1016 653 1016 739 960 c 1,3,-1
 739 718 l 2,4,5
 739 708 739 708 729 708 c 1,6,7
 628 806 628 806 513 806 c 2,8,-1
 503 806 l 2,9,10
 302 806 302 806 221 580 c 0,11,12
 210 557 210 557 210 513 c 2,13,-1
 210 503 l 2,14,15
 210 302 210 302 436 221 c 0,16,17
 459 210 459 210 503 210 c 2,18,-1
 513 210 l 2,19,20
 628 210 628 210 729 308 c 1,21,22
 739 306 739 306 739 298 c 2,23,-1
 739 56 l 1,24,25
 653 0 653 0 554 0 c 2,26,-1
 477 0 l 2,27,28
 229 0 229 0 67 246 c 1,29,30
 0 362 0 362 0 477 c 2,31,-1
 0 539 l 2,32,33
 0 787 0 787 246 949 c 1,34,35
 362 1016 362 1016 477 1016 c 2,0,-1
EndSplineSet
Validated: 1
EndChar

StartChar: d
Encoding: 100 100 71
Width: 1100
GlyphClass: 1
Flags: W
LayerCount: 2
Fore
SplineSet
812 1361 m 2,0,-1
 1007 1361 l 2,1,2
 1017 1360 1017 1360 1017 1351 c 2,3,-1
 1017 462 l 2,4,5
 1017 260 1017 260 801 82 c 1,6,7
 661 0 661 0 539 0 c 2,8,-1
 478 0 l 2,9,10
 230 0 230 0 67 247 c 1,11,12
 0 362 0 362 0 478 c 2,13,-1
 0 539 l 2,14,15
 0 787 0 787 247 950 c 1,16,17
 362 1017 362 1017 478 1017 c 2,18,-1
 539 1017 l 2,19,20
 668 1017 668 1017 796 935 c 1,21,-1
 801 935 l 1,22,-1
 801 1351 l 2,23,24
 803 1361 803 1361 812 1361 c 2,0,-1
211 514 m 2,25,-1
 211 503 l 2,26,27
 211 302 211 302 437 221 c 0,28,29
 460 211 460 211 503 211 c 2,30,-1
 514 211 l 2,31,32
 721 211 721 211 801 452 c 1,33,-1
 801 544 l 2,34,35
 801 700 801 700 591 796 c 1,36,37
 542 806 542 806 514 806 c 2,38,-1
 503 806 l 2,39,40
 302 806 302 806 221 580 c 0,41,42
 211 557 211 557 211 514 c 2,25,-1
EndSplineSet
Validated: 1
EndChar

StartChar: e
Encoding: 101 101 72
Width: 965
GlyphClass: 1
Flags: W
LayerCount: 2
Fore
SplineSet
451 1025 m 2,0,-1
 489 1025 l 2,1,2
 734 1025 734 1025 888 774 c 1,3,4
 940 670 940 670 940 565 c 2,5,-1
 940 541 l 2,6,7
 940 451 940 451 921 451 c 2,8,-1
 195 451 l 1,9,10
 195 303 195 303 380 209 c 1,11,12
 430 195 430 195 465 195 c 2,13,-1
 893 195 l 2,14,15
 902 193 902 193 902 185 c 2,16,-1
 902 9 l 2,17,18
 902 0 902 0 893 0 c 2,19,-1
 442 0 l 2,20,21
 212 0 212 0 62 228 c 1,22,23
 0 335 0 335 0 442 c 2,24,-1
 0 565 l 2,25,26
 0 850 0 850 299 997 c 1,27,28
 383 1025 383 1025 451 1025 c 2,0,-1
204 641 m 1,29,-1
 736 641 l 1,30,31
 649 831 649 831 494 831 c 2,32,-1
 446 831 l 2,33,34
 291 831 291 831 204 641 c 1,29,-1
EndSplineSet
Validated: 1
EndChar

StartChar: f
Encoding: 102 102 73
Width: 462
GlyphClass: 1
Flags: W
LayerCount: 2
Fore
SplineSet
475 1358 m 2,0,-1
 531 1358 l 2,1,2
 541 1356 541 1356 541 1348 c 2,3,-1
 541 1159 l 2,4,5
 541 1149 541 1149 531 1149 c 2,6,-1
 500 1149 l 2,7,8
 294 1149 294 1149 214 909 c 1,9,-1
 214 786 l 1,10,-1
 408 786 l 2,11,12
 419 785 419 785 419 776 c 2,13,-1
 419 582 l 2,14,15
 419 572 419 572 408 572 c 2,16,-1
 214 572 l 1,17,-1
 214 0 l 1,18,-1
 0 0 l 1,19,-1
 0 883 l 2,20,21
 0 1130 0 1130 245 1292 c 1,22,23
 360 1358 360 1358 475 1358 c 2,0,-1
EndSplineSet
Validated: 1
EndChar

StartChar: g
Encoding: 103 103 74
Width: 1054
GlyphClass: 1
Flags: W
LayerCount: 2
Fore
SplineSet
476 1030 m 2,0,-1
 538 1030 l 2,1,2
 787 1030 787 1030 950 782 c 1,3,4
 1017 667 1017 667 1017 550 c 2,5,-1
 1017 50 l 1,6,7
 973 -121 973 -121 847 -224 c 0,8,9
 703 -337 703 -337 548 -337 c 2,10,-1
 491 -337 l 2,11,12
 481 -337 481 -337 481 -327 c 2,13,-1
 481 -136 l 2,14,15
 483 -125 483 -125 491 -125 c 2,16,-1
 522 -125 l 2,17,18
 716 -125 716 -125 801 86 c 1,19,-1
 801 91 l 1,20,-1
 796 91 l 1,21,22
 666 9 666 9 538 9 c 2,23,-1
 476 9 l 2,24,25
 227 9 227 9 63 256 c 1,26,27
 -4 372 -4 372 -4 488 c 2,28,-1
 -4 550 l 2,29,30
 -4 799 -4 799 244 963 c 1,31,32
 360 1030 360 1030 476 1030 c 2,0,-1
208 524 m 2,33,-1
 208 514 l 2,34,35
 208 312 208 312 434 230 c 0,36,37
 458 220 458 220 502 220 c 2,38,-1
 512 220 l 2,39,40
 721 220 721 220 801 463 c 1,41,-1
 806 545 l 1,42,43
 806 688 806 688 620 798 c 1,44,45
 556 819 556 819 512 819 c 2,46,-1
 502 819 l 2,47,48
 300 819 300 819 218 592 c 0,49,50
 208 568 208 568 208 524 c 2,33,-1
EndSplineSet
Validated: 1
EndChar

StartChar: h
Encoding: 104 104 75
Width: 1063
GlyphClass: 1
Flags: W
LayerCount: 2
Fore
SplineSet
10 1371 m 2,0,-1
 206 1371 l 2,1,2
 217 1370 217 1370 217 1361 c 2,3,-1
 217 944 l 1,4,-1
 222 944 l 1,5,6
 351 1026 351 1026 479 1026 c 2,7,-1
 541 1026 l 2,8,9
 817 1026 817 1026 980 732 c 1,10,11
 1011 655 1011 655 1026 557 c 1,12,-1
 1026 0 l 1,13,-1
 809 0 l 1,14,-1
 809 521 l 2,15,16
 809 722 809 722 583 804 c 0,17,18
 559 815 559 815 516 815 c 2,19,-1
 505 815 l 2,20,21
 297 815 297 815 217 572 c 1,22,-1
 217 0 l 1,23,-1
 0 0 l 1,24,-1
 0 1361 l 2,25,26
 2 1371 2 1371 10 1371 c 2,0,-1
EndSplineSet
Validated: 1
EndChar

StartChar: i
Encoding: 105 105 76
Width: 219
GlyphClass: 1
Flags: W
LayerCount: 2
Fore
SplineSet
5.5 950 m 128,-1,1
 5.5 992 5.5 992 35.75 1022 c 128,-1,2
 66 1052 66 1052 108 1052 c 128,-1,3
 150 1052 150 1052 180 1022 c 128,-1,4
 210 992 210 992 210 950 c 128,-1,5
 210 908 210 908 180 878 c 128,-1,6
 150 848 150 848 108 848 c 128,-1,7
 66 848 66 848 35.75 878 c 128,-1,0
 5.5 908 5.5 908 5.5 950 c 128,-1,1
11 793 m 2,8,-1
 200 793 l 2,9,10
 210 791 210 791 210 783 c 2,11,-1
 210 11 l 2,12,13
 210 0 210 0 200 0 c 2,14,-1
 11 0 l 2,15,16
 0 0 0 0 0 11 c 2,17,-1
 0 783 l 2,18,19
 2 793 2 793 11 793 c 2,8,-1
EndSplineSet
EndChar

StartChar: j
Encoding: 106 106 77
Width: 268
GlyphClass: 1
Flags: W
LayerCount: 2
Fore
SplineSet
5.5 950 m 132,-1,1
 6 992 6 992 36 1022 c 132,-1,2
 66 1052 66 1052 108 1052 c 132,-1,3
 150 1052 150 1052 180 1022 c 132,-1,4
 210 992 210 992 210 950 c 132,-1,5
 210 908 210 908 180 878 c 132,-1,6
 150 848 150 848 108 848 c 132,-1,7
 66 848 66 848 35.5 878 c 132,-1,0
 5 908 5 908 5.5 950 c 132,-1,1
35 792 m 2,8,-1
 214 792 l 2,9,10
 224 791 224 791 224 783 c 2,11,-1
 224 51 l 1,12,13
 183 -105 183 -105 68 -199 c 0,14,15
 -64 -303 -64 -303 -206 -303 c 2,16,-1
 -258 -303 l 2,17,18
 -267 -303 -267 -303 -267 -294 c 2,19,-1
 -267 -119 l 2,20,21
 -266 -109 -266 -109 -258 -109 c 2,22,-1
 -229 -109 l 2,23,24
 -52 -109 -52 -109 26 84 c 1,25,-1
 26 783 l 2,26,27
 27 792 27 792 35 792 c 2,8,-1
EndSplineSet
Validated: 33
EndChar

StartChar: k
Encoding: 107 107 78
Width: 933
GlyphClass: 1
Flags: W
LayerCount: 2
Fore
SplineSet
11 1481 m 2,0,-1
 221 1481 l 2,1,2
 232 1480 232 1480 232 1470 c 2,3,-1
 232 658 l 1,4,-1
 603 1023 l 1,5,-1
 907 1023 l 2,6,7
 918 1021 918 1021 918 1012 c 1,8,9
 730 831 730 831 509 603 c 1,10,-1
 1100 6 l 1,11,-1
 1089 0 l 1,12,-1
 785 0 l 1,13,-1
 343 437 l 1,14,15
 335 437 335 437 232 326 c 1,16,-1
 232 22 l 2,17,18
 232 11 232 11 221 11 c 2,19,-1
 11 11 l 2,20,21
 0 11 0 11 0 22 c 2,22,-1
 0 1470 l 2,23,24
 2 1481 2 1481 11 1481 c 2,0,-1
EndSplineSet
Validated: 1
EndChar

StartChar: l
Encoding: 108 108 79
Width: 254
GlyphClass: 1
Flags: W
LayerCount: 2
Fore
SplineSet
10 1377 m 2,0,-1
 207 1377 l 2,1,2
 217 1375 217 1375 217 1367 c 2,3,-1
 217 10 l 2,4,5
 217 0 217 0 207 0 c 2,6,-1
 10 0 l 2,7,8
 0 0 0 0 0 10 c 2,9,-1
 0 1367 l 2,10,11
 2 1377 2 1377 10 1377 c 2,0,-1
EndSplineSet
Validated: 1
EndChar

StartChar: m
Encoding: 109 109 80
Width: 1858
GlyphClass: 1
Flags: W
LayerCount: 2
Fore
SplineSet
483 1029 m 2,0,-1
 546 1029 l 2,1,2
 760 1029 760 1029 914 842 c 1,3,-1
 920 842 l 1,4,5
 1074 1029 1074 1029 1288 1029 c 2,6,-1
 1351 1029 l 2,7,8
 1602 1029 1602 1029 1766 779 c 1,9,10
 1834 663 1834 663 1834 546 c 2,11,-1
 1834 10 l 2,12,13
 1834 0 1834 0 1824 0 c 2,14,-1
 1626 0 l 2,15,16
 1616 0 1616 0 1616 10 c 2,17,-1
 1616 551 l 2,18,19
 1616 708 1616 708 1403 805 c 1,20,21
 1354 816 1354 816 1325 816 c 2,22,-1
 1314 816 l 2,23,24
 1111 816 1111 816 1029 587 c 1,25,-1
 1029 10 l 2,26,27
 1029 0 1029 0 1018 0 c 2,28,-1
 816 0 l 2,29,30
 805 0 805 0 805 10 c 2,31,-1
 805 582 l 2,32,33
 805 670 805 670 665 774 c 1,34,35
 594 816 594 816 520 816 c 2,36,-1
 509 816 l 2,37,38
 299 816 299 816 218 572 c 1,39,40
 218 556 218 556 213 556 c 1,41,-1
 218 494 l 1,42,-1
 218 10 l 2,43,44
 218 0 218 0 208 0 c 2,45,-1
 10 0 l 2,46,47
 0 0 0 0 0 10 c 2,48,-1
 0 546 l 2,49,50
 0 796 0 796 249 961 c 1,51,52
 366 1029 366 1029 483 1029 c 2,0,-1
EndSplineSet
Validated: 1
EndChar

StartChar: n
Encoding: 110 110 81
Width: 1090
GlyphClass: 1
Flags: W
LayerCount: 2
Fore
SplineSet
489 1030 m 2,0,-1
 551 1030 l 2,1,2
 829 1030 829 1030 993 733 c 1,3,4
 1024 655 1024 655 1040 556 c 1,5,-1
 1040 10 l 2,6,7
 1040 0 1040 0 1030 0 c 2,8,-1
 832 0 l 2,9,10
 822 0 822 0 822 10 c 2,11,-1
 822 520 l 2,12,13
 822 723 822 723 593 806 c 0,14,15
 569 816 569 816 525 816 c 2,16,-1
 515 816 l 2,17,18
 311 816 311 816 229 588 c 0,19,20
 218 564 218 564 218 520 c 2,21,-1
 218 10 l 2,22,23
 218 0 218 0 208 0 c 2,24,-1
 10 0 l 2,25,26
 0 0 0 0 0 10 c 2,27,-1
 0 437 l 2,28,29
 0 761 0 761 161 889 c 1,30,31
 307 1030 307 1030 489 1030 c 2,0,-1
EndSplineSet
Validated: 1
EndChar

StartChar: o
Encoding: 111 111 82
Width: 1067
GlyphClass: 1
Flags: W
LayerCount: 2
Fore
SplineSet
480 1021 m 2,0,-1
 541 1021 l 2,1,2
 790 1021 790 1021 954 773 c 1,3,4
 1021 658 1021 658 1021 541 c 2,5,-1
 1021 480 l 2,6,7
 1021 231 1021 231 773 67 c 1,8,9
 658 0 658 0 541 0 c 2,10,-1
 480 0 l 2,11,12
 231 0 231 0 67 248 c 1,13,14
 0 363 0 363 0 480 c 2,15,-1
 0 541 l 2,16,17
 0 790 0 790 248 954 c 1,18,19
 363 1021 363 1021 480 1021 c 2,0,-1
211 516 m 2,20,-1
 211 505 l 2,21,22
 211 304 211 304 438 222 c 0,23,24
 462 211 462 211 505 211 c 2,25,-1
 516 211 l 2,26,27
 717 211 717 211 799 438 c 0,28,29
 810 462 810 462 810 505 c 2,30,-1
 810 516 l 2,31,32
 810 717 810 717 583 799 c 0,33,34
 559 810 559 810 516 810 c 2,35,-1
 505 810 l 2,36,37
 304 810 304 810 222 583 c 0,38,39
 211 559 211 559 211 516 c 2,20,-1
EndSplineSet
Validated: 1
EndChar

StartChar: p
Encoding: 112 112 83
Width: 1040
GlyphClass: 1
Flags: W
LayerCount: 2
Fore
SplineSet
475 1026 m 2,0,-1
 537 1026 l 2,1,2
 786 1026 786 1026 949 780 c 1,3,4
 1016 664 1016 664 1016 548 c 2,5,-1
 1016 487 l 2,6,7
 1016 237 1016 237 769 74 c 1,8,9
 653 7 653 7 537 7 c 2,10,-1
 475 7 l 2,11,12
 347 7 347 7 219 90 c 1,13,-1
 213 90 l 1,14,-1
 213 -326 l 2,15,16
 213 -337 213 -337 203 -337 c 2,17,-1
 8 -337 l 2,18,19
 -3 -337 -3 -337 -3 -326 c 2,20,-1
 -3 563 l 2,21,22
 -3 766 -3 766 213 944 c 1,23,24
 354 1026 354 1026 475 1026 c 2,0,-1
213 481 m 2,25,26
 213 325 213 325 424 229 c 1,27,28
 472 218 472 218 501 218 c 2,29,-1
 512 218 l 2,30,31
 713 218 713 218 794 445 c 0,32,33
 805 469 805 469 805 512 c 2,34,-1
 805 522 l 2,35,36
 805 723 805 723 579 805 c 0,37,38
 555 816 555 816 512 816 c 2,39,-1
 501 816 l 2,40,41
 293 816 293 816 213 574 c 1,42,-1
 213 481 l 2,25,26
EndSplineSet
Validated: 1
EndChar

StartChar: q
Encoding: 113 113 84
Width: 1081
GlyphClass: 1
Flags: W
LayerCount: 2
Fore
SplineSet
476 1026 m 2,0,-1
 538 1026 l 2,1,2
 825 1026 825 1026 987 711 c 1,3,4
 1018 610 1018 610 1018 562 c 2,5,-1
 1018 -332 l 2,6,7
 1018 -342 1018 -342 1008 -342 c 2,8,-1
 812 -342 l 2,9,10
 801 -342 801 -342 801 -332 c 2,11,-1
 801 87 l 1,12,-1
 796 87 l 1,13,14
 667 4 667 4 538 4 c 2,15,-1
 476 4 l 2,16,17
 227 4 227 4 63 252 c 1,18,19
 -4 368 -4 368 -4 484 c 2,20,-1
 -4 546 l 2,21,22
 -4 795 -4 795 244 959 c 1,23,24
 360 1026 360 1026 476 1026 c 2,0,-1
208 520 m 2,25,-1
 208 510 l 2,26,27
 208 308 208 308 435 226 c 0,28,29
 458 216 458 216 502 216 c 2,30,-1
 512 216 l 2,31,32
 721 216 721 216 801 458 c 1,33,-1
 801 551 l 2,34,35
 801 708 801 708 590 804 c 1,36,37
 541 815 541 815 512 815 c 2,38,-1
 502 815 l 2,39,40
 300 815 300 815 218 587 c 0,41,42
 208 564 208 564 208 520 c 2,25,-1
EndSplineSet
Validated: 1
EndChar

StartChar: r
Encoding: 114 114 85
Width: 675
GlyphClass: 1
Flags: W
LayerCount: 2
Fore
SplineSet
551 1030 m 2,0,-1
 585 1030 l 2,1,2
 596 1028 596 1028 596 1020 c 2,3,-1
 596 831 l 2,4,5
 596 821 596 821 585 821 c 2,6,-1
 574 821 l 2,7,8
 313 821 313 821 236 575 c 1,9,-1
 236 0 l 1,10,-1
 0 0 l 1,11,-1
 0 544 l 2,12,13
 0 760 0 760 236 941 c 1,14,15
 390 1030 390 1030 551 1030 c 2,0,-1
EndSplineSet
Validated: 1
EndChar

StartChar: s
Encoding: 115 115 86
Width: 797
GlyphClass: 1
Flags: W
LayerCount: 2
Fore
SplineSet
-0.5 315.37890625 m 1,0,-1
 241.606445312 315.37890625 l 1,1,2
 243.001953125 273.372070312 243.001953125 273.372070312 289.473632812 248.415039062 c 128,-1,3
 335.9453125 223.458007812 335.9453125 223.458007812 408.8828125 223.458007812 c 0,4,5
 482.447265625 223.458007812 482.447265625 223.458007812 518.155273438 248.59375 c 128,-1,6
 553.862304688 273.729492188 553.862304688 273.729492188 553.862304688 313.422851562 c 0,7,8
 553.862304688 329.418945312 553.862304688 329.418945312 548.823242188 341.700195312 c 128,-1,9
 543.784179688 353.981445312 543.784179688 353.981445312 531.10546875 362.745117188 c 128,-1,10
 518.426757812 371.508789062 518.426757812 371.508789062 507.123046875 377.215820312 c 128,-1,11
 495.819335938 382.922851562 495.819335938 382.922851562 472.619140625 387.836914062 c 128,-1,12
 449.41796875 392.750976562 449.41796875 392.750976562 434.716796875 395.12890625 c 128,-1,13
 420.016601562 397.505859375 420.016601562 397.505859375 389.873046875 401.677734375 c 0,14,15
 381.701171875 402.80859375 381.701171875 402.80859375 377.560546875 403.387695312 c 2,16,-1
 375.588867188 403.662109375 l 2,17,18
 333.725585938 409.467773438 333.725585938 409.467773438 310.37890625 413.276367188 c 128,-1,19
 287.033203125 417.0859375 287.033203125 417.0859375 243.760742188 427.5 c 128,-1,20
 200.489257812 437.915039062 200.489257812 437.915039062 174.334960938 449.849609375 c 128,-1,21
 148.181640625 461.784179688 148.181640625 461.784179688 114.711914062 483.53515625 c 128,-1,22
 81.2421875 505.28515625 81.2421875 505.28515625 62.55859375 532.092773438 c 128,-1,23
 43.8759765625 558.900390625 43.8759765625 558.900390625 30.486328125 598.733398438 c 128,-1,24
 17.09765625 638.567382812 17.09765625 638.567382812 17.09765625 686.974609375 c 0,25,26
 17.09765625 835.853515625 17.09765625 835.853515625 123.813476562 926.676757812 c 128,-1,27
 230.529296875 1017.5 230.529296875 1017.5 408.8828125 1017.5 c 0,28,29
 496.268554688 1017.5 496.268554688 1017.5 566.72265625 993.53125 c 128,-1,30
 637.176757812 969.561523438 637.176757812 969.561523438 682.93359375 927.422851562 c 128,-1,31
 728.690429688 885.28515625 728.690429688 885.28515625 753.901367188 829.490234375 c 128,-1,32
 779.11328125 773.696289062 779.11328125 773.696289062 781.3359375 708.48828125 c 1,33,-1
 540.140625 708.48828125 l 1,34,35
 535.709960938 748.377929688 535.709960938 748.377929688 501.984375 771.459960938 c 128,-1,36
 468.259765625 794.541992188 468.259765625 794.541992188 412.86328125 794.541992188 c 0,37,38
 350.192382812 794.541992188 350.192382812 794.541992188 317.836914062 768.327148438 c 128,-1,39
 285.481445312 742.112304688 285.481445312 742.112304688 285.481445312 702.62109375 c 0,40,41
 285.481445312 687.157226562 285.481445312 687.157226562 290.78515625 675.208007812 c 128,-1,42
 296.087890625 663.258789062 296.087890625 663.258789062 309.366210938 654.630859375 c 128,-1,43
 322.645507812 646.00390625 322.645507812 646.00390625 334.494140625 640.340820312 c 128,-1,44
 346.342773438 634.677734375 346.342773438 634.677734375 370.544921875 629.655273438 c 128,-1,45
 394.748046875 624.6328125 394.748046875 624.6328125 410.045898438 622.165039062 c 128,-1,46
 425.344726562 619.698242188 425.344726562 619.698242188 456.633789062 615.331054688 c 0,47,48
 460.0625 614.853515625 460.0625 614.853515625 461.78515625 614.612304688 c 0,49,50
 491.12109375 610.306640625 491.12109375 610.306640625 508.723632812 607.3828125 c 128,-1,51
 526.325195312 604.459960938 526.325195312 604.459960938 557.077148438 597.744140625 c 128,-1,52
 587.830078125 591.02734375 587.830078125 591.02734375 607.700195312 584.03125 c 128,-1,53
 627.5703125 577.03515625 627.5703125 577.03515625 654.930664062 564.766601562 c 128,-1,54
 682.291992188 552.497070312 682.291992188 552.497070312 700.056640625 538.2734375 c 128,-1,55
 717.821289062 524.049804688 717.821289062 524.049804688 737.416992188 503.072265625 c 128,-1,56
 757.012695312 482.094726562 757.012695312 482.094726562 768.298828125 457.48828125 c 128,-1,57
 779.584960938 432.881835938 779.584960938 432.881835938 787.04296875 400.041992188 c 128,-1,58
 794.5 367.201171875 794.5 367.201171875 794.5 329.069335938 c 0,59,60
 794.5 178.041992188 794.5 178.041992188 694.361328125 89.271484375 c 128,-1,61
 594.22265625 0.5 594.22265625 0.5 410.873046875 0.5 c 0,62,63
 228.415039062 0.5 228.415039062 0.5 116.19140625 88.666015625 c 128,-1,64
 3.96875 176.833007812 3.96875 176.833007812 -0.5 315.37890625 c 1,0,-1
EndSplineSet
EndChar

StartChar: t
Encoding: 116 116 87
Width: 565
GlyphClass: 1
Flags: W
LayerCount: 2
Fore
SplineSet
10 1372 m 2,0,-1
 206 1372 l 2,1,2
 217 1370 217 1370 217 1362 c 2,3,-1
 217 1145 l 1,4,-1
 413 1145 l 2,5,6
 423 1143 423 1143 423 1135 c 2,7,-1
 423 939 l 2,8,9
 423 928 423 928 413 928 c 2,10,-1
 217 928 l 1,11,-1
 217 480 l 2,12,13
 217 323 217 323 428 227 c 1,14,15
 477 217 477 217 505 217 c 2,16,-1
 536 217 l 2,17,18
 547 215 547 215 547 206 c 2,19,-1
 547 0 l 1,20,-1
 433 0 l 1,21,22
 433 10 433 10 428 10 c 0,23,24
 302 10 302 10 134 160 c 1,25,26
 0 316 0 316 0 485 c 2,27,-1
 0 1362 l 2,28,29
 2 1372 2 1372 10 1372 c 2,0,-1
EndSplineSet
Validated: 1
EndChar

StartChar: u
Encoding: 117 117 88
Width: 1077
GlyphClass: 1
Flags: W
LayerCount: 2
Fore
SplineSet
10 1030 m 2,0,-1
 207 1030 l 2,1,2
 217 1028 217 1028 217 1020 c 2,3,-1
 217 507 l 2,4,5
 217 322 217 322 336 269 c 1,6,7
 415 223 415 223 492 223 c 2,8,-1
 538 223 l 2,9,10
 703 223 703 223 797 378 c 1,11,12
 813 422 813 422 813 507 c 2,13,-1
 813 1020 l 2,14,15
 814 1030 814 1030 823 1030 c 2,16,-1
 1020 1030 l 2,17,18
 1030 1028 1030 1028 1030 1020 c 2,19,-1
 1030 362 l 2,20,21
 1030 221 1030 221 875 104 c 1,22,23
 724 0 724 0 554 0 c 2,24,-1
 476 0 l 2,25,26
 194 0 194 0 31 238 c 1,27,28
 0 306 0 306 0 362 c 2,29,-1
 0 1020 l 2,30,31
 2 1030 2 1030 10 1030 c 2,0,-1
EndSplineSet
Validated: 1
EndChar

StartChar: v
Encoding: 118 118 89
Width: 1058
GlyphClass: 1
Flags: W
LayerCount: 2
Fore
SplineSet
10 1027 m 1,0,-1
 233 1027 l 1,1,2
 249 1014 249 1014 509 389 c 1,3,-1
 514 389 l 1,4,5
 777 1024 777 1024 789 1027 c 2,6,-1
 1007 1027 l 2,7,8
 1017 1027 1017 1027 1017 1012 c 1,9,-1
 586 0 l 1,10,-1
 550 5 l 1,11,-1
 472 5 l 1,12,-1
 436 0 l 1,13,-1
 0 1022 l 1,14,-1
 10 1027 l 1,0,-1
EndSplineSet
Validated: 1
EndChar

StartChar: w
Encoding: 119 119 90
Width: 1885
GlyphClass: 1
Flags: W
LayerCount: 2
Fore
SplineSet
10 1024 m 2,0,-1
 207 1024 l 2,1,2
 217 1022 217 1022 217 1013 c 2,3,-1
 217 533 l 2,4,5
 217 511 217 511 212 476 c 1,6,7
 212 389 212 389 326 279 c 1,8,9
 410 212 410 212 507 212 c 2,10,-1
 517 212 l 2,11,12
 719 212 719 212 801 439 c 1,13,-1
 801 1013 l 2,14,15
 803 1024 803 1024 812 1024 c 2,16,-1
 1013 1024 l 2,17,18
 1024 1022 1024 1022 1024 1013 c 2,19,-1
 1024 445 l 2,20,21
 1024 357 1024 357 1163 253 c 1,22,23
 1234 212 1234 212 1308 212 c 2,24,-1
 1318 212 l 2,25,26
 1528 212 1528 212 1608 455 c 1,27,-1
 1608 1013 l 2,28,29
 1609 1024 1609 1024 1618 1024 c 2,30,-1
 1815 1024 l 2,31,32
 1825 1022 1825 1022 1825 1013 c 2,33,-1
 1825 481 l 2,34,35
 1825 231 1825 231 1577 67 c 1,36,37
 1461 0 1461 0 1344 0 c 2,38,-1
 1282 0 l 2,39,40
 1069 0 1069 0 915 186 c 1,41,-1
 910 186 l 1,42,43
 756 0 756 0 543 0 c 2,44,-1
 481 0 l 2,45,46
 231 0 231 0 67 248 c 1,47,48
 0 364 0 364 0 481 c 2,49,-1
 0 1013 l 2,50,51
 2 1024 2 1024 10 1024 c 2,0,-1
EndSplineSet
Validated: 1
EndChar

StartChar: x
Encoding: 120 120 91
Width: 906
GlyphClass: 1
Flags: W
LayerCount: 2
Fore
SplineSet
0 1030 m 1,0,-1
 251 1030 l 1,1,2
 465 738 465 738 481 701 c 1,3,4
 488 702 488 702 716 1030 c 1,5,-1
 962 1030 l 2,6,7
 972 1028 972 1028 972 1020 c 1,8,9
 944 986 944 986 617 518 c 1,10,-1
 617 512 l 1,11,-1
 972 5 l 1,12,-1
 962 0 l 1,13,-1
 722 0 l 1,14,15
 702 15 702 15 486 329 c 1,16,-1
 481 329 l 1,17,18
 465 292 465 292 251 0 c 1,19,-1
 0 0 l 1,20,-1
 0 5 l 1,21,-1
 356 518 l 1,22,23
 19 985 19 985 0 1030 c 1,0,-1
EndSplineSet
Validated: 1
EndChar

StartChar: y
Encoding: 121 121 92
Width: 950
GlyphClass: 1
Flags: W
LayerCount: 2
Fore
SplineSet
16 1018 m 1,0,-1
 243 1018 l 1,1,2
 259 1004 259 1004 524 366 c 1,3,-1
 529 366 l 1,4,5
 798 1014 798 1014 810 1018 c 1,6,-1
 1032 1018 l 2,7,8
 1043 1018 1043 1018 1043 1002 c 1,9,10
 499 -289 499 -289 476 -317 c 1,11,-1
 254 -317 l 2,12,13
 243 -317 243 -317 243 -306 c 1,14,15
 387 25 387 25 402 80 c 1,16,17
 116 758 116 758 5 1012 c 1,18,-1
 16 1018 l 1,0,-1
EndSplineSet
Validated: 1
EndChar

StartChar: z
Encoding: 122 122 93
Width: 938
GlyphClass: 1
Flags: W
LayerCount: 2
Fore
SplineSet
-0.7607421875 230.268554688 m 1,0,-1
 546.104492188 773.044921875 l 1,1,-1
 30.1337890625 773.044921875 l 1,2,-1
 30.1337890625 1015.64941406 l 1,3,-1
 914.200195312 1015.64941406 l 1,4,-1
 914.200195312 785.380859375 l 1,5,-1
 369.315429688 242.604492188 l 1,6,-1
 934.760742188 242.604492188 l 1,7,-1
 934.760742188 0 l 1,8,-1
 -0.7607421875 0 l 1,9,-1
 -0.7607421875 230.268554688 l 1,0,-1
EndSplineSet
EndChar

StartChar: braceleft
Encoding: 123 123 94
Width: 1014
GlyphClass: 1
Flags: W
LayerCount: 2
Fore
SplineSet
240 698 m 1,0,1
 412 703 412 703 463 769 c 128,-1,2
 514 835 514 835 514 902 c 2,3,-1
 514 1370 l 2,4,5
 514 1444 514 1444 591 1511.5 c 128,-1,6
 668 1579 668 1579 776 1579 c 2,7,-1
 884 1579 l 1,8,-1
 884 1529 l 1,9,-1
 794 1529 l 2,10,11
 733 1529 733 1529 687 1495.5 c 128,-1,12
 641 1462 641 1462 640 1404 c 2,13,-1
 640 904 l 2,14,15
 640 821 640 821 579.5 745.5 c 128,-1,16
 519 670 519 670 437 669 c 1,17,-1
 437 667 l 1,18,19
 519 666 519 666 580 591 c 128,-1,20
 641 516 641 516 641 433 c 2,21,-1
 640 -67 l 2,22,23
 641 -125 641 -125 687 -158.5 c 128,-1,24
 733 -192 733 -192 794 -192 c 2,25,-1
 884 -192 l 1,26,-1
 884 -242 l 1,27,-1
 776 -242 l 2,28,29
 668 -242 668 -242 591.5 -174.5 c 128,-1,30
 515 -107 515 -107 514 -33 c 2,31,-1
 514 435 l 2,32,33
 514 501 514 501 463 567 c 128,-1,34
 412 633 412 633 240 638 c 1,35,-1
 240 698 l 1,0,1
EndSplineSet
Validated: 1
EndChar

StartChar: bar
Encoding: 124 124 95
Width: 1014
GlyphClass: 1
Flags: W
LayerCount: 2
Fore
SplineSet
427 1577 m 1,0,-1
 587 1577 l 1,1,-1
 587 -418 l 1,2,-1
 427 -418 l 1,3,-1
 427 1577 l 1,0,-1
EndSplineSet
Validated: 1
EndChar

StartChar: braceright
Encoding: 125 125 96
Width: 1014
GlyphClass: 1
Flags: W
LayerCount: 2
Fore
SplineSet
774 638 m 1,0,1
 602 633 602 633 551 567 c 128,-1,2
 500 501 500 501 500 435 c 2,3,-1
 500 -33 l 2,4,5
 499 -107 499 -107 422.5 -174.5 c 128,-1,6
 346 -242 346 -242 238 -242 c 2,7,-1
 130 -242 l 1,8,-1
 130 -192 l 1,9,-1
 220 -192 l 2,10,11
 281 -192 281 -192 327 -158.5 c 128,-1,12
 373 -125 373 -125 374 -67 c 2,13,-1
 373 433 l 2,14,15
 373 516 373 516 434 591 c 128,-1,16
 495 666 495 666 578 667 c 1,17,-1
 578 669 l 1,18,19
 495 670 495 670 434.5 745.5 c 128,-1,20
 374 821 374 821 374 904 c 2,21,-1
 374 1404 l 2,22,23
 373 1462 373 1462 327 1495.5 c 128,-1,24
 281 1529 281 1529 220 1529 c 2,25,-1
 130 1529 l 1,26,-1
 130 1579 l 1,27,-1
 238 1579 l 2,28,29
 346 1579 346 1579 423 1511.5 c 128,-1,30
 500 1444 500 1444 500 1370 c 2,31,-1
 500 902 l 2,32,33
 500 835 500 835 551 769 c 128,-1,34
 602 703 602 703 774 698 c 1,35,-1
 774 638 l 1,0,1
EndSplineSet
Validated: 1
EndChar

StartChar: asciitilde
Encoding: 126 126 97
Width: 1014
GlyphClass: 1
Flags: W
LayerCount: 2
Fore
SplineSet
923 994 m 1,0,-1
 923 782 l 1,1,2
 860 684 860 684 801 649 c 128,-1,3
 742 614 742 614 685 614 c 0,4,5
 625 614 625 614 507.5 680 c 128,-1,6
 390 746 390 746 331 746 c 0,7,8
 280 746 280 746 223.5 708 c 128,-1,9
 167 670 167 670 94 556 c 1,10,-1
 94 768 l 1,11,12
 158 867 158 867 217 902.5 c 128,-1,13
 276 938 276 938 331 938 c 0,14,15
 395 938 395 938 512.5 871 c 128,-1,16
 630 804 630 804 685 804 c 0,17,18
 737 804 737 804 793.5 842 c 128,-1,19
 850 880 850 880 923 994 c 1,0,-1
EndSplineSet
Validated: 1
EndChar

StartChar: exclamdown
Encoding: 161 161 98
Width: 672
GlyphClass: 1
Flags: W
LayerCount: 2
Fore
SplineSet
310 1140 m 1,0,-1
 306 1140 l 1,1,2
 239 1203 239 1203 210 1272 c 1,3,-1
 214 1272 l 1,4,5
 250 1252 250 1252 266 1252 c 1,6,-1
 266 1260 l 1,7,8
 234 1304 234 1304 194 1332 c 1,9,-1
 186 1332 l 1,10,-1
 186 1328 l 1,11,12
 202 1288 202 1288 202 1276 c 1,13,14
 130 1312 130 1312 74 1372 c 1,15,-1
 74 1376 l 1,16,17
 137 1443 137 1443 206 1472 c 1,18,-1
 206 1468 l 1,19,20
 186 1432 186 1432 186 1416 c 1,21,-1
 194 1416 l 1,22,23
 238 1448 238 1448 266 1488 c 1,24,-1
 266 1496 l 1,25,-1
 262 1496 l 1,26,27
 222 1480 222 1480 210 1480 c 1,28,29
 246 1552 246 1552 306 1608 c 1,30,-1
 310 1608 l 1,31,32
 377 1545 377 1545 406 1476 c 1,33,-1
 402 1476 l 1,34,35
 366 1496 366 1496 350 1496 c 1,36,-1
 350 1488 l 1,37,38
 382 1444 382 1444 422 1416 c 1,39,-1
 430 1416 l 1,40,-1
 430 1420 l 1,41,42
 414 1460 414 1460 414 1472 c 1,43,44
 486 1436 486 1436 542 1376 c 1,45,-1
 542 1372 l 1,46,47
 479 1305 479 1305 410 1276 c 1,48,-1
 410 1280 l 1,49,50
 430 1316 430 1316 430 1332 c 1,51,-1
 422 1332 l 1,52,53
 378 1300 378 1300 350 1260 c 1,54,-1
 350 1252 l 1,55,-1
 354 1252 l 1,56,57
 394 1268 394 1268 406 1268 c 1,58,59
 370 1196 370 1196 310 1140 c 1,0,-1
412 1 m 2,60,-1
 197 1 l 2,61,62
 187 2 187 2 187 9 c 2,63,-1
 187 1114 l 2,64,65
 187 1122 187 1122 197 1122 c 2,66,-1
 412 1122 l 2,67,68
 422 1122 422 1122 422 1114 c 2,69,-1
 422 9 l 2,70,71
 420 1 420 1 412 1 c 2,60,-1
EndSplineSet
Validated: 1
EndChar

StartChar: sterling
Encoding: 163 163 100
Width: 1014
GlyphClass: 1
Flags: W
LayerCount: 2
Fore
SplineSet
748 1347 m 1,0,1
 676 1378 676 1378 588 1378 c 2,2,-1
 586 1378 l 2,3,4
 486 1378 486 1378 396 1277 c 0,5,6
 312 1184 312 1184 312 1036 c 0,7,8
 312 1021 312 1021 313 1006 c 0,9,10
 313 871 313 871 366 733 c 1,11,-1
 726 733 l 1,12,-1
 726 673 l 1,13,-1
 392 673 l 1,14,15
 406 643 406 643 423 613 c 0,16,17
 458 550 458 550 458 475 c 0,18,19
 458 314 458 314 296 100 c 1,20,-1
 698 100 l 2,21,22
 828 100 828 100 887 232 c 1,23,-1
 936 231 l 1,24,-1
 833 0 l 1,25,-1
 114 0 l 1,26,-1
 115 50 l 1,27,28
 302 288 302 288 302 468 c 0,29,30
 302 545 302 545 268 611 c 0,31,32
 251 643 251 643 237 673 c 1,33,-1
 76 673 l 1,34,-1
 76 733 l 1,35,-1
 211 733 l 1,36,37
 153 876 153 876 153 986 c 0,38,39
 153 1212 153 1212 276.5 1333 c 128,-1,40
 400 1454 400 1454 583 1454 c 2,41,-1
 587 1454 l 2,42,43
 662 1454 662 1454 772.5 1440 c 128,-1,44
 883 1426 883 1426 883 1406 c 2,45,-1
 883 1245 l 1,46,-1
 825 1245 l 1,47,48
 820 1306 820 1306 748 1347 c 1,0,1
EndSplineSet
Validated: 1
EndChar

StartChar: currency
Encoding: 164 164 101
Width: 1014
GlyphClass: 1
Flags: W
LayerCount: 2
Fore
SplineSet
350 560 m 0,0,1
 391 520 391 520 449 503 c 0,2,3
 478 495 478 495 507 495 c 256,4,5
 536 495 536 495 565 503 c 0,6,7
 623 520 623 520 664 560 c 0,8,9
 704 601 704 601 721 659 c 0,10,11
 730 688 730 688 730 717 c 256,12,13
 730 746 730 746 721 775 c 0,14,15
 704 833 704 833 664 874 c 0,16,17
 623 914 623 914 564 931 c 0,18,19
 535 939 535 939 506 939 c 256,20,21
 477 939 477 939 448 930 c 0,22,23
 390 913 390 913 350 874 c 0,24,25
 311 834 311 834 294 776 c 0,26,27
 284 746 284 746 284 716 c 0,28,29
 284 688 284 688 293 660 c 0,30,31
 309 601 309 601 350 560 c 0,0,1
240 903 m 1,32,-1
 122 1021 l 1,33,-1
 202 1102 l 1,34,-1
 320 984 l 1,35,36
 364 1014 364 1014 419 1030 c 0,37,38
 463 1044 463 1044 508 1044 c 0,39,40
 549 1044 549 1044 591 1032 c 0,41,42
 648 1015 648 1015 693 984 c 1,43,-1
 811 1102 l 1,44,-1
 891 1021 l 1,45,-1
 774 904 l 1,46,47
 805 858 805 858 822 802 c 0,48,49
 834 760 834 760 834 717 c 0,50,51
 834 675 834 675 822 632 c 0,52,53
 805 576 805 576 774 530 c 1,54,-1
 891 413 l 1,55,-1
 811 332 l 1,56,-1
 693 450 l 1,57,58
 648 418 648 418 592 402 c 0,59,60
 550 390 550 390 507 390 c 0,61,62
 465 390 465 390 422 402 c 0,63,64
 365 418 365 418 320 450 c 1,65,-1
 202 332 l 1,66,-1
 122 413 l 1,67,-1
 240 530 l 1,68,69
 208 576 208 576 192 633 c 0,70,71
 180 675 180 675 180 717 c 0,72,73
 180 761 180 761 193 804 c 0,74,75
 209 859 209 859 240 903 c 1,32,-1
EndSplineSet
Validated: 1
EndChar

StartChar: yen
Encoding: 165 165 102
Width: 1262
GlyphClass: 1
Flags: W
LayerCount: 2
Fore
SplineSet
547 225 m 2,0,-1
 545 467 l 2,1,2
 545 486 545 486 543.5 502 c 128,-1,3
 542 518 542 518 539 534 c 1,4,-1
 55 535 l 2,5,6
 41 535 41 535 34 541.5 c 128,-1,7
 27 548 27 548 27 561 c 256,8,9
 27 574 27 574 33.5 580 c 128,-1,10
 40 586 40 586 55 586 c 2,11,-1
 522 586 l 1,12,-1
 401 758 l 1,13,-1
 57 758 l 2,14,15
 40 758 40 758 33.5 763.5 c 128,-1,16
 27 769 27 769 27 782 c 0,17,18
 27 796 27 796 33 801.5 c 128,-1,19
 39 807 39 807 55 807 c 2,20,-1
 362 807 l 1,21,22
 319 864 319 864 254 962 c 0,23,24
 123 1159 123 1159 27 1159 c 0,25,26
 20 1159 20 1159 14 1164.5 c 128,-1,27
 8 1170 8 1170 8 1176 c 0,28,29
 8 1195 8 1195 18.5 1203.5 c 128,-1,30
 29 1212 29 1212 51 1212 c 0,31,32
 78 1212 78 1212 174 1204 c 128,-1,33
 270 1196 270 1196 338 1196 c 2,34,-1
 426 1196 l 2,35,36
 459 1196 459 1196 467 1189.5 c 128,-1,37
 475 1183 475 1183 475 1163 c 0,38,39
 475 1155 475 1155 460 1149 c 128,-1,40
 445 1143 445 1143 422 1143 c 0,41,42
 416 1143 416 1143 403.5 1145 c 128,-1,43
 391 1147 391 1147 385 1147 c 0,44,45
 361 1147 361 1147 347.5 1137.5 c 128,-1,46
 334 1128 334 1128 334 1112 c 0,47,48
 334 1094 334 1094 350.5 1060 c 128,-1,49
 367 1026 367 1026 397 983 c 2,50,-1
 555 762 l 2,51,52
 568 743 568 743 588 709 c 0,53,54
 629 639 629 639 659 639 c 0,55,56
 668 639 668 639 675.5 644 c 128,-1,57
 683 649 683 649 690 659 c 2,58,-1
 967 1055 l 2,59,60
 975 1067 975 1067 980 1081.5 c 128,-1,61
 985 1096 985 1096 985 1106 c 0,62,63
 985 1124 985 1124 975 1133 c 128,-1,64
 965 1142 965 1142 938 1147 c 0,65,66
 923 1149 923 1149 897 1151 c 0,67,68
 850 1154 850 1154 850 1176 c 0,69,70
 850 1191 850 1191 858 1198.5 c 128,-1,71
 866 1206 866 1206 883 1206 c 0,72,73
 886 1206 886 1206 898 1205 c 0,74,75
 954 1198 954 1198 1006 1198 c 2,76,-1
 1145 1198 l 2,77,78
 1175 1198 1175 1198 1210 1199 c 128,-1,79
 1245 1200 1245 1200 1247 1200 c 0,80,81
 1258 1200 1258 1200 1265.5 1195.5 c 128,-1,82
 1273 1191 1273 1191 1274 1184 c 0,83,84
 1274 1156 1274 1156 1236 1150 c 0,85,86
 1218 1147 1218 1147 1209 1145 c 0,87,88
 1146 1130 1146 1130 1062 1028 c 0,89,90
 1055 1019 1055 1019 1050 1013 c 2,91,-1
 881 807 l 1,92,-1
 1204 807 l 2,93,94
 1219 807 1219 807 1228 801 c 128,-1,95
 1237 795 1237 795 1237 784 c 0,96,97
 1237 769 1237 769 1231 763.5 c 128,-1,98
 1225 758 1225 758 1208 758 c 2,99,-1
 842 758 l 1,100,101
 796 701 796 701 745.5 645.5 c 128,-1,102
 695 590 695 590 693 586 c 1,103,-1
 1204 586 l 2,104,105
 1222 586 1222 586 1229.5 580.5 c 128,-1,106
 1237 575 1237 575 1237 563 c 0,107,108
 1237 549 1237 549 1230 542 c 128,-1,109
 1223 535 1223 535 1208 535 c 2,110,-1
 678 535 l 1,111,112
 678 524 678 524 677 504.5 c 128,-1,113
 676 485 676 485 676 475 c 2,114,-1
 678 260 l 2,115,116
 678 146 678 146 683.5 110 c 128,-1,117
 689 74 689 74 704 66 c 0,118,119
 734 49 734 49 811.5 47 c 128,-1,120
 889 45 889 45 889 16 c 0,121,122
 889 4 889 4 879 -4 c 128,-1,123
 869 -12 869 -12 854 -12 c 0,124,125
 852 -12 852 -12 818.5 -8 c 128,-1,126
 785 -4 785 -4 754 -4 c 0,127,128
 663 -4 663 -4 545.5 -8 c 128,-1,129
 428 -12 428 -12 403 -12 c 0,130,131
 372 -12 372 -12 363 -8 c 128,-1,132
 354 -4 354 -4 354 8 c 256,133,134
 354 20 354 20 362 26.5 c 128,-1,135
 370 33 370 33 399 39 c 0,136,137
 408 41 408 41 424 44 c 0,138,139
 498 60 498 60 516 76 c 0,140,141
 533 89 533 89 540 123 c 128,-1,142
 547 157 547 157 547 225 c 2,0,-1
EndSplineSet
Validated: 1
EndChar

StartChar: brokenbar
Encoding: 166 166 103
Width: 1014
GlyphClass: 1
Flags: W
LayerCount: 2
Fore
SplineSet
427 371 m 1,0,-1
 587 371 l 1,1,-1
 587 -418 l 1,2,-1
 427 -418 l 1,3,-1
 427 371 l 1,0,-1
427 1578 m 1,4,-1
 587 1578 l 1,5,-1
 587 789 l 1,6,-1
 427 789 l 1,7,-1
 427 1578 l 1,4,-1
EndSplineSet
Validated: 1
EndChar

StartChar: section
Encoding: 167 167 104
Width: 1014
GlyphClass: 1
Flags: W
LayerCount: 2
Fore
SplineSet
545 321 m 1,0,1
 601 337 601 337 642 374 c 0,2,3
 715 439 715 439 715 540 c 0,4,5
 715 545 715 545 714 550 c 1,6,-1
 712 550 l 1,7,8
 711 564 711 564 708 577 c 0,9,10
 686 638 686 638 595 704 c 1,11,12
 536 733 536 733 469 733 c 0,13,14
 391 733 391 733 344 688.5 c 128,-1,15
 297 644 297 644 297 571 c 0,16,17
 297 448 297 448 545 321 c 1,0,1
466 -346 m 1,18,19
 579 -340 579 -340 651 -277 c 0,20,21
 723 -213 723 -213 723 -112 c 0,22,23
 723 13 723 13 407 164 c 1,24,25
 284 228 284 228 231.5 301 c 128,-1,26
 179 374 179 374 179 478 c 0,27,28
 179 626 179 626 268 715 c 0,29,30
 335 780 335 780 438 797 c 1,31,-1
 398 816 l 1,32,33
 275 880 275 880 222.5 953 c 128,-1,34
 170 1026 170 1026 170 1130 c 0,35,36
 170 1278 170 1278 259 1367 c 0,37,38
 341 1446 341 1446 475 1453 c 0,39,40
 483 1454 483 1454 492 1454 c 2,41,-1
 495 1454 l 2,42,43
 561 1454 561 1454 658 1437.5 c 128,-1,44
 755 1421 755 1421 755 1396 c 2,45,-1
 755 1202 l 1,46,-1
 704 1202 l 1,47,48
 699 1283 699 1283 624 1334 c 0,49,50
 554 1381 554 1381 475 1385 c 1,51,-1
 460 1385 l 2,52,53
 382 1385 382 1385 335 1340.5 c 128,-1,54
 288 1296 288 1296 288 1223 c 0,55,56
 288 1091 288 1091 575 954 c 0,57,58
 724 887 724 887 779.5 810.5 c 128,-1,59
 835 734 835 734 835 623 c 0,60,61
 835 452 835 452 734 341 c 1,62,63
 687 302 687 302 635 277 c 1,64,65
 743 221 743 221 789 159 c 0,66,67
 844 82 844 82 844 -28 c 0,68,69
 844 -199 844 -199 743 -311 c 1,70,71
 619 -413 619 -413 466 -416 c 1,72,-1
 466 -415 l 1,73,74
 460 -416 460 -416 453 -416 c 2,75,-1
 450 -416 l 2,76,77
 384 -416 384 -416 287 -399.5 c 128,-1,78
 190 -383 190 -383 190 -358 c 2,79,-1
 190 -164 l 1,80,-1
 241 -164 l 1,81,82
 246 -245 246 -245 321 -296 c 0,83,84
 389 -341 389 -341 466 -346 c 1,18,19
EndSplineSet
Validated: 1
EndChar

StartChar: dieresis
Encoding: 168 168 105
Width: 1024
GlyphClass: 1
Flags: W
LayerCount: 2
Fore
SplineSet
320 1412 m 1,0,-1
 323 1412 l 1,1,2
 369 1369 369 1369 389 1321 c 1,3,-1
 386 1321 l 1,4,5
 361 1335 361 1335 350 1335 c 1,6,-1
 350 1330 l 1,7,8
 372 1299 372 1299 400 1280 c 1,9,-1
 405 1280 l 1,10,-1
 405 1283 l 1,11,12
 394 1311 394 1311 394 1319 c 1,13,14
 444 1294 444 1294 482 1253 c 1,15,-1
 482 1250 l 1,16,17
 439 1204 439 1204 391 1184 c 1,18,-1
 391 1187 l 1,19,20
 405 1212 405 1212 405 1223 c 1,21,-1
 400 1223 l 1,22,23
 369 1201 369 1201 350 1173 c 1,24,-1
 350 1168 l 1,25,-1
 353 1168 l 1,26,27
 381 1179 381 1179 389 1179 c 1,28,29
 364 1129 364 1129 323 1091 c 1,30,-1
 320 1091 l 1,31,32
 274 1134 274 1134 254 1182 c 1,33,-1
 257 1182 l 1,34,35
 282 1168 282 1168 293 1168 c 1,36,-1
 293 1173 l 1,37,38
 271 1204 271 1204 243 1223 c 1,39,-1
 238 1223 l 1,40,-1
 238 1220 l 1,41,42
 249 1192 249 1192 249 1184 c 1,43,44
 199 1209 199 1209 161 1250 c 1,45,-1
 161 1253 l 1,46,47
 204 1299 204 1299 252 1319 c 1,48,-1
 252 1316 l 1,49,50
 238 1291 238 1291 238 1280 c 1,51,-1
 243 1280 l 1,52,53
 274 1302 274 1302 293 1330 c 1,54,-1
 293 1335 l 1,55,-1
 290 1335 l 1,56,57
 262 1324 262 1324 254 1324 c 1,58,59
 279 1374 279 1374 320 1412 c 1,0,-1
737 1409 m 1,60,-1
 740 1409 l 1,61,62
 785 1366 785 1366 805 1320 c 1,63,-1
 802 1320 l 1,64,65
 778 1333 778 1333 767 1333 c 1,66,-1
 767 1328 l 1,67,68
 788 1298 788 1298 816 1279 c 1,69,-1
 821 1279 l 1,70,-1
 821 1282 l 1,71,72
 810 1309 810 1309 810 1317 c 1,73,74
 859 1292 859 1292 897 1252 c 1,75,-1
 897 1249 l 1,76,77
 854 1204 854 1204 808 1184 c 1,78,-1
 808 1187 l 1,79,80
 821 1211 821 1211 821 1222 c 1,81,-1
 816 1222 l 1,82,83
 786 1201 786 1201 767 1173 c 1,84,-1
 767 1168 l 1,85,-1
 770 1168 l 1,86,87
 797 1179 797 1179 805 1179 c 1,88,89
 780 1130 780 1130 740 1092 c 1,90,-1
 737 1092 l 1,91,92
 692 1135 692 1135 672 1181 c 1,93,-1
 675 1181 l 1,94,95
 699 1168 699 1168 710 1168 c 1,96,-1
 710 1173 l 1,97,98
 689 1203 689 1203 661 1222 c 1,99,-1
 656 1222 l 1,100,-1
 656 1219 l 1,101,102
 667 1192 667 1192 667 1184 c 1,103,104
 618 1209 618 1209 580 1249 c 1,105,-1
 580 1252 l 1,106,107
 623 1297 623 1297 669 1317 c 1,108,-1
 669 1314 l 1,109,110
 656 1290 656 1290 656 1279 c 1,111,-1
 661 1279 l 1,112,113
 691 1300 691 1300 710 1328 c 1,114,-1
 710 1333 l 1,115,-1
 707 1333 l 1,116,117
 680 1322 680 1322 672 1322 c 1,118,119
 697 1371 697 1371 737 1409 c 1,60,-1
EndSplineSet
Validated: 1
EndChar

StartChar: copyright
Encoding: 169 169 106
Width: 1335
GlyphClass: 1
Flags: W
LayerCount: 2
Fore
SplineSet
658 1438 m 2,0,-1
 687 1438 l 2,1,2
 1024 1438 1024 1438 1243 1087 c 1,3,4
 1336 914 1336 914 1336 736 c 2,5,-1
 1336 702 l 2,6,7
 1336 375 1336 375 1068 141 c 1,8,9
 884 0 884 0 687 0 c 2,10,-1
 648 0 l 2,11,12
 325 0 325 0 97 336 c 1,13,14
 0 527 0 527 0 697 c 2,15,-1
 0 741 l 2,16,17
 0 1089 0 1089 307 1326 c 1,18,19
 472 1438 472 1438 658 1438 c 2,0,-1
190 717 m 2,20,-1
 190 707 l 2,21,22
 190 410 190 410 473 249 c 1,23,24
 562 205 562 205 653 205 c 2,25,-1
 682 205 l 2,26,27
 928 205 928 205 1082 463 c 0,28,29
 1146 578 1146 578 1146 721 c 0,30,31
 1146 1049 1146 1049 834 1204 c 1,32,33
 753 1233 753 1233 682 1233 c 2,34,-1
 653 1233 l 2,35,36
 395 1233 395 1233 244 955 c 0,37,38
 190 852 190 852 190 717 c 2,20,-1
721 1068 m 2,39,-1
 785 1068 l 2,40,41
 795 1066 795 1066 795 1058 c 2,42,-1
 795 926 l 1,43,-1
 790 916 l 1,44,45
 755 921 755 921 751 921 c 0,46,47
 605 921 605 921 551 746 c 0,48,49
 551 742 551 742 546 717 c 1,50,51
 546 564 546 564 736 512 c 1,52,-1
 756 512 l 1,53,-1
 790 517 l 1,54,-1
 795 507 l 1,55,-1
 795 375 l 2,56,57
 795 366 795 366 785 366 c 2,58,-1
 721 366 l 2,59,60
 530 366 530 366 419 585 c 1,61,62
 400 645 400 645 400 687 c 2,63,-1
 400 746 l 2,64,65
 400 947 400 947 634 1053 c 1,66,67
 686 1068 686 1068 721 1068 c 2,39,-1
EndSplineSet
Validated: 1
EndChar

StartChar: guillemotleft
Encoding: 171 171 108
Width: 944
GlyphClass: 1
Flags: W
LayerCount: 2
Fore
SplineSet
174 479 m 1,0,-1
 516 782 l 1,1,-1
 530 782 l 1,2,-1
 530 745 l 1,3,-1
 325 479 l 1,4,-1
 530 213 l 1,5,-1
 530 176 l 1,6,-1
 516 176 l 1,7,-1
 174 479 l 1,0,-1
487 479 m 1,8,-1
 829 782 l 1,9,-1
 843 782 l 1,10,-1
 843 745 l 1,11,-1
 638 479 l 1,12,-1
 843 213 l 1,13,-1
 843 176 l 1,14,-1
 829 176 l 1,15,-1
 487 479 l 1,8,-1
EndSplineSet
Validated: 1
EndChar

StartChar: logicalnot
Encoding: 172 172 109
Width: 1014
GlyphClass: 1
Flags: W
LayerCount: 2
Fore
SplineSet
87 767 m 1,0,-1
 927 767 l 1,1,-1
 927 276 l 1,2,-1
 926 275 l 1,3,-1
 828 275 l 1,4,-1
 828 667 l 1,5,-1
 87 667 l 1,6,-1
 87 767 l 1,0,-1
EndSplineSet
Validated: 1
EndChar

StartChar: registered
Encoding: 174 174 110
Width: 1674
GlyphClass: 1
Flags: W
LayerCount: 2
Fore
SplineSet
822 1447 m 2,0,-1
 852 1447 l 2,1,2
 1190 1447 1190 1447 1411 1094 c 1,3,4
 1504 920 1504 920 1504 741 c 2,5,-1
 1504 706 l 2,6,7
 1504 378 1504 378 1234 142 c 1,8,9
 1049 0 1049 0 852 0 c 2,10,-1
 812 0 l 2,11,12
 487 0 487 0 258 338 c 1,13,14
 160 530 160 530 160 701 c 2,15,-1
 160 746 l 2,16,17
 160 1096 160 1096 469 1334 c 1,18,19
 635 1447 635 1447 822 1447 c 2,0,-1
351 721 m 2,20,-1
 351 711 l 2,21,22
 351 413 351 413 636 250 c 1,23,24
 726 206 726 206 817 206 c 2,25,-1
 847 206 l 2,26,27
 1094 206 1094 206 1249 466 c 1,28,29
 1313 582 1313 582 1313 726 c 0,30,31
 1313 1056 1313 1056 999 1212 c 1,32,33
 917 1241 917 1241 847 1241 c 2,34,-1
 817 1241 l 2,35,36
 558 1241 558 1241 405 961 c 0,37,38
 351 858 351 858 351 721 c 2,20,-1
827 1035 m 2,39,-1
 842 1035 l 1,40,41
 1018 1008 1018 1008 1018 858 c 2,42,-1
 1018 844 l 2,43,44
 1018 730 1018 730 901 682 c 1,45,46
 960 614 960 614 960 525 c 2,47,-1
 960 486 l 2,48,49
 960 476 960 476 950 476 c 2,50,-1
 886 476 l 2,51,52
 876 476 876 476 876 486 c 2,53,-1
 876 525 l 2,54,55
 876 621 876 621 798 652 c 0,56,57
 793 652 793 652 758 657 c 1,58,59
 749 652 749 652 744 652 c 1,60,-1
 744 495 l 2,61,62
 744 486 744 486 734 486 c 2,63,-1
 665 486 l 2,64,65
 655 486 655 486 655 495 c 2,66,-1
 655 746 l 2,67,68
 655 791 655 791 651 873 c 1,69,70
 693 1035 693 1035 827 1035 c 2,39,-1
749 863 m 2,71,-1
 749 849 l 2,72,73
 749 782 749 782 822 765 c 1,74,-1
 842 765 l 1,75,76
 925 781 925 781 925 849 c 1,77,78
 908 942 908 942 837 942 c 1,79,80
 749 923 749 923 749 863 c 2,71,-1
EndSplineSet
Validated: 1
EndChar

StartChar: macron
Encoding: 175 175 111
Width: 670
GlyphClass: 1
Flags: W
LayerCount: 2
Fore
SplineSet
0 1026 m 2,0,-1
 654 1026 l 2,1,2
 663 1025 663 1025 663 1018 c 2,3,-1
 663 870 l 2,4,5
 663 862 663 862 654 862 c 2,6,-1
 0 862 l 2,7,8
 -9 862 -9 862 -9 870 c 2,9,-1
 -9 1018 l 2,10,11
 -8 1026 -8 1026 0 1026 c 2,0,-1
EndSplineSet
Validated: 1
EndChar

StartChar: degree
Encoding: 176 176 112
Width: 674
GlyphClass: 1
Flags: W
LayerCount: 2
Fore
SplineSet
339 1372 m 256,0,1
 253 1372 253 1372 191.5 1311 c 128,-1,2
 130 1250 130 1250 130 1163 c 256,3,4
 130 1076 130 1076 191 1016 c 128,-1,5
 252 956 252 956 339 956 c 256,6,7
 426 956 426 956 486 1016 c 128,-1,8
 546 1076 546 1076 546 1163 c 256,9,10
 546 1250 546 1250 485.5 1311 c 128,-1,11
 425 1372 425 1372 339 1372 c 256,0,1
339 1442 m 0,12,13
 454 1442 454 1442 535 1360.5 c 128,-1,14
 616 1279 616 1279 616 1164 c 0,15,16
 616 1050 616 1050 534 968 c 128,-1,17
 452 886 452 886 337 886 c 0,18,19
 220 886 220 886 140 967 c 128,-1,20
 60 1048 60 1048 60 1164 c 256,21,22
 60 1280 60 1280 141.5 1361 c 128,-1,23
 223 1442 223 1442 339 1442 c 0,12,13
EndSplineSet
Validated: 1
EndChar

StartChar: acute
Encoding: 180 180 116
Width: 1024
GlyphClass: 1
Flags: W
LayerCount: 2
Fore
SplineSet
607 1375 m 2,0,1
 642 1410 642 1410 662.5 1422 c 128,-1,2
 683 1434 683 1434 703 1434 c 0,3,4
 736 1434 736 1434 756.5 1414 c 128,-1,5
 777 1394 777 1394 777 1363 c 0,6,7
 777 1341 777 1341 761.5 1321 c 128,-1,8
 746 1301 746 1301 715 1281 c 2,9,-1
 385 1078 l 1,10,-1
 316 1078 l 1,11,-1
 607 1375 l 2,0,1
EndSplineSet
Validated: 1
EndChar

StartChar: paragraph
Encoding: 182 182 118
Width: 1024
GlyphClass: 1
Flags: W
LayerCount: 2
Fore
SplineSet
929 1435 m 1,0,-1
 929 1365 l 1,1,-1
 802 1365 l 1,2,-1
 802 0 l 1,3,-1
 720 0 l 1,4,-1
 720 1365 l 1,5,-1
 554 1365 l 1,6,-1
 554 0 l 1,7,-1
 470 0 l 1,8,-1
 470 738 l 1,9,10
 296 746 296 746 194.5 840.5 c 128,-1,11
 93 935 93 935 93 1086 c 0,12,13
 93 1243 93 1243 200.5 1339 c 128,-1,14
 308 1435 308 1435 486 1435 c 2,15,-1
 929 1435 l 1,0,-1
EndSplineSet
Validated: 1
EndChar

StartChar: periodcentered
Encoding: 183 183 119
AltUni2: 002219.ffffffff.0 002219.ffffffff.0
Width: 508
GlyphClass: 1
Flags: W
LayerCount: 2
Fore
SplineSet
242 906 m 1,0,-1
 246 906 l 1,1,2
 297 857 297 857 319 804 c 1,3,-1
 316 804 l 1,4,5
 288 820 288 820 276 820 c 1,6,-1
 276 814 l 1,7,8
 301 780 301 780 332 758 c 1,9,-1
 338 758 l 1,10,-1
 338 761 l 1,11,12
 326 792 326 792 326 801 c 1,13,14
 381 773 381 773 424 728 c 1,15,-1
 424 724 l 1,16,17
 375 673 375 673 322 651 c 1,18,-1
 322 654 l 1,19,20
 338 682 338 682 338 694 c 1,21,-1
 332 694 l 1,22,23
 298 669 298 669 276 638 c 1,24,-1
 276 632 l 1,25,-1
 279 632 l 1,26,27
 310 644 310 644 319 644 c 1,28,29
 291 589 291 589 246 546 c 1,30,-1
 242 546 l 1,31,32
 191 595 191 595 169 648 c 1,33,-1
 172 648 l 1,34,35
 200 632 200 632 212 632 c 1,36,-1
 212 638 l 1,37,38
 187 672 187 672 156 694 c 1,39,-1
 150 694 l 1,40,-1
 150 691 l 1,41,42
 162 660 162 660 162 651 c 1,43,44
 107 679 107 679 64 724 c 1,45,-1
 64 728 l 1,46,47
 113 779 113 779 166 801 c 1,48,-1
 166 798 l 1,49,50
 150 770 150 770 150 758 c 1,51,-1
 156 758 l 1,52,53
 190 783 190 783 212 814 c 1,54,-1
 212 820 l 1,55,-1
 209 820 l 1,56,57
 178 808 178 808 169 808 c 1,58,59
 197 863 197 863 242 906 c 1,0,-1
EndSplineSet
Validated: 1
EndChar

StartChar: cedilla
Encoding: 184 184 120
Width: 1024
GlyphClass: 1
Flags: W
LayerCount: 2
Fore
SplineSet
360 -290 m 1,0,1
 445 -342 445 -342 512 -342 c 0,2,3
 578 -342 578 -342 606.5 -320.5 c 128,-1,4
 635 -299 635 -299 635 -254 c 256,5,6
 635 -209 635 -209 586 -190 c 0,7,8
 546 -174 546 -174 484 -174 c 0,9,10
 468 -174 468 -174 450 -176 c 1,11,-1
 498 0 l 1,12,-1
 561 0 l 1,13,-1
 524 -104 l 1,14,15
 556 -100 556 -100 586 -99 c 0,16,17
 672 -99 672 -99 720 -139.5 c 128,-1,18
 768 -180 768 -180 768 -253 c 0,19,20
 768 -329 768 -329 709.5 -373.5 c 128,-1,21
 651 -418 651 -418 549 -418 c 0,22,23
 440 -418 440 -418 360 -386 c 1,24,-1
 360 -290 l 1,0,1
EndSplineSet
Validated: 1
EndChar

StartChar: guillemotright
Encoding: 187 187 123
Width: 944
GlyphClass: 1
Flags: W
LayerCount: 2
Fore
SplineSet
115 176 m 1,0,-1
 101 176 l 1,1,-1
 101 213 l 1,2,-1
 306 479 l 1,3,-1
 101 745 l 1,4,-1
 101 782 l 1,5,-1
 115 782 l 1,6,-1
 457 479 l 1,7,-1
 115 176 l 1,0,-1
428 176 m 1,8,-1
 414 176 l 1,9,-1
 414 213 l 1,10,-1
 619 479 l 1,11,-1
 414 745 l 1,12,-1
 414 782 l 1,13,-1
 428 782 l 1,14,-1
 770 479 l 1,15,-1
 428 176 l 1,8,-1
EndSplineSet
Validated: 1
EndChar

StartChar: questiondown
Encoding: 191 191 127
Width: 887
GlyphClass: 1
Flags: W
LayerCount: 2
Fore
SplineSet
752 10 m 2,0,-1
 345 10 l 2,1,2
 174 10 174 10 30 200 c 1,3,4
 -39 308 -39 308 -39 417 c 0,5,6
 -39 561 -39 561 95 699 c 1,7,8
 219 814 219 814 405 814 c 2,9,-1
 553 814 l 1,10,-1
 553 1212 l 2,11,12
 553 1221 553 1221 562 1221 c 2,13,-1
 761 1221 l 2,14,15
 770 1221 770 1221 770 1212 c 2,16,-1
 770 1124 l 2,17,18
 770 944 770 944 765 606 c 1,19,-1
 756 602 l 1,20,-1
 372 602 l 2,21,22
 236 602 236 602 169 431 c 1,23,24
 169 290 169 290 322 227 c 0,25,26
 329 223 329 223 345 223 c 2,27,-1
 752 223 l 2,28,29
 761 223 761 223 761 213 c 2,30,-1
 761 19 l 2,31,32
 759 10 759 10 752 10 c 2,0,-1
662 1235 m 1,33,-1
 659 1235 l 1,34,35
 604 1287 604 1287 580 1344 c 1,36,-1
 583 1344 l 1,37,38
 613 1327 613 1327 626 1327 c 1,39,-1
 626 1334 l 1,40,41
 600 1370 600 1370 567 1393 c 1,42,-1
 560 1393 l 1,43,-1
 560 1390 l 1,44,45
 573 1357 573 1357 573 1347 c 1,46,47
 514 1377 514 1377 468 1426 c 1,48,-1
 468 1429 l 1,49,50
 520 1484 520 1484 577 1508 c 1,51,-1
 577 1505 l 1,52,53
 560 1475 560 1475 560 1462 c 1,54,-1
 567 1462 l 1,55,56
 603 1488 603 1488 626 1521 c 1,57,-1
 626 1528 l 1,58,-1
 623 1528 l 1,59,60
 590 1515 590 1515 580 1515 c 1,61,62
 610 1574 610 1574 659 1620 c 1,63,-1
 662 1620 l 1,64,65
 717 1568 717 1568 741 1512 c 1,66,-1
 738 1512 l 1,67,68
 708 1528 708 1528 695 1528 c 1,69,-1
 695 1521 l 1,70,71
 721 1485 721 1485 754 1462 c 1,72,-1
 761 1462 l 1,73,-1
 761 1466 l 1,74,75
 748 1499 748 1499 748 1508 c 1,76,77
 807 1478 807 1478 853 1429 c 1,78,-1
 853 1426 l 1,79,80
 801 1371 801 1371 744 1347 c 1,81,-1
 744 1350 l 1,82,83
 761 1380 761 1380 761 1393 c 1,84,-1
 754 1393 l 1,85,86
 718 1367 718 1367 695 1334 c 1,87,-1
 695 1327 l 1,88,-1
 698 1327 l 1,89,90
 731 1340 731 1340 741 1340 c 1,91,92
 711 1281 711 1281 662 1235 c 1,33,-1
EndSplineSet
Validated: 1
EndChar

StartChar: Agrave
Encoding: 192 192 128
Width: 975
GlyphClass: 1
Flags: W
LayerCount: 2
Fore
SplineSet
403 1790 m 1,0,1
 431 1643 431 1643 447 1494 c 1,2,3
 443 1494 443 1494 443 1490 c 1,4,5
 308 1565 308 1565 195 1650 c 1,6,-1
 195 1654 l 1,7,8
 291 1674 291 1674 291 1694 c 2,9,-1
 291 1698 l 1,10,-1
 283 1710 l 1,11,-1
 311 1726 l 1,12,13
 311 1714 311 1714 327 1714 c 0,14,15
 340 1714 340 1714 403 1790 c 1,0,1
362 1438 m 2,16,-1
 572 1438 l 2,17,18
 763 1438 763 1438 880 1234 c 1,19,20
 915 1159 915 1159 915 1094 c 2,21,-1
 915 14 l 2,22,23
 915 4 915 4 905 4 c 2,24,-1
 691 4 l 2,25,26
 681 4 681 4 681 14 c 2,27,-1
 681 636 l 1,28,-1
 243 636 l 1,29,-1
 243 14 l 2,30,31
 243 4 243 4 233 4 c 2,32,-1
 19 4 l 2,33,34
 9 4 9 4 9 14 c 2,35,-1
 9 1094 l 2,36,37
 9 1297 9 1297 233 1413 c 1,38,39
 294 1438 294 1438 362 1438 c 2,16,-1
234 941 m 2,40,-1
 234 866 l 1,41,-1
 672 866 l 1,42,-1
 672 931 l 2,43,44
 672 1107 672 1107 538 1175 c 1,45,46
 489 1195 489 1195 468 1195 c 2,47,-1
 438 1195 l 2,48,49
 352 1195 352 1195 269 1085 c 1,50,51
 234 1026 234 1026 234 941 c 2,40,-1
EndSplineSet
Validated: 1
EndChar

StartChar: Aacute
Encoding: 193 193 129
Width: 960
GlyphClass: 1
Flags: W
LayerCount: 2
Fore
SplineSet
362 1438 m 2,0,-1
 572 1438 l 2,1,2
 763 1438 763 1438 880 1234 c 1,3,4
 915 1159 915 1159 915 1094 c 2,5,-1
 915 14 l 2,6,7
 915 4 915 4 905 4 c 2,8,-1
 691 4 l 2,9,10
 681 4 681 4 681 14 c 2,11,-1
 681 636 l 1,12,-1
 243 636 l 1,13,-1
 243 14 l 2,14,15
 243 4 243 4 233 4 c 2,16,-1
 19 4 l 2,17,18
 9 4 9 4 9 14 c 2,19,-1
 9 1094 l 2,20,21
 9 1297 9 1297 233 1413 c 1,22,23
 294 1438 294 1438 362 1438 c 2,0,-1
234 941 m 2,24,-1
 234 866 l 1,25,-1
 672 866 l 1,26,-1
 672 931 l 2,27,28
 672 1107 672 1107 538 1175 c 1,29,30
 489 1195 489 1195 468 1195 c 2,31,-1
 438 1195 l 2,32,33
 352 1195 352 1195 269 1085 c 1,34,35
 234 1026 234 1026 234 941 c 2,24,-1
478 1753 m 1,36,-1
 482 1753 l 1,37,38
 537 1681 537 1681 562 1681 c 2,39,-1
 566 1681 l 1,40,-1
 566 1689 l 1,41,-1
 570 1689 l 2,42,43
 592 1689 592 1689 598 1673 c 1,44,45
 590 1672 590 1672 590 1665 c 2,46,-1
 590 1661 l 2,47,48
 590 1643 590 1643 686 1621 c 1,49,-1
 686 1617 l 1,50,51
 552 1519 552 1519 442 1457 c 1,52,-1
 434 1457 l 1,53,54
 454 1628 454 1628 478 1753 c 1,36,-1
EndSplineSet
Validated: 1
EndChar

StartChar: Egrave
Encoding: 200 200 136
Width: 1151
GlyphClass: 1
Flags: W
LayerCount: 2
Fore
SplineSet
403 1767 m 1,0,1
 431 1620 431 1620 447 1471 c 1,2,3
 443 1471 443 1471 443 1467 c 1,4,5
 308 1542 308 1542 195 1627 c 1,6,-1
 195 1631 l 1,7,8
 291 1651 291 1651 291 1671 c 2,9,-1
 291 1675 l 1,10,-1
 283 1687 l 1,11,-1
 311 1703 l 1,12,13
 311 1691 311 1691 327 1691 c 0,14,15
 340 1691 340 1691 403 1767 c 1,0,1
338 1433 m 2,16,-1
 712 1433 l 2,17,18
 721 1431 721 1431 721 1423 c 2,19,-1
 721 1194 l 1,20,21
 647 1199 647 1199 612 1199 c 2,22,-1
 508 1199 l 2,23,24
 306 1199 306 1199 244 1030 c 1,25,26
 234 968 234 968 234 925 c 2,27,-1
 234 861 l 1,28,-1
 438 861 l 2,29,30
 448 859 448 859 448 851 c 2,31,-1
 448 642 l 2,32,33
 448 632 448 632 438 632 c 2,34,-1
 234 632 l 1,35,-1
 234 503 l 2,36,37
 234 234 234 234 517 234 c 2,38,-1
 562 234 l 2,39,40
 572 232 572 232 572 224 c 2,41,-1
 572 10 l 2,42,43
 572 0 572 0 562 0 c 2,44,-1
 343 0 l 2,45,46
 152 0 152 0 35 204 c 1,47,48
 0 276 0 276 0 343 c 2,49,-1
 0 1095 l 2,50,51
 0 1305 0 1305 244 1418 c 1,52,53
 307 1433 307 1433 338 1433 c 2,16,-1
EndSplineSet
Validated: 1
EndChar

StartChar: Eacute
Encoding: 201 201 137
Width: 707
GlyphClass: 1
Flags: W
LayerCount: 2
Fore
SplineSet
338 1433 m 2,0,-1
 712 1433 l 2,1,2
 721 1431 721 1431 721 1423 c 2,3,-1
 721 1194 l 1,4,5
 647 1199 647 1199 612 1199 c 2,6,-1
 508 1199 l 2,7,8
 306 1199 306 1199 244 1030 c 1,9,10
 234 968 234 968 234 925 c 2,11,-1
 234 861 l 1,12,-1
 438 861 l 2,13,14
 448 859 448 859 448 851 c 2,15,-1
 448 642 l 2,16,17
 448 632 448 632 438 632 c 2,18,-1
 234 632 l 1,19,-1
 234 503 l 2,20,21
 234 234 234 234 517 234 c 2,22,-1
 562 234 l 2,23,24
 572 232 572 232 572 224 c 2,25,-1
 572 10 l 2,26,27
 572 0 572 0 562 0 c 2,28,-1
 343 0 l 2,29,30
 152 0 152 0 35 204 c 1,31,32
 0 276 0 276 0 343 c 2,33,-1
 0 1095 l 2,34,35
 0 1305 0 1305 244 1418 c 1,36,37
 307 1433 307 1433 338 1433 c 2,0,-1
381 1748 m 1,38,-1
 385 1748 l 1,39,40
 440 1676 440 1676 465 1676 c 2,41,-1
 469 1676 l 1,42,-1
 469 1684 l 1,43,-1
 473 1684 l 2,44,45
 495 1684 495 1684 501 1668 c 1,46,47
 493 1667 493 1667 493 1660 c 2,48,-1
 493 1656 l 2,49,50
 493 1638 493 1638 589 1616 c 1,51,-1
 589 1612 l 1,52,53
 455 1514 455 1514 345 1452 c 1,54,-1
 337 1452 l 1,55,56
 357 1623 357 1623 381 1748 c 1,38,-1
EndSplineSet
Validated: 1
EndChar

StartChar: Igrave
Encoding: 204 204 140
Width: 292
GlyphClass: 1
Flags: W
LayerCount: 2
Fore
SplineSet
96 1792 m 1,0,1
 124 1645 124 1645 140 1496 c 1,2,3
 136 1496 136 1496 136 1492 c 1,4,5
 1 1567 1 1567 -112 1652 c 1,6,-1
 -112 1656 l 1,7,8
 -16 1676 -16 1676 -16 1696 c 2,9,-1
 -16 1700 l 1,10,-1
 -24 1712 l 1,11,-1
 4 1728 l 1,12,13
 4 1716 4 1716 20 1716 c 0,14,15
 33 1716 33 1716 96 1792 c 1,0,1
10 1433 m 2,16,-1
 225 1433 l 2,17,18
 235 1431 235 1431 235 1423 c 2,19,-1
 235 10 l 2,20,21
 235 0 235 0 225 0 c 2,22,-1
 10 0 l 2,23,24
 0 0 0 0 0 10 c 2,25,-1
 0 1423 l 2,26,27
 2 1433 2 1433 10 1433 c 2,16,-1
EndSplineSet
Validated: 1
EndChar

StartChar: Iacute
Encoding: 205 205 141
Width: 292
GlyphClass: 1
Flags: W
LayerCount: 2
Fore
SplineSet
10 1433 m 2,0,-1
 225 1433 l 2,1,2
 235 1431 235 1431 235 1423 c 2,3,-1
 235 10 l 2,4,5
 235 0 235 0 225 0 c 2,6,-1
 10 0 l 2,7,8
 0 0 0 0 0 10 c 2,9,-1
 0 1423 l 2,10,11
 2 1433 2 1433 10 1433 c 2,0,-1
122 1763 m 1,12,-1
 126 1763 l 1,13,14
 181 1691 181 1691 206 1691 c 2,15,-1
 210 1691 l 1,16,-1
 210 1699 l 1,17,-1
 214 1699 l 2,18,19
 236 1699 236 1699 242 1683 c 1,20,21
 234 1682 234 1682 234 1675 c 2,22,-1
 234 1671 l 2,23,24
 234 1653 234 1653 330 1631 c 1,25,-1
 330 1627 l 1,26,27
 196 1529 196 1529 86 1467 c 1,28,-1
 78 1467 l 1,29,30
 98 1638 98 1638 122 1763 c 1,12,-1
EndSplineSet
Validated: 1
EndChar

StartChar: Ntilde
Encoding: 209 209 145
Width: 955
GlyphClass: 1
Flags: W
LayerCount: 2
Fore
SplineSet
0 1433 m 1,0,-1
 299 1433 l 1,1,-1
 652 542 l 1,2,-1
 657 542 l 1,3,-1
 657 1433 l 1,4,-1
 886 1433 l 1,5,-1
 886 0 l 1,6,-1
 622 0 l 1,7,-1
 234 980 l 1,8,-1
 229 980 l 1,9,-1
 229 0 l 1,10,-1
 0 0 l 1,11,-1
 0 1433 l 1,0,-1
759 1720 m 1,12,-1
 759 1583 l 1,13,14
 718 1520 718 1520 680 1498 c 128,-1,15
 642 1476 642 1476 606 1476 c 0,16,17
 567 1476 567 1476 491.5 1518.5 c 128,-1,18
 416 1561 416 1561 378 1561 c 0,19,20
 345 1561 345 1561 308.5 1536.5 c 128,-1,21
 272 1512 272 1512 225 1438 c 1,22,-1
 225 1575 l 1,23,24
 266 1639 266 1639 304 1661.5 c 128,-1,25
 342 1684 342 1684 378 1684 c 0,26,27
 419 1684 419 1684 494.5 1640.5 c 128,-1,28
 570 1597 570 1597 606 1597 c 0,29,30
 639 1597 639 1597 675.5 1621.5 c 128,-1,31
 712 1646 712 1646 759 1720 c 1,12,-1
EndSplineSet
Validated: 1
EndChar

StartChar: Ograve
Encoding: 210 210 146
Width: 1614
GlyphClass: 1
Flags: W
LayerCount: 2
Fore
SplineSet
662 1796 m 1,0,1
 690 1649 690 1649 706 1500 c 1,2,3
 702 1500 702 1500 702 1496 c 1,4,5
 567 1571 567 1571 454 1656 c 1,6,-1
 454 1660 l 1,7,8
 550 1680 550 1680 550 1700 c 2,9,-1
 550 1704 l 1,10,-1
 542 1716 l 1,11,-1
 570 1732 l 1,12,13
 570 1720 570 1720 586 1720 c 0,14,15
 599 1720 599 1720 662 1796 c 1,0,1
704 1438 m 2,16,-1
 734 1438 l 2,17,18
 1074 1438 1074 1438 1308 1133 c 1,19,20
 1438 944 1438 944 1438 734 c 2,21,-1
 1438 704 l 2,22,23
 1438 303 1438 303 1029 65 c 1,24,25
 866 0 866 0 744 0 c 2,26,-1
 704 0 l 2,27,28
 345 0 345 0 110 335 c 1,29,30
 0 516 0 516 0 689 c 2,31,-1
 0 734 l 2,32,33
 0 1076 0 1076 305 1308 c 1,34,35
 492 1438 492 1438 704 1438 c 2,16,-1
240 714 m 0,36,37
 240 423 240 423 539 275 c 1,38,39
 632 240 632 240 724 240 c 0,40,41
 1015 240 1015 240 1163 539 c 1,42,43
 1198 632 1198 632 1198 724 c 0,44,45
 1198 1020 1198 1020 889 1168 c 1,46,47
 801 1198 801 1198 714 1198 c 0,48,49
 417 1198 417 1198 270 889 c 1,50,51
 240 801 240 801 240 714 c 0,36,37
EndSplineSet
Validated: 1
EndChar

StartChar: Oacute
Encoding: 211 211 147
Width: 1472
GlyphClass: 1
Flags: W
LayerCount: 2
Fore
SplineSet
704 1438 m 2,0,-1
 734 1438 l 2,1,2
 1074 1438 1074 1438 1308 1133 c 1,3,4
 1438 944 1438 944 1438 734 c 2,5,-1
 1438 704 l 2,6,7
 1438 303 1438 303 1029 65 c 1,8,9
 866 0 866 0 744 0 c 2,10,-1
 704 0 l 2,11,12
 345 0 345 0 110 335 c 1,13,14
 0 516 0 516 0 689 c 2,15,-1
 0 734 l 2,16,17
 0 1076 0 1076 305 1308 c 1,18,19
 492 1438 492 1438 704 1438 c 2,0,-1
240 714 m 0,20,21
 240 423 240 423 539 275 c 1,22,23
 632 240 632 240 724 240 c 0,24,25
 1015 240 1015 240 1163 539 c 1,26,27
 1198 632 1198 632 1198 724 c 0,28,29
 1198 1020 1198 1020 889 1168 c 1,30,31
 801 1198 801 1198 714 1198 c 0,32,33
 417 1198 417 1198 270 889 c 1,34,35
 240 801 240 801 240 714 c 0,20,21
751 1773 m 1,36,-1
 755 1773 l 1,37,38
 810 1701 810 1701 835 1701 c 2,39,-1
 839 1701 l 1,40,-1
 839 1709 l 1,41,-1
 843 1709 l 2,42,43
 865 1709 865 1709 871 1693 c 1,44,45
 863 1692 863 1692 863 1685 c 2,46,-1
 863 1681 l 2,47,48
 863 1663 863 1663 959 1641 c 1,49,-1
 959 1637 l 1,50,51
 825 1539 825 1539 715 1477 c 1,52,-1
 707 1477 l 1,53,54
 727 1648 727 1648 751 1773 c 1,36,-1
EndSplineSet
Validated: 1
EndChar

StartChar: multiply
Encoding: 215 215 151
Width: 1014
GlyphClass: 1
Flags: W
LayerCount: 2
Fore
SplineSet
507 618 m 1,0,-1
 260 371 l 1,1,-1
 161 470 l 1,2,-1
 408 717 l 1,3,-1
 161 965 l 1,4,-1
 260 1063 l 1,5,-1
 507 816 l 1,6,-1
 755 1063 l 1,7,-1
 853 964 l 1,8,-1
 606 717 l 1,9,-1
 853 470 l 1,10,-1
 754 371 l 1,11,-1
 507 618 l 1,0,-1
EndSplineSet
Validated: 1
EndChar

StartChar: Ugrave
Encoding: 217 217 153
Width: 1189
GlyphClass: 1
Flags: W
LayerCount: 2
Fore
SplineSet
500 1781 m 1,0,1
 528 1634 528 1634 544 1485 c 1,2,3
 540 1485 540 1485 540 1481 c 1,4,5
 405 1556 405 1556 292 1641 c 1,6,-1
 292 1645 l 1,7,8
 388 1665 388 1665 388 1685 c 2,9,-1
 388 1689 l 1,10,-1
 380 1701 l 1,11,-1
 408 1717 l 1,12,13
 408 1705 408 1705 424 1705 c 0,14,15
 437 1705 437 1705 500 1781 c 1,0,1
10 1433 m 2,16,-1
 224 1433 l 2,17,18
 234 1431 234 1431 234 1423 c 2,19,-1
 234 503 l 2,20,21
 234 326 234 326 368 259 c 0,22,23
 421 234 421 234 503 234 c 2,24,-1
 627 234 l 2,25,26
 896 234 896 234 896 517 c 2,27,-1
 896 1423 l 2,28,29
 897 1433 897 1433 906 1433 c 2,30,-1
 1120 1433 l 2,31,32
 1129 1431 1129 1431 1129 1423 c 2,33,-1
 1129 343 l 2,34,35
 1129 152 1129 152 925 35 c 1,36,37
 849 0 849 0 786 0 c 2,38,-1
 343 0 l 2,39,40
 152 0 152 0 35 204 c 1,41,42
 0 276 0 276 0 343 c 2,43,-1
 0 1423 l 2,44,45
 2 1433 2 1433 10 1433 c 2,16,-1
EndSplineSet
Validated: 1
EndChar

StartChar: Uacute
Encoding: 218 218 154
Width: 1189
GlyphClass: 1
Flags: W
LayerCount: 2
Fore
SplineSet
10 1433 m 2,0,-1
 224 1433 l 2,1,2
 234 1431 234 1431 234 1423 c 2,3,-1
 234 503 l 2,4,5
 234 326 234 326 368 259 c 0,6,7
 421 234 421 234 503 234 c 2,8,-1
 627 234 l 2,9,10
 896 234 896 234 896 517 c 2,11,-1
 896 1423 l 2,12,13
 897 1433 897 1433 906 1433 c 2,14,-1
 1120 1433 l 2,15,16
 1129 1431 1129 1431 1129 1423 c 2,17,-1
 1129 343 l 2,18,19
 1129 152 1129 152 925 35 c 1,20,21
 849 0 849 0 786 0 c 2,22,-1
 343 0 l 2,23,24
 152 0 152 0 35 204 c 1,25,26
 0 276 0 276 0 343 c 2,27,-1
 0 1423 l 2,28,29
 2 1433 2 1433 10 1433 c 2,0,-1
595 1753 m 1,30,-1
 599 1753 l 1,31,32
 654 1681 654 1681 679 1681 c 2,33,-1
 683 1681 l 1,34,-1
 683 1689 l 1,35,-1
 687 1689 l 2,36,37
 709 1689 709 1689 715 1673 c 1,38,39
 707 1672 707 1672 707 1665 c 2,40,-1
 707 1661 l 2,41,42
 707 1643 707 1643 803 1621 c 1,43,-1
 803 1617 l 1,44,45
 669 1519 669 1519 559 1457 c 1,46,-1
 551 1457 l 1,47,48
 571 1628 571 1628 595 1753 c 1,30,-1
EndSplineSet
Validated: 1
EndChar

StartChar: Udieresis
Encoding: 220 220 156
Width: 1501
GlyphClass: 1
Flags: W
LayerCount: 2
Fore
SplineSet
345 1763 m 1,0,-1
 348 1763 l 1,1,2
 394 1720 394 1720 414 1672 c 1,3,-1
 411 1672 l 1,4,5
 386 1686 386 1686 375 1686 c 1,6,-1
 375 1681 l 1,7,8
 397 1650 397 1650 425 1631 c 1,9,-1
 430 1631 l 1,10,-1
 430 1634 l 1,11,12
 419 1662 419 1662 419 1670 c 1,13,14
 469 1645 469 1645 507 1604 c 1,15,-1
 507 1601 l 1,16,17
 464 1555 464 1555 416 1535 c 1,18,-1
 416 1538 l 1,19,20
 430 1563 430 1563 430 1574 c 1,21,-1
 425 1574 l 1,22,23
 394 1552 394 1552 375 1524 c 1,24,-1
 375 1519 l 1,25,-1
 378 1519 l 1,26,27
 406 1530 406 1530 414 1530 c 1,28,29
 389 1480 389 1480 348 1442 c 1,30,-1
 345 1442 l 1,31,32
 299 1485 299 1485 279 1533 c 1,33,-1
 282 1533 l 1,34,35
 307 1519 307 1519 318 1519 c 1,36,-1
 318 1524 l 1,37,38
 296 1555 296 1555 268 1574 c 1,39,-1
 263 1574 l 1,40,-1
 263 1571 l 1,41,42
 274 1543 274 1543 274 1535 c 1,43,44
 224 1560 224 1560 186 1601 c 1,45,-1
 186 1604 l 1,46,47
 229 1650 229 1650 277 1670 c 1,48,-1
 277 1667 l 1,49,50
 263 1642 263 1642 263 1631 c 1,51,-1
 268 1631 l 1,52,53
 299 1653 299 1653 318 1681 c 1,54,-1
 318 1686 l 1,55,-1
 315 1686 l 1,56,57
 287 1675 287 1675 279 1675 c 1,58,59
 304 1725 304 1725 345 1763 c 1,0,-1
799 1750 m 1,60,-1
 802 1750 l 1,61,62
 847 1707 847 1707 867 1661 c 1,63,-1
 864 1661 l 1,64,65
 840 1674 840 1674 829 1674 c 1,66,-1
 829 1669 l 1,67,68
 850 1639 850 1639 878 1620 c 1,69,-1
 883 1620 l 1,70,-1
 883 1623 l 1,71,72
 872 1650 872 1650 872 1658 c 1,73,74
 921 1633 921 1633 959 1593 c 1,75,-1
 959 1590 l 1,76,77
 916 1545 916 1545 870 1525 c 1,78,-1
 870 1528 l 1,79,80
 883 1552 883 1552 883 1563 c 1,81,-1
 878 1563 l 1,82,83
 848 1542 848 1542 829 1514 c 1,84,-1
 829 1509 l 1,85,-1
 832 1509 l 1,86,87
 859 1520 859 1520 867 1520 c 1,88,89
 842 1471 842 1471 802 1433 c 1,90,-1
 799 1433 l 1,91,92
 754 1476 754 1476 734 1522 c 1,93,-1
 737 1522 l 1,94,95
 761 1509 761 1509 772 1509 c 1,96,-1
 772 1514 l 1,97,98
 751 1544 751 1544 723 1563 c 1,99,-1
 718 1563 l 1,100,-1
 718 1560 l 1,101,102
 729 1533 729 1533 729 1525 c 1,103,104
 680 1550 680 1550 642 1590 c 1,105,-1
 642 1593 l 1,106,107
 685 1638 685 1638 731 1658 c 1,108,-1
 731 1655 l 1,109,110
 718 1631 718 1631 718 1620 c 1,111,-1
 723 1620 l 1,112,113
 753 1641 753 1641 772 1669 c 1,114,-1
 772 1674 l 1,115,-1
 769 1674 l 1,116,117
 742 1663 742 1663 734 1663 c 1,118,119
 759 1712 759 1712 799 1750 c 1,60,-1
10 1433 m 2,120,-1
 224 1433 l 2,121,122
 234 1431 234 1431 234 1423 c 2,123,-1
 234 503 l 2,124,125
 234 326 234 326 368 259 c 0,126,127
 421 234 421 234 503 234 c 2,128,-1
 627 234 l 2,129,130
 896 234 896 234 896 517 c 2,131,-1
 896 1423 l 2,132,133
 897 1433 897 1433 906 1433 c 2,134,-1
 1120 1433 l 2,135,136
 1129 1431 1129 1431 1129 1423 c 2,137,-1
 1129 343 l 2,138,139
 1129 152 1129 152 925 35 c 1,140,141
 849 0 849 0 786 0 c 2,142,-1
 343 0 l 2,143,144
 152 0 152 0 35 204 c 1,145,146
 0 276 0 276 0 343 c 2,147,-1
 0 1423 l 2,148,149
 2 1433 2 1433 10 1433 c 2,120,-1
EndSplineSet
Validated: 1
EndChar

StartChar: agrave
Encoding: 224 224 160
Width: 1096
GlyphClass: 1
Flags: W
LayerCount: 2
Fore
SplineSet
476 1411 m 1,0,1
 504 1264 504 1264 520 1115 c 1,2,3
 516 1115 516 1115 516 1111 c 1,4,5
 381 1186 381 1186 268 1271 c 1,6,-1
 268 1275 l 1,7,8
 364 1295 364 1295 364 1315 c 2,9,-1
 364 1319 l 1,10,-1
 356 1331 l 1,11,-1
 384 1347 l 1,12,13
 384 1335 384 1335 400 1335 c 0,14,15
 413 1335 413 1335 476 1411 c 1,0,1
482 1027 m 2,16,-1
 545 1027 l 2,17,18
 696 1027 696 1027 840 918 c 1,19,20
 840 944 840 944 851 944 c 2,21,-1
 1048 944 l 2,22,23
 1058 942 1058 942 1058 934 c 2,24,-1
 1058 10 l 2,25,26
 1058 0 1058 0 1048 0 c 2,27,-1
 851 0 l 2,28,29
 840 0 840 0 840 10 c 2,30,-1
 840 109 l 1,31,32
 696 0 696 0 545 0 c 2,33,-1
 482 0 l 2,34,35
 232 0 232 0 67 249 c 1,36,37
 0 365 0 365 0 482 c 2,38,-1
 0 545 l 2,39,40
 0 795 0 795 249 959 c 1,41,42
 365 1027 365 1027 482 1027 c 2,16,-1
213 519 m 2,43,-1
 213 508 l 2,44,45
 213 305 213 305 441 223 c 0,46,47
 464 213 464 213 508 213 c 2,48,-1
 519 213 l 2,49,50
 722 213 722 213 804 441 c 0,51,52
 814 464 814 464 814 508 c 2,53,-1
 814 519 l 2,54,55
 814 722 814 722 586 804 c 0,56,57
 563 814 563 814 519 814 c 2,58,-1
 508 814 l 2,59,60
 305 814 305 814 223 586 c 0,61,62
 213 563 213 563 213 519 c 2,43,-1
EndSplineSet
Validated: 1
EndChar

StartChar: aacute
Encoding: 225 225 161
Width: 1101
GlyphClass: 1
Flags: W
LayerCount: 2
Fore
SplineSet
482 1027 m 2,0,-1
 545 1027 l 2,1,2
 696 1027 696 1027 840 918 c 1,3,4
 840 944 840 944 851 944 c 2,5,-1
 1048 944 l 2,6,7
 1058 942 1058 942 1058 934 c 2,8,-1
 1058 10 l 2,9,10
 1058 0 1058 0 1048 0 c 2,11,-1
 851 0 l 2,12,13
 840 0 840 0 840 10 c 2,14,-1
 840 109 l 1,15,16
 696 0 696 0 545 0 c 2,17,-1
 482 0 l 2,18,19
 232 0 232 0 67 249 c 1,20,21
 0 365 0 365 0 482 c 2,22,-1
 0 545 l 2,23,24
 0 795 0 795 249 959 c 1,25,26
 365 1027 365 1027 482 1027 c 2,0,-1
213 519 m 2,27,-1
 213 508 l 2,28,29
 213 305 213 305 441 223 c 0,30,31
 464 213 464 213 508 213 c 2,32,-1
 519 213 l 2,33,34
 722 213 722 213 804 441 c 0,35,36
 814 464 814 464 814 508 c 2,37,-1
 814 519 l 2,38,39
 814 722 814 722 586 804 c 0,40,41
 563 814 563 814 519 814 c 2,42,-1
 508 814 l 2,43,44
 305 814 305 814 223 586 c 0,45,46
 213 563 213 563 213 519 c 2,27,-1
600 1403 m 1,47,-1
 604 1403 l 1,48,49
 659 1331 659 1331 684 1331 c 2,50,-1
 688 1331 l 1,51,-1
 688 1339 l 1,52,-1
 692 1339 l 2,53,54
 714 1339 714 1339 720 1323 c 1,55,56
 712 1322 712 1322 712 1315 c 2,57,-1
 712 1311 l 2,58,59
 712 1293 712 1293 808 1271 c 1,60,-1
 808 1267 l 1,61,62
 674 1169 674 1169 564 1107 c 1,63,-1
 556 1107 l 1,64,65
 576 1278 576 1278 600 1403 c 1,47,-1
EndSplineSet
Validated: 1
EndChar

StartChar: egrave
Encoding: 232 232 168
Width: 909
GlyphClass: 1
Flags: W
LayerCount: 2
Fore
SplineSet
476 1411 m 1,0,1
 504 1264 504 1264 520 1115 c 1,2,3
 516 1115 516 1115 516 1111 c 1,4,5
 381 1186 381 1186 268 1271 c 1,6,-1
 268 1275 l 1,7,8
 364 1295 364 1295 364 1315 c 2,9,-1
 364 1319 l 1,10,-1
 356 1331 l 1,11,-1
 384 1347 l 1,12,13
 384 1335 384 1335 400 1335 c 0,14,15
 413 1335 413 1335 476 1411 c 1,0,1
451 1025 m 2,16,-1
 489 1025 l 2,17,18
 734 1025 734 1025 888 774 c 1,19,20
 940 670 940 670 940 565 c 2,21,-1
 940 541 l 2,22,23
 940 451 940 451 921 451 c 2,24,-1
 195 451 l 1,25,26
 195 303 195 303 380 209 c 1,27,28
 430 195 430 195 465 195 c 2,29,-1
 893 195 l 2,30,31
 902 193 902 193 902 185 c 2,32,-1
 902 9 l 2,33,34
 902 0 902 0 893 0 c 2,35,-1
 442 0 l 2,36,37
 212 0 212 0 62 228 c 1,38,39
 0 335 0 335 0 442 c 2,40,-1
 0 565 l 2,41,42
 0 850 0 850 299 997 c 1,43,44
 383 1025 383 1025 451 1025 c 2,16,-1
204 641 m 1,45,-1
 736 641 l 1,46,47
 649 831 649 831 494 831 c 2,48,-1
 446 831 l 2,49,50
 291 831 291 831 204 641 c 1,45,-1
EndSplineSet
Validated: 1
EndChar

StartChar: eacute
Encoding: 233 233 169
Width: 975
GlyphClass: 1
Flags: W
LayerCount: 2
Fore
SplineSet
451 1025 m 2,0,-1
 489 1025 l 2,1,2
 734 1025 734 1025 888 774 c 1,3,4
 940 670 940 670 940 565 c 2,5,-1
 940 541 l 2,6,7
 940 451 940 451 921 451 c 2,8,-1
 195 451 l 1,9,10
 195 303 195 303 380 209 c 1,11,12
 430 195 430 195 465 195 c 2,13,-1
 893 195 l 2,14,15
 902 193 902 193 902 185 c 2,16,-1
 902 9 l 2,17,18
 902 0 902 0 893 0 c 2,19,-1
 442 0 l 2,20,21
 212 0 212 0 62 228 c 1,22,23
 0 335 0 335 0 442 c 2,24,-1
 0 565 l 2,25,26
 0 850 0 850 299 997 c 1,27,28
 383 1025 383 1025 451 1025 c 2,0,-1
204 641 m 1,29,-1
 736 641 l 1,30,31
 649 831 649 831 494 831 c 2,32,-1
 446 831 l 2,33,34
 291 831 291 831 204 641 c 1,29,-1
531 1402 m 1,35,-1
 535 1402 l 1,36,37
 590 1330 590 1330 615 1330 c 2,38,-1
 619 1330 l 1,39,-1
 619 1338 l 1,40,-1
 623 1338 l 2,41,42
 645 1338 645 1338 651 1322 c 1,43,44
 643 1321 643 1321 643 1314 c 2,45,-1
 643 1310 l 2,46,47
 643 1292 643 1292 739 1270 c 1,48,-1
 739 1266 l 1,49,50
 605 1168 605 1168 495 1106 c 1,51,-1
 487 1106 l 1,52,53
 507 1277 507 1277 531 1402 c 1,35,-1
EndSplineSet
Validated: 1
EndChar

StartChar: igrave
Encoding: 236 236 172
Width: 253
GlyphClass: 1
Flags: W
LayerCount: 2
Fore
SplineSet
81 1207 m 1,0,1
 109 1060 109 1060 125 911 c 1,2,3
 121 911 121 911 121 907 c 1,4,5
 -14 982 -14 982 -127 1067 c 1,6,-1
 -127 1071 l 1,7,8
 -31 1091 -31 1091 -31 1111 c 2,9,-1
 -31 1115 l 1,10,-1
 -39 1127 l 1,11,-1
 -11 1143 l 1,12,13
 -11 1131 -11 1131 5 1131 c 0,14,15
 18 1131 18 1131 81 1207 c 1,0,1
11 793 m 2,16,-1
 200 793 l 2,17,18
 210 791 210 791 210 783 c 2,19,-1
 210 11 l 2,20,21
 210 0 210 0 200 0 c 2,22,-1
 11 0 l 2,23,24
 0 0 0 0 0 11 c 2,25,-1
 0 783 l 2,26,27
 2 793 2 793 11 793 c 2,16,-1
EndSplineSet
Validated: 1
EndChar

StartChar: iacute
Encoding: 237 237 173
Width: 263
GlyphClass: 1
Flags: W
LayerCount: 2
Fore
SplineSet
11 793 m 2,0,-1
 200 793 l 2,1,2
 210 791 210 791 210 783 c 2,3,-1
 210 11 l 2,4,5
 210 0 210 0 200 0 c 2,6,-1
 11 0 l 2,7,8
 0 0 0 0 0 11 c 2,9,-1
 0 783 l 2,10,11
 2 793 2 793 11 793 c 2,0,-1
127 1212 m 1,12,-1
 131 1212 l 1,13,14
 186 1140 186 1140 211 1140 c 2,15,-1
 215 1140 l 1,16,-1
 215 1148 l 1,17,-1
 219 1148 l 2,18,19
 241 1148 241 1148 247 1132 c 1,20,21
 239 1131 239 1131 239 1124 c 2,22,-1
 239 1120 l 2,23,24
 239 1102 239 1102 335 1080 c 1,25,-1
 335 1076 l 1,26,27
 201 978 201 978 91 916 c 1,28,-1
 83 916 l 1,29,30
 103 1087 103 1087 127 1212 c 1,12,-1
EndSplineSet
Validated: 1
EndChar

StartChar: ntilde
Encoding: 241 241 176
Width: 1108
GlyphClass: 1
Flags: W
LayerCount: 2
Fore
SplineSet
788 1344 m 1,0,-1
 788 1207 l 1,1,2
 747 1144 747 1144 709 1122 c 128,-1,3
 671 1100 671 1100 635 1100 c 0,4,5
 596 1100 596 1100 520.5 1142.5 c 128,-1,6
 445 1185 445 1185 407 1185 c 0,7,8
 374 1185 374 1185 337.5 1160.5 c 128,-1,9
 301 1136 301 1136 254 1062 c 1,10,-1
 254 1199 l 1,11,12
 295 1263 295 1263 333 1285.5 c 128,-1,13
 371 1308 371 1308 407 1308 c 0,14,15
 448 1308 448 1308 523.5 1264.5 c 128,-1,16
 599 1221 599 1221 635 1221 c 0,17,18
 668 1221 668 1221 704.5 1245.5 c 128,-1,19
 741 1270 741 1270 788 1344 c 1,0,-1
489 1030 m 2,20,-1
 551 1030 l 2,21,22
 829 1030 829 1030 993 733 c 1,23,24
 1024 655 1024 655 1040 556 c 1,25,-1
 1040 10 l 2,26,27
 1040 0 1040 0 1030 0 c 2,28,-1
 832 0 l 2,29,30
 822 0 822 0 822 10 c 2,31,-1
 822 520 l 2,32,33
 822 723 822 723 593 806 c 0,34,35
 569 816 569 816 525 816 c 2,36,-1
 515 816 l 2,37,38
 311 816 311 816 229 588 c 0,39,40
 218 564 218 564 218 520 c 2,41,-1
 218 10 l 2,42,43
 218 0 218 0 208 0 c 2,44,-1
 10 0 l 2,45,46
 0 0 0 0 0 10 c 2,47,-1
 0 437 l 2,48,49
 0 761 0 761 161 889 c 1,50,51
 307 1030 307 1030 489 1030 c 2,20,-1
EndSplineSet
Validated: 1
EndChar

StartChar: ograve
Encoding: 242 242 177
Width: 1077
GlyphClass: 1
Flags: W
LayerCount: 2
Fore
SplineSet
476 1411 m 1,0,1
 504 1264 504 1264 520 1115 c 1,2,3
 516 1115 516 1115 516 1111 c 1,4,5
 381 1186 381 1186 268 1271 c 1,6,-1
 268 1275 l 1,7,8
 364 1295 364 1295 364 1315 c 2,9,-1
 364 1319 l 1,10,-1
 356 1331 l 1,11,-1
 384 1347 l 1,12,13
 384 1335 384 1335 400 1335 c 0,14,15
 413 1335 413 1335 476 1411 c 1,0,1
480 1021 m 2,16,-1
 541 1021 l 2,17,18
 790 1021 790 1021 954 773 c 1,19,20
 1021 658 1021 658 1021 541 c 2,21,-1
 1021 480 l 2,22,23
 1021 231 1021 231 773 67 c 1,24,25
 658 0 658 0 541 0 c 2,26,-1
 480 0 l 2,27,28
 231 0 231 0 67 248 c 1,29,30
 0 363 0 363 0 480 c 2,31,-1
 0 541 l 2,32,33
 0 790 0 790 248 954 c 1,34,35
 363 1021 363 1021 480 1021 c 2,16,-1
211 516 m 2,36,-1
 211 505 l 2,37,38
 211 304 211 304 438 222 c 0,39,40
 462 211 462 211 505 211 c 2,41,-1
 516 211 l 2,42,43
 717 211 717 211 799 438 c 0,44,45
 810 462 810 462 810 505 c 2,46,-1
 810 516 l 2,47,48
 810 717 810 717 583 799 c 0,49,50
 559 810 559 810 516 810 c 2,51,-1
 505 810 l 2,52,53
 304 810 304 810 222 583 c 0,54,55
 211 559 211 559 211 516 c 2,36,-1
EndSplineSet
Validated: 1
EndChar

StartChar: oacute
Encoding: 243 243 178
Width: 1053
GlyphClass: 1
Flags: W
LayerCount: 2
Fore
SplineSet
480 1021 m 2,0,-1
 541 1021 l 2,1,2
 790 1021 790 1021 954 773 c 1,3,4
 1021 658 1021 658 1021 541 c 2,5,-1
 1021 480 l 2,6,7
 1021 231 1021 231 773 67 c 1,8,9
 658 0 658 0 541 0 c 2,10,-1
 480 0 l 2,11,12
 231 0 231 0 67 248 c 1,13,14
 0 363 0 363 0 480 c 2,15,-1
 0 541 l 2,16,17
 0 790 0 790 248 954 c 1,18,19
 363 1021 363 1021 480 1021 c 2,0,-1
211 516 m 2,20,-1
 211 505 l 2,21,22
 211 304 211 304 438 222 c 0,23,24
 462 211 462 211 505 211 c 2,25,-1
 516 211 l 2,26,27
 717 211 717 211 799 438 c 0,28,29
 810 462 810 462 810 505 c 2,30,-1
 810 516 l 2,31,32
 810 717 810 717 583 799 c 0,33,34
 559 810 559 810 516 810 c 2,35,-1
 505 810 l 2,36,37
 304 810 304 810 222 583 c 0,38,39
 211 559 211 559 211 516 c 2,20,-1
527 1407 m 1,40,-1
 531 1407 l 1,41,42
 586 1335 586 1335 611 1335 c 2,43,-1
 615 1335 l 1,44,-1
 615 1343 l 1,45,-1
 619 1343 l 2,46,47
 641 1343 641 1343 647 1327 c 1,48,49
 639 1326 639 1326 639 1319 c 2,50,-1
 639 1315 l 2,51,52
 639 1297 639 1297 735 1275 c 1,53,-1
 735 1271 l 1,54,55
 601 1173 601 1173 491 1111 c 1,56,-1
 483 1111 l 1,57,58
 503 1282 503 1282 527 1407 c 1,40,-1
EndSplineSet
Validated: 1
EndChar

StartChar: odieresis
Encoding: 246 246 180
Width: 2048
GlyphClass: 1
Flags: W
LayerCount: 2
Fore
SplineSet
134.734375 417.33984375 m 6,0,1
 113.0546875 446.928710938 113.0546875 446.928710938 81.123046875 491.280273438 c 6,2,-1
 49 535.889648438 l 5,3,-1
 106.041992188 654.240234375 l 5,4,-1
 163.083984375 772.599609375 l 5,5,-1
 1024.01953125 772.599609375 l 5,6,-1
 1884.95019531 772.610351562 l 5,7,-1
 1941.96972656 654.440429688 l 5,8,-1
 1999 536.280273438 l 5,9,-1
 1957.12011719 477.389648438 l 6,10,11
 1914.98535156 418.149414062 1914.98535156 418.149414062 1903.53027344 403.25 c 6,12,-1
 1891.80957031 388 l 5,13,-1
 1024.00976562 388 l 5,14,-1
 156.220703125 388 l 5,15,-1
 134.734375 417.33984375 l 6,0,1
338.373046875 991.930664062 m 5,16,-1
 308.981445312 1070.1953125 l 5,17,-1
 322.510742188 1098.70605469 l 6,18,19
 336.147460938 1127.43847656 336.147460938 1127.43847656 353.536132812 1163.609375 c 6,20,-1
 371.030273438 1200 l 5,21,-1
 1024.58007812 1198.80957031 l 5,22,-1
 1678.12988281 1197.61914062 l 5,23,-1
 1708.79003906 1133.71289062 l 5,24,-1
 1739.45019531 1069.80566406 l 5,25,-1
 1709.73046875 991.737304688 l 5,26,-1
 1680.00976562 913.666992188 l 5,27,-1
 1023.88964844 913.666992188 l 5,28,-1
 367.765625 913.666992188 l 5,29,-1
 338.373046875 991.930664062 l 5,16,-1
EndSplineSet
EndChar

StartChar: divide
Encoding: 247 247 181
Width: 1014
GlyphClass: 1
Flags: W
LayerCount: 2
Fore
SplineSet
87 647 m 1,0,-1
 87 787 l 1,1,-1
 926 787 l 1,2,-1
 927 786 l 1,3,-1
 927 647 l 1,4,-1
 87 647 l 1,0,-1
398 408 m 2,5,-1
 480 492 l 2,6,7
 495 506 495 506 509 506 c 0,8,9
 522 506 522 506 540 490 c 2,10,-1
 620 404 l 2,11,12
 632 388 632 388 632 375 c 0,13,14
 632 360 632 360 618 344 c 2,15,-1
 538 256 l 2,16,17
 518 236 518 236 509 236 c 0,18,19
 493 236 493 236 480 250 c 2,20,-1
 392 351 l 2,21,22
 382 364 382 364 382 377 c 0,23,24
 382 392 382 392 398 408 c 2,5,-1
398 1101 m 2,25,-1
 480 1185 l 2,26,27
 495 1199 495 1199 509 1199 c 0,28,29
 522 1199 522 1199 540 1183 c 2,30,-1
 620 1097 l 2,31,32
 632 1081 632 1081 632 1068 c 0,33,34
 632 1053 632 1053 618 1037 c 2,35,-1
 538 949 l 2,36,37
 518 929 518 929 509 929 c 0,38,39
 493 929 493 929 480 943 c 2,40,-1
 392 1044 l 2,41,42
 382 1057 382 1057 382 1070 c 0,43,44
 382 1085 382 1085 398 1101 c 2,25,-1
EndSplineSet
Validated: 1
EndChar

StartChar: oslash
Encoding: 248 248 182
Width: 2048
GlyphClass: 1
Flags: W
LayerCount: 2
Fore
SplineSet
939.081054688 530.01953125 m 5,0,1
 936.274414062 543.53125 936.274414062 543.53125 932.040039062 567.052734375 c 132,-1,2
 927.806640625 590.573242188 927.806640625 590.573242188 919.83203125 658.051757812 c 132,-1,3
 911.858398438 725.530273438 911.858398438 725.530273438 909.620117188 787.060546875 c 132,-1,4
 907.381835938 848.58984375 907.381835938 848.58984375 914.987304688 923.4375 c 132,-1,5
 922.592773438 998.286132812 922.592773438 998.286132812 943.09765625 1051.22753906 c 6,6,-1
 978.18359375 1128.21777344 l 6,7,8
 1032.63867188 1247.70214844 1032.63867188 1247.70214844 1149.32324219 1332.33886719 c 132,-1,9
 1266.00878906 1416.97460938 1266.00878906 1416.97460938 1395.49023438 1430.90722656 c 6,10,-1
 1480 1440 l 5,11,-1
 1480 1212.13769531 l 5,12,-1
 1429.03027344 1211.82128906 l 6,13,14
 1355.98632812 1211.37988281 1355.98632812 1211.37988281 1292.3828125 1169.38574219 c 132,-1,15
 1228.78027344 1127.39160156 1228.78027344 1127.39160156 1191.28027344 1056.59277344 c 132,-1,16
 1153.78027344 985.793945312 1153.78027344 985.793945312 1153.78027344 904.749023438 c 6,17,-1
 1153.78027344 834.338867188 l 5,18,-1
 1480 834.338867188 l 5,19,-1
 1480 610.459960938 l 5,20,-1
 1153.78027344 610.459960938 l 5,21,-1
 1153.78027344 8.7998046875 l 5,22,-1
 935.065429688 8.7998046875 l 5,23,-1
 939.081054688 530.01953125 l 5,0,1
1124.79003906 751.83203125 m 4,24,25
 1139.30664062 719.666015625 1139.30664062 719.666015625 1144.95507812 703.583984375 c 132,-1,26
 1150.60351562 687.501953125 1150.60351562 687.501953125 1155.24902344 637.791992188 c 132,-1,27
 1159.89550781 588.08203125 1159.89550781 588.08203125 1160.82519531 533.776367188 c 132,-1,28
 1161.75488281 479.471679688 1161.75488281 479.471679688 1163.16992188 341.169921875 c 6,29,-1
 1166.5703125 8 l 5,30,-1
 920.130859375 8.6904296875 l 5,31,-1
 920.928710938 310.740234375 l 6,32,33
 921.168945312 401.552734375 921.168945312 401.552734375 920.833007812 451.073242188 c 132,-1,34
 920.49609375 500.59375 920.49609375 500.59375 917.56640625 549.528320312 c 132,-1,35
 914.637695312 598.461914062 914.637695312 598.461914062 910.900390625 620.846679688 c 132,-1,36
 907.163085938 643.232421875 907.163085938 643.232421875 897.556640625 669.385742188 c 132,-1,37
 887.950195312 695.5390625 887.950195312 695.5390625 877.5078125 710.580078125 c 132,-1,38
 867.065429688 725.620117188 867.065429688 725.620117188 847.680664062 749.4765625 c 4,39,40
 773.836914062 840.359375 773.836914062 840.359375 638.908203125 859.215820312 c 6,41,-1
 569 868.987304688 l 5,42,-1
 569.555664062 1079.47753906 l 5,43,-1
 669.59765625 1072.5703125 l 6,44,45
 813.068359375 1062.66503906 813.068359375 1062.66503906 938.756835938 974.102539062 c 132,-1,46
 1064.4453125 885.540039062 1064.4453125 885.540039062 1124.79003906 751.83203125 c 4,24,25
EndSplineSet
EndChar

StartChar: ugrave
Encoding: 249 249 183
Width: 1059
GlyphClass: 1
Flags: W
LayerCount: 2
Fore
SplineSet
476 1411 m 1,0,1
 504 1264 504 1264 520 1115 c 1,2,3
 516 1115 516 1115 516 1111 c 1,4,5
 381 1186 381 1186 268 1271 c 1,6,-1
 268 1275 l 1,7,8
 364 1295 364 1295 364 1315 c 2,9,-1
 364 1319 l 1,10,-1
 356 1331 l 1,11,-1
 384 1347 l 1,12,13
 384 1335 384 1335 400 1335 c 0,14,15
 413 1335 413 1335 476 1411 c 1,0,1
10 1030 m 2,16,-1
 207 1030 l 2,17,18
 217 1028 217 1028 217 1020 c 2,19,-1
 217 507 l 2,20,21
 217 322 217 322 336 269 c 1,22,23
 415 223 415 223 492 223 c 2,24,-1
 538 223 l 2,25,26
 703 223 703 223 797 378 c 1,27,28
 813 422 813 422 813 507 c 2,29,-1
 813 1020 l 2,30,31
 814 1030 814 1030 823 1030 c 2,32,-1
 1020 1030 l 2,33,34
 1030 1028 1030 1028 1030 1020 c 2,35,-1
 1030 362 l 2,36,37
 1030 221 1030 221 875 104 c 1,38,39
 724 0 724 0 554 0 c 2,40,-1
 476 0 l 2,41,42
 194 0 194 0 31 238 c 1,43,44
 0 306 0 306 0 362 c 2,45,-1
 0 1020 l 2,46,47
 2 1030 2 1030 10 1030 c 2,16,-1
EndSplineSet
Validated: 1
EndChar

StartChar: uacute
Encoding: 250 250 184
Width: 1059
GlyphClass: 1
Flags: W
LayerCount: 2
Fore
SplineSet
10 1030 m 2,0,-1
 207 1030 l 2,1,2
 217 1028 217 1028 217 1020 c 2,3,-1
 217 507 l 2,4,5
 217 322 217 322 336 269 c 1,6,7
 415 223 415 223 492 223 c 2,8,-1
 538 223 l 2,9,10
 703 223 703 223 797 378 c 1,11,12
 813 422 813 422 813 507 c 2,13,-1
 813 1020 l 2,14,15
 814 1030 814 1030 823 1030 c 2,16,-1
 1020 1030 l 2,17,18
 1030 1028 1030 1028 1030 1020 c 2,19,-1
 1030 362 l 2,20,21
 1030 221 1030 221 875 104 c 1,22,23
 724 0 724 0 554 0 c 2,24,-1
 476 0 l 2,25,26
 194 0 194 0 31 238 c 1,27,28
 0 306 0 306 0 362 c 2,29,-1
 0 1020 l 2,30,31
 2 1030 2 1030 10 1030 c 2,0,-1
547 1422 m 1,32,-1
 551 1422 l 1,33,34
 606 1350 606 1350 631 1350 c 2,35,-1
 635 1350 l 1,36,-1
 635 1358 l 1,37,-1
 639 1358 l 2,38,39
 661 1358 661 1358 667 1342 c 1,40,41
 659 1341 659 1341 659 1334 c 2,42,-1
 659 1330 l 2,43,44
 659 1312 659 1312 755 1290 c 1,45,-1
 755 1286 l 1,46,47
 621 1188 621 1188 511 1126 c 1,48,-1
 503 1126 l 1,49,50
 523 1297 523 1297 547 1422 c 1,32,-1
EndSplineSet
Validated: 1
EndChar

StartChar: udieresis
Encoding: 252 252 186
Width: 1059
GlyphClass: 1
Flags: W
LayerCount: 2
Fore
SplineSet
320 1412 m 1,0,-1
 323 1412 l 1,1,2
 369 1369 369 1369 389 1321 c 1,3,-1
 386 1321 l 1,4,5
 361 1335 361 1335 350 1335 c 1,6,-1
 350 1330 l 1,7,8
 372 1299 372 1299 400 1280 c 1,9,-1
 405 1280 l 1,10,-1
 405 1283 l 1,11,12
 394 1311 394 1311 394 1319 c 1,13,14
 444 1294 444 1294 482 1253 c 1,15,-1
 482 1250 l 1,16,17
 439 1204 439 1204 391 1184 c 1,18,-1
 391 1187 l 1,19,20
 405 1212 405 1212 405 1223 c 1,21,-1
 400 1223 l 1,22,23
 369 1201 369 1201 350 1173 c 1,24,-1
 350 1168 l 1,25,-1
 353 1168 l 1,26,27
 381 1179 381 1179 389 1179 c 1,28,29
 364 1129 364 1129 323 1091 c 1,30,-1
 320 1091 l 1,31,32
 274 1134 274 1134 254 1182 c 1,33,-1
 257 1182 l 1,34,35
 282 1168 282 1168 293 1168 c 1,36,-1
 293 1173 l 1,37,38
 271 1204 271 1204 243 1223 c 1,39,-1
 238 1223 l 1,40,-1
 238 1220 l 1,41,42
 249 1192 249 1192 249 1184 c 1,43,44
 199 1209 199 1209 161 1250 c 1,45,-1
 161 1253 l 1,46,47
 204 1299 204 1299 252 1319 c 1,48,-1
 252 1316 l 1,49,50
 238 1291 238 1291 238 1280 c 1,51,-1
 243 1280 l 1,52,53
 274 1302 274 1302 293 1330 c 1,54,-1
 293 1335 l 1,55,-1
 290 1335 l 1,56,57
 262 1324 262 1324 254 1324 c 1,58,59
 279 1374 279 1374 320 1412 c 1,0,-1
737 1409 m 1,60,-1
 740 1409 l 1,61,62
 785 1366 785 1366 805 1320 c 1,63,-1
 802 1320 l 1,64,65
 778 1333 778 1333 767 1333 c 1,66,-1
 767 1328 l 1,67,68
 788 1298 788 1298 816 1279 c 1,69,-1
 821 1279 l 1,70,-1
 821 1282 l 1,71,72
 810 1309 810 1309 810 1317 c 1,73,74
 859 1292 859 1292 897 1252 c 1,75,-1
 897 1249 l 1,76,77
 854 1204 854 1204 808 1184 c 1,78,-1
 808 1187 l 1,79,80
 821 1211 821 1211 821 1222 c 1,81,-1
 816 1222 l 1,82,83
 786 1201 786 1201 767 1173 c 1,84,-1
 767 1168 l 1,85,-1
 770 1168 l 1,86,87
 797 1179 797 1179 805 1179 c 1,88,89
 780 1130 780 1130 740 1092 c 1,90,-1
 737 1092 l 1,91,92
 692 1135 692 1135 672 1181 c 1,93,-1
 675 1181 l 1,94,95
 699 1168 699 1168 710 1168 c 1,96,-1
 710 1173 l 1,97,98
 689 1203 689 1203 661 1222 c 1,99,-1
 656 1222 l 1,100,-1
 656 1219 l 1,101,102
 667 1192 667 1192 667 1184 c 1,103,104
 618 1209 618 1209 580 1249 c 1,105,-1
 580 1252 l 1,106,107
 623 1297 623 1297 669 1317 c 1,108,-1
 669 1314 l 1,109,110
 656 1290 656 1290 656 1279 c 1,111,-1
 661 1279 l 1,112,113
 691 1300 691 1300 710 1328 c 1,114,-1
 710 1333 l 1,115,-1
 707 1333 l 1,116,117
 680 1322 680 1322 672 1322 c 1,118,119
 697 1371 697 1371 737 1409 c 1,60,-1
10 1030 m 2,120,-1
 207 1030 l 2,121,122
 217 1028 217 1028 217 1020 c 2,123,-1
 217 507 l 2,124,125
 217 322 217 322 336 269 c 1,126,127
 415 223 415 223 492 223 c 2,128,-1
 538 223 l 2,129,130
 703 223 703 223 797 378 c 1,131,132
 813 422 813 422 813 507 c 2,133,-1
 813 1020 l 2,134,135
 814 1030 814 1030 823 1030 c 2,136,-1
 1020 1030 l 2,137,138
 1030 1028 1030 1028 1030 1020 c 2,139,-1
 1030 362 l 2,140,141
 1030 221 1030 221 875 104 c 1,142,143
 724 0 724 0 554 0 c 2,144,-1
 476 0 l 2,145,146
 194 0 194 0 31 238 c 1,147,148
 0 306 0 306 0 362 c 2,149,-1
 0 1020 l 2,150,151
 2 1030 2 1030 10 1030 c 2,120,-1
EndSplineSet
Validated: 1
EndChar

StartChar: dotlessi
Encoding: 305 305 190
Width: 514
GlyphClass: 1
Flags: W
LayerCount: 2
Fore
SplineSet
328 223 m 2,0,1
 328 50 328 50 428 50 c 2,2,-1
 474 50 l 1,3,-1
 474 0 l 1,4,-1
 32 0 l 1,5,-1
 32 50 l 1,6,-1
 78 50 l 2,7,8
 178 50 178 50 178 223 c 2,9,-1
 178 655 l 2,10,11
 178 732 178 732 67 732 c 2,12,-1
 19 732 l 1,13,-1
 19 776 l 1,14,15
 241 845 241 845 280 958 c 1,16,-1
 328 958 l 1,17,-1
 328 223 l 2,0,1
EndSplineSet
Validated: 1
EndChar

StartChar: circumflex
Encoding: 710 710 191
Width: 1024
GlyphClass: 1
Flags: W
LayerCount: 2
Fore
SplineSet
221 1079 m 1,0,-1
 453 1434 l 1,1,-1
 571 1434 l 1,2,-1
 803 1079 l 1,3,-1
 745 1079 l 1,4,-1
 512 1295 l 1,5,-1
 279 1079 l 1,6,-1
 221 1079 l 1,0,-1
EndSplineSet
Validated: 1
EndChar

StartChar: caron
Encoding: 711 711 192
Width: 1024
GlyphClass: 1
Flags: W
LayerCount: 2
Fore
SplineSet
221 1434 m 1,0,-1
 279 1434 l 1,1,-1
 512 1220 l 1,2,-1
 745 1434 l 1,3,-1
 803 1434 l 1,4,-1
 571 1078 l 1,5,-1
 453 1078 l 1,6,-1
 221 1434 l 1,0,-1
EndSplineSet
Validated: 1
EndChar

StartChar: uni02C9
Encoding: 713 713 193
Width: 1024
GlyphClass: 1
Flags: W
LayerCount: 2
Fore
SplineSet
254 1195 m 1,0,-1
 254 1320 l 1,1,-1
 770 1320 l 1,2,-1
 770 1195 l 1,3,-1
 254 1195 l 1,0,-1
EndSplineSet
Validated: 1
EndChar

StartChar: breve
Encoding: 728 728 194
Width: 1024
GlyphClass: 1
Flags: W
LayerCount: 2
Fore
SplineSet
219 1349 m 1,0,-1
 270 1349 l 1,1,2
 287 1276 287 1276 345 1242 c 128,-1,3
 403 1208 403 1208 512 1208 c 256,4,5
 621 1208 621 1208 678 1241.5 c 128,-1,6
 735 1275 735 1275 752 1349 c 1,7,-1
 803 1349 l 1,8,9
 783 1216 783 1216 709 1147.5 c 128,-1,10
 635 1079 635 1079 512 1079 c 0,11,12
 390 1079 390 1079 315 1148 c 128,-1,13
 240 1217 240 1217 219 1349 c 1,0,-1
EndSplineSet
Validated: 1
EndChar

StartChar: dotaccent
Encoding: 729 729 195
Width: 1024
GlyphClass: 1
Flags: W
LayerCount: 2
Fore
SplineSet
507 1403 m 1,0,-1
 510 1403 l 1,1,2
 551 1364 551 1364 569 1322 c 1,3,-1
 566 1322 l 1,4,5
 544 1334 544 1334 534 1334 c 1,6,-1
 534 1329 l 1,7,8
 554 1302 554 1302 578 1285 c 1,9,-1
 583 1285 l 1,10,-1
 583 1288 l 1,11,12
 574 1312 574 1312 574 1320 c 1,13,14
 618 1297 618 1297 652 1261 c 1,15,-1
 652 1258 l 1,16,17
 613 1217 613 1217 571 1199 c 1,18,-1
 571 1202 l 1,19,20
 583 1224 583 1224 583 1234 c 1,21,-1
 578 1234 l 1,22,23
 551 1214 551 1214 534 1190 c 1,24,-1
 534 1185 l 1,25,-1
 537 1185 l 1,26,27
 561 1194 561 1194 569 1194 c 1,28,29
 546 1150 546 1150 510 1116 c 1,30,-1
 507 1116 l 1,31,32
 466 1155 466 1155 448 1197 c 1,33,-1
 451 1197 l 1,34,35
 473 1185 473 1185 483 1185 c 1,36,-1
 483 1190 l 1,37,38
 463 1217 463 1217 439 1234 c 1,39,-1
 434 1234 l 1,40,-1
 434 1231 l 1,41,42
 443 1207 443 1207 443 1199 c 1,43,44
 399 1222 399 1222 365 1258 c 1,45,-1
 365 1261 l 1,46,47
 404 1302 404 1302 446 1320 c 1,48,-1
 446 1317 l 1,49,50
 434 1295 434 1295 434 1285 c 1,51,-1
 439 1285 l 1,52,53
 466 1305 466 1305 483 1329 c 1,54,-1
 483 1334 l 1,55,-1
 480 1334 l 1,56,57
 456 1325 456 1325 448 1325 c 1,58,59
 471 1369 471 1369 507 1403 c 1,0,-1
EndSplineSet
Validated: 1
EndChar

StartChar: ring
Encoding: 730 730 196
Width: 1024
GlyphClass: 1
Flags: W
LayerCount: 2
Fore
SplineSet
411 1257 m 0,0,1
 411 1215 411 1215 440 1186 c 128,-1,2
 469 1157 469 1157 511 1157 c 256,3,4
 553 1157 553 1157 582 1186 c 128,-1,5
 611 1215 611 1215 611 1257 c 0,6,7
 611 1297 611 1297 581.5 1326.5 c 128,-1,8
 552 1356 552 1356 511 1356 c 256,9,10
 470 1356 470 1356 440.5 1326.5 c 128,-1,11
 411 1297 411 1297 411 1257 c 0,0,1
335 1257 m 256,12,13
 335 1332 335 1332 386 1383 c 128,-1,14
 437 1434 437 1434 511 1434 c 0,15,16
 587 1434 587 1434 638.5 1382.5 c 128,-1,17
 690 1331 690 1331 690 1257 c 0,18,19
 690 1182 690 1182 638.5 1130.5 c 128,-1,20
 587 1079 587 1079 511 1079 c 0,21,22
 437 1079 437 1079 386 1130.5 c 128,-1,23
 335 1182 335 1182 335 1257 c 256,12,13
EndSplineSet
Validated: 1
EndChar

StartChar: ogonek
Encoding: 731 731 197
Width: 1024
GlyphClass: 1
Flags: W
LayerCount: 2
Fore
SplineSet
640 0 m 1,0,1
 569 -62 569 -62 529.5 -119.5 c 128,-1,2
 490 -177 490 -177 490 -232 c 0,3,4
 490 -279 490 -279 517 -307 c 128,-1,5
 544 -335 544 -335 590 -335 c 0,6,7
 630 -335 630 -335 659.5 -319.5 c 128,-1,8
 689 -304 689 -304 709 -271 c 1,9,-1
 737 -287 l 1,10,11
 701 -350 701 -350 646.5 -384 c 128,-1,12
 592 -418 592 -418 527 -418 c 0,13,14
 457 -418 457 -418 413 -382.5 c 128,-1,15
 369 -347 369 -347 369 -292 c 0,16,17
 369 -216 369 -216 429.5 -135.5 c 128,-1,18
 490 -55 490 -55 591 0 c 1,19,-1
 640 0 l 1,0,1
EndSplineSet
Validated: 1
EndChar

StartChar: tilde
Encoding: 732 732 198
Width: 1024
GlyphClass: 1
Flags: W
LayerCount: 2
Fore
SplineSet
808 1382 m 1,0,1
 788 1279 788 1279 739.5 1228 c 128,-1,2
 691 1177 691 1177 613 1177 c 2,3,-1
 609 1177 l 2,4,5
 559 1177 559 1177 496 1200 c 0,6,7
 430 1224 430 1224 382 1224 c 0,8,9
 343 1224 343 1224 321.5 1203.5 c 128,-1,10
 300 1183 300 1183 288 1132 c 1,11,-1
 234 1132 l 1,12,13
 253 1238 253 1238 302 1290.5 c 128,-1,14
 351 1343 351 1343 431 1343 c 0,15,16
 477 1342 477 1342 544 1319 c 0,17,18
 608 1296 608 1296 656 1296 c 2,19,-1
 660 1296 l 2,20,21
 696 1296 696 1296 718 1316 c 128,-1,22
 740 1336 740 1336 754 1382 c 1,23,-1
 808 1382 l 1,0,1
EndSplineSet
Validated: 1
EndChar

StartChar: hungarumlaut
Encoding: 733 733 199
Width: 1024
GlyphClass: 1
Flags: W
LayerCount: 2
Fore
SplineSet
217 1079 m 1,0,-1
 361 1352 l 2,1,2
 385 1396 385 1396 406.5 1415 c 128,-1,3
 428 1434 428 1434 453 1434 c 0,4,5
 481 1434 481 1434 501 1414 c 128,-1,6
 521 1394 521 1394 521 1367 c 0,7,8
 521 1351 521 1351 510.5 1332 c 128,-1,9
 500 1313 500 1313 480 1291 c 2,10,-1
 275 1079 l 1,11,-1
 217 1079 l 1,0,-1
502 1079 m 1,12,-1
 646 1352 l 2,13,14
 670 1396 670 1396 691.5 1415 c 128,-1,15
 713 1434 713 1434 738 1434 c 0,16,17
 766 1434 766 1434 786 1414 c 128,-1,18
 806 1394 806 1394 806 1367 c 0,19,20
 806 1351 806 1351 795.5 1332 c 128,-1,21
 785 1313 785 1313 765 1291 c 2,22,-1
 560 1079 l 1,23,-1
 502 1079 l 1,12,-1
EndSplineSet
Validated: 1
EndChar

StartChar: endash
Encoding: 8211 8211 200
Width: 1108
GlyphClass: 1
Flags: W
LayerCount: 2
Fore
SplineSet
56 419 m 1,0,-1
 56 539 l 1,1,-1
 1052 539 l 1,2,-1
 1052 419 l 1,3,-1
 56 419 l 1,0,-1
EndSplineSet
Validated: 1
EndChar

StartChar: emdash
Encoding: 8212 8212 201
Width: 2048
GlyphClass: 1
Flags: W
LayerCount: 2
Fore
SplineSet
0 419 m 1,0,-1
 0 539 l 1,1,-1
 2048 539 l 1,2,-1
 2048 419 l 1,3,-1
 0 419 l 1,0,-1
EndSplineSet
Validated: 1
EndChar

StartChar: quoteleft
Encoding: 8216 8216 202
Width: 557
GlyphClass: 1
Flags: W
LayerCount: 2
Fore
SplineSet
319 1016 m 1,0,1
 275 1016 275 1016 230.5 1081.5 c 128,-1,2
 186 1147 186 1147 186 1233 c 0,3,4
 186 1342 186 1342 257 1459.5 c 128,-1,5
 328 1577 328 1577 396 1577 c 1,6,-1
 396 1534 l 1,7,8
 323 1491 323 1491 309 1344 c 1,9,10
 309 1225 309 1225 438 1183 c 1,11,-1
 438 1141 l 1,12,-1
 319 1016 l 1,0,1
EndSplineSet
Validated: 1
EndChar

StartChar: quoteright
Encoding: 8217 8217 203
Width: 557
GlyphClass: 1
Flags: W
LayerCount: 2
Fore
SplineSet
238 1577 m 1,0,1
 282 1577 282 1577 326.5 1511.5 c 128,-1,2
 371 1446 371 1446 371 1360 c 0,3,4
 371 1251 371 1251 300 1133.5 c 128,-1,5
 229 1016 229 1016 161 1016 c 1,6,-1
 161 1059 l 1,7,8
 234 1102 234 1102 248 1249 c 1,9,10
 248 1368 248 1368 119 1410 c 1,11,-1
 119 1452 l 1,12,-1
 238 1577 l 1,0,1
EndSplineSet
Validated: 1
EndChar

StartChar: quotesinglbase
Encoding: 8218 8218 204
Width: 557
GlyphClass: 1
Flags: W
LayerCount: 2
Fore
SplineSet
238 281 m 1,0,1
 282 281 282 281 326.5 215.5 c 128,-1,2
 371 150 371 150 371 64 c 0,3,4
 371 -45 371 -45 300 -162.5 c 128,-1,5
 229 -280 229 -280 161 -280 c 1,6,-1
 161 -237 l 1,7,8
 234 -194 234 -194 248 -47 c 1,9,10
 248 72 248 72 119 114 c 1,11,-1
 119 156 l 1,12,-1
 238 281 l 1,0,1
EndSplineSet
Validated: 1
EndChar

StartChar: quotedblleft
Encoding: 8220 8220 205
Width: 910
GlyphClass: 1
Flags: W
LayerCount: 2
Fore
SplineSet
319 1016 m 1,0,1
 275 1016 275 1016 230.5 1081.5 c 128,-1,2
 186 1147 186 1147 186 1233 c 0,3,4
 186 1342 186 1342 257 1459.5 c 128,-1,5
 328 1577 328 1577 396 1577 c 1,6,-1
 396 1534 l 1,7,8
 323 1491 323 1491 309 1344 c 1,9,10
 309 1225 309 1225 438 1183 c 1,11,-1
 438 1141 l 1,12,-1
 319 1016 l 1,0,1
672 1016 m 1,13,14
 628 1016 628 1016 583.5 1081.5 c 128,-1,15
 539 1147 539 1147 539 1233 c 0,16,17
 539 1342 539 1342 610 1459.5 c 128,-1,18
 681 1577 681 1577 749 1577 c 1,19,-1
 749 1534 l 1,20,21
 676 1491 676 1491 662 1344 c 1,22,23
 662 1225 662 1225 791 1183 c 1,24,-1
 791 1141 l 1,25,-1
 672 1016 l 1,13,14
EndSplineSet
Validated: 1
EndChar

StartChar: quotedblright
Encoding: 8221 8221 206
Width: 910
GlyphClass: 1
Flags: W
LayerCount: 2
Fore
SplineSet
238 1577 m 1,0,1
 282 1577 282 1577 326.5 1511.5 c 128,-1,2
 371 1446 371 1446 371 1360 c 0,3,4
 371 1251 371 1251 300 1133.5 c 128,-1,5
 229 1016 229 1016 161 1016 c 1,6,-1
 161 1059 l 1,7,8
 234 1102 234 1102 248 1249 c 1,9,10
 248 1368 248 1368 119 1410 c 1,11,-1
 119 1452 l 1,12,-1
 238 1577 l 1,0,1
591 1577 m 1,13,14
 635 1577 635 1577 679.5 1511.5 c 128,-1,15
 724 1446 724 1446 724 1360 c 0,16,17
 724 1251 724 1251 653 1133.5 c 128,-1,18
 582 1016 582 1016 514 1016 c 1,19,-1
 514 1059 l 1,20,21
 587 1102 587 1102 601 1249 c 1,22,23
 601 1368 601 1368 472 1410 c 1,24,-1
 472 1452 l 1,25,-1
 591 1577 l 1,13,14
EndSplineSet
Validated: 1
EndChar

StartChar: quotedblbase
Encoding: 8222 8222 207
Width: 910
GlyphClass: 1
Flags: W
LayerCount: 2
Fore
SplineSet
238 281 m 1,0,1
 282 281 282 281 326.5 215.5 c 128,-1,2
 371 150 371 150 371 64 c 0,3,4
 371 -45 371 -45 300 -162.5 c 128,-1,5
 229 -280 229 -280 161 -280 c 1,6,-1
 161 -237 l 1,7,8
 234 -194 234 -194 248 -47 c 1,9,10
 248 72 248 72 119 114 c 1,11,-1
 119 156 l 1,12,-1
 238 281 l 1,0,1
591 281 m 1,13,14
 635 281 635 281 679.5 215.5 c 128,-1,15
 724 150 724 150 724 64 c 0,16,17
 724 -45 724 -45 653 -162.5 c 128,-1,18
 582 -280 582 -280 514 -280 c 1,19,-1
 514 -237 l 1,20,21
 587 -194 587 -194 601 -47 c 1,22,23
 601 72 601 72 472 114 c 1,24,-1
 472 156 l 1,25,-1
 591 281 l 1,13,14
EndSplineSet
Validated: 1
EndChar

StartChar: dagger
Encoding: 8224 8224 208
Width: 1014
GlyphClass: 1
Flags: W
LayerCount: 2
Fore
SplineSet
486 1022 m 1,0,1
 478 1119 478 1119 432 1200 c 0,2,3
 375 1301 375 1301 375 1329 c 0,4,5
 375 1378 375 1378 411 1407.5 c 128,-1,6
 447 1437 447 1437 507 1437 c 0,7,8
 564 1437 564 1437 601.5 1409.5 c 128,-1,9
 639 1382 639 1382 639 1338 c 0,10,11
 639 1306 639 1306 584 1201 c 0,12,13
 538 1116 538 1116 529 1022 c 1,14,15
 625 1030 625 1030 706 1076 c 0,16,17
 807 1133 807 1133 835 1133 c 0,18,19
 884 1133 884 1133 914 1097 c 128,-1,20
 944 1061 944 1061 944 1001 c 0,21,22
 944 944 944 944 916.5 906.5 c 128,-1,23
 889 869 889 869 844 869 c 0,24,25
 812 869 812 869 708 924 c 0,26,27
 623 970 623 970 529 981 c 1,28,29
 537 805 537 805 639 704 c 1,30,31
 533 244 533 244 527 -270 c 1,32,-1
 489 -270 l 1,33,34
 483 244 483 244 375 704 c 1,35,36
 477 805 477 805 486 981 c 1,37,38
 390 971 390 971 308 926 c 0,39,40
 207 869 207 869 179 869 c 0,41,42
 130 869 130 869 100.5 905 c 128,-1,43
 71 941 71 941 71 1001 c 0,44,45
 71 1058 71 1058 98.5 1095.5 c 128,-1,46
 126 1133 126 1133 170 1133 c 0,47,48
 202 1133 202 1133 307 1077 c 0,49,50
 392 1031 392 1031 486 1022 c 1,0,1
EndSplineSet
Validated: 1
EndChar

StartChar: daggerdbl
Encoding: 8225 8225 209
Width: 1014
GlyphClass: 1
Flags: W
LayerCount: 2
Fore
SplineSet
528 186 m 1,0,1
 622 197 622 197 707 243 c 0,2,3
 811 298 811 298 843 298 c 0,4,5
 888 298 888 298 915.5 260.5 c 128,-1,6
 943 223 943 223 943 166 c 0,7,8
 943 106 943 106 913 70 c 128,-1,9
 883 34 883 34 834 34 c 0,10,11
 806 34 806 34 705 91 c 0,12,13
 624 137 624 137 528 145 c 1,14,15
 537 51 537 51 583 -34 c 0,16,17
 638 -139 638 -139 638 -171 c 0,18,19
 638 -215 638 -215 600.5 -242.5 c 128,-1,20
 563 -270 563 -270 506 -270 c 0,21,22
 446 -270 446 -270 410 -240.5 c 128,-1,23
 374 -211 374 -211 374 -162 c 0,24,25
 374 -134 374 -134 431 -33 c 0,26,27
 477 48 477 48 485 145 c 1,28,29
 391 136 391 136 306 90 c 0,30,31
 201 34 201 34 169 34 c 0,32,33
 125 34 125 34 97.5 71.5 c 128,-1,34
 70 109 70 109 70 166 c 0,35,36
 70 226 70 226 99.5 262 c 128,-1,37
 129 298 129 298 178 298 c 0,38,39
 206 298 206 298 307 241 c 0,40,41
 389 196 389 196 485 186 c 1,42,43
 476 412 476 412 374 584 c 1,44,45
 476 755 476 755 485 981 c 1,46,47
 389 971 389 971 307 926 c 0,48,49
 206 869 206 869 178 869 c 0,50,51
 129 869 129 869 99.5 905 c 128,-1,52
 70 941 70 941 70 1001 c 0,53,54
 70 1058 70 1058 97.5 1095.5 c 128,-1,55
 125 1133 125 1133 169 1133 c 0,56,57
 201 1133 201 1133 306 1077 c 0,58,59
 391 1031 391 1031 485 1022 c 1,60,61
 477 1119 477 1119 431 1200 c 0,62,63
 374 1301 374 1301 374 1329 c 0,64,65
 374 1378 374 1378 410 1407.5 c 128,-1,66
 446 1437 446 1437 506 1437 c 0,67,68
 563 1437 563 1437 600.5 1409.5 c 128,-1,69
 638 1382 638 1382 638 1338 c 0,70,71
 638 1306 638 1306 583 1201 c 0,72,73
 537 1116 537 1116 528 1022 c 1,74,75
 624 1030 624 1030 705 1076 c 0,76,77
 806 1133 806 1133 834 1133 c 0,78,79
 883 1133 883 1133 913 1097 c 128,-1,80
 943 1061 943 1061 943 1001 c 0,81,82
 943 944 943 944 915.5 906.5 c 128,-1,83
 888 869 888 869 843 869 c 0,84,85
 811 869 811 869 707 924 c 0,86,87
 622 970 622 970 528 981 c 1,88,89
 536 755 536 755 638 584 c 1,90,91
 536 412 536 412 528 186 c 1,0,1
EndSplineSet
Validated: 1
EndChar

StartChar: bullet
Encoding: 8226 8226 210
Width: 1024
GlyphClass: 1
Flags: W
LayerCount: 2
Fore
SplineSet
545 999 m 1,0,-1
 551 999 l 1,1,2
 644 911 644 911 684 816 c 1,3,-1
 678 816 l 1,4,5
 628 844 628 844 606 844 c 1,6,-1
 606 833 l 1,7,8
 650 772 650 772 706 733 c 1,9,-1
 717 733 l 1,10,-1
 717 739 l 1,11,12
 695 794 695 794 695 811 c 1,13,14
 794 760 794 760 872 678 c 1,15,-1
 872 672 l 1,16,17
 784 579 784 579 689 539 c 1,18,-1
 689 545 l 1,19,20
 717 595 717 595 717 617 c 1,21,-1
 706 617 l 1,22,23
 645 573 645 573 606 517 c 1,24,-1
 606 506 l 1,25,-1
 612 506 l 1,26,27
 667 528 667 528 684 528 c 1,28,29
 633 429 633 429 551 351 c 1,30,-1
 545 351 l 1,31,32
 452 439 452 439 412 534 c 1,33,-1
 418 534 l 1,34,35
 468 506 468 506 490 506 c 1,36,-1
 490 517 l 1,37,38
 446 578 446 578 390 617 c 1,39,-1
 379 617 l 1,40,-1
 379 611 l 1,41,42
 401 556 401 556 401 539 c 1,43,44
 302 590 302 590 224 672 c 1,45,-1
 224 678 l 1,46,47
 312 771 312 771 407 811 c 1,48,-1
 407 805 l 1,49,50
 379 755 379 755 379 733 c 1,51,-1
 390 733 l 1,52,53
 451 777 451 777 490 833 c 1,54,-1
 490 844 l 1,55,-1
 484 844 l 1,56,57
 429 822 429 822 412 822 c 1,58,59
 463 921 463 921 545 999 c 1,0,-1
EndSplineSet
Validated: 1
EndChar

StartChar: ellipsis
Encoding: 8230 8230 211
Width: 1793
GlyphClass: 1
Flags: W
LayerCount: 2
Fore
SplineSet
403 214 m 1,0,-1
 405 214 l 1,1,2
 434 186 434 186 447 156 c 1,3,-1
 445 156 l 1,4,5
 429 165 429 165 422 165 c 1,6,-1
 422 162 l 1,7,8
 436 142 436 142 454 130 c 1,9,-1
 457 130 l 1,10,-1
 457 132 l 1,11,12
 450 150 450 150 450 155 c 1,13,14
 482 139 482 139 506 113 c 1,15,-1
 506 111 l 1,16,17
 478 82 478 82 448 69 c 1,18,-1
 448 71 l 1,19,20
 457 87 457 87 457 94 c 1,21,-1
 454 94 l 1,22,23
 434 80 434 80 422 62 c 1,24,-1
 422 59 l 1,25,-1
 424 59 l 1,26,27
 442 66 442 66 447 66 c 1,28,29
 431 34 431 34 405 10 c 1,30,-1
 403 10 l 1,31,32
 374 38 374 38 361 68 c 1,33,-1
 363 68 l 1,34,35
 379 59 379 59 386 59 c 1,36,-1
 386 62 l 1,37,38
 372 82 372 82 354 94 c 1,39,-1
 351 94 l 1,40,-1
 351 92 l 1,41,42
 358 74 358 74 358 69 c 1,43,44
 326 85 326 85 302 111 c 1,45,-1
 302 113 l 1,46,47
 330 142 330 142 360 155 c 1,48,-1
 360 153 l 1,49,50
 351 137 351 137 351 130 c 1,51,-1
 354 130 l 1,52,53
 374 144 374 144 386 162 c 1,54,-1
 386 165 l 1,55,-1
 384 165 l 1,56,57
 366 158 366 158 361 158 c 1,58,59
 377 190 377 190 403 214 c 1,0,-1
903 214 m 1,60,-1
 905 214 l 1,61,62
 934 186 934 186 947 156 c 1,63,-1
 945 156 l 1,64,65
 929 165 929 165 922 165 c 1,66,-1
 922 162 l 1,67,68
 936 142 936 142 954 130 c 1,69,-1
 957 130 l 1,70,-1
 957 132 l 1,71,72
 950 150 950 150 950 155 c 1,73,74
 982 139 982 139 1006 113 c 1,75,-1
 1006 111 l 1,76,77
 978 82 978 82 948 69 c 1,78,-1
 948 71 l 1,79,80
 957 87 957 87 957 94 c 1,81,-1
 954 94 l 1,82,83
 934 80 934 80 922 62 c 1,84,-1
 922 59 l 1,85,-1
 924 59 l 1,86,87
 942 66 942 66 947 66 c 1,88,89
 931 34 931 34 905 10 c 1,90,-1
 903 10 l 1,91,92
 874 38 874 38 861 68 c 1,93,-1
 863 68 l 1,94,95
 879 59 879 59 886 59 c 1,96,-1
 886 62 l 1,97,98
 872 82 872 82 854 94 c 1,99,-1
 851 94 l 1,100,-1
 851 92 l 1,101,102
 858 74 858 74 858 69 c 1,103,104
 826 85 826 85 802 111 c 1,105,-1
 802 113 l 1,106,107
 830 142 830 142 860 155 c 1,108,-1
 860 153 l 1,109,110
 851 137 851 137 851 130 c 1,111,-1
 854 130 l 1,112,113
 874 144 874 144 886 162 c 1,114,-1
 886 165 l 1,115,-1
 884 165 l 1,116,117
 866 158 866 158 861 158 c 1,118,119
 877 190 877 190 903 214 c 1,60,-1
1403 214 m 1,120,-1
 1405 214 l 1,121,122
 1434 186 1434 186 1447 156 c 1,123,-1
 1445 156 l 1,124,125
 1429 165 1429 165 1422 165 c 1,126,-1
 1422 162 l 1,127,128
 1436 142 1436 142 1454 130 c 1,129,-1
 1457 130 l 1,130,-1
 1457 132 l 1,131,132
 1450 150 1450 150 1450 155 c 1,133,134
 1482 139 1482 139 1506 113 c 1,135,-1
 1506 111 l 1,136,137
 1478 82 1478 82 1448 69 c 1,138,-1
 1448 71 l 1,139,140
 1457 87 1457 87 1457 94 c 1,141,-1
 1454 94 l 1,142,143
 1434 80 1434 80 1422 62 c 1,144,-1
 1422 59 l 1,145,-1
 1424 59 l 1,146,147
 1442 66 1442 66 1447 66 c 1,148,149
 1431 34 1431 34 1405 10 c 1,150,-1
 1403 10 l 1,151,152
 1374 38 1374 38 1361 68 c 1,153,-1
 1363 68 l 1,154,155
 1379 59 1379 59 1386 59 c 1,156,-1
 1386 62 l 1,157,158
 1372 82 1372 82 1354 94 c 1,159,-1
 1351 94 l 1,160,-1
 1351 92 l 1,161,162
 1358 74 1358 74 1358 69 c 1,163,164
 1326 85 1326 85 1302 111 c 1,165,-1
 1302 113 l 1,166,167
 1330 142 1330 142 1360 155 c 1,168,-1
 1360 153 l 1,169,170
 1351 137 1351 137 1351 130 c 1,171,-1
 1354 130 l 1,172,173
 1374 144 1374 144 1386 162 c 1,174,-1
 1386 165 l 1,175,-1
 1384 165 l 1,176,177
 1366 158 1366 158 1361 158 c 1,178,179
 1377 190 1377 190 1403 214 c 1,120,-1
EndSplineSet
Validated: 1
EndChar

StartChar: guilsinglleft
Encoding: 8249 8249 212
Width: 631
GlyphClass: 1
Flags: W
LayerCount: 2
Fore
SplineSet
174 479 m 1,0,-1
 516 782 l 1,1,-1
 530 782 l 1,2,-1
 530 745 l 1,3,-1
 325 479 l 1,4,-1
 530 213 l 1,5,-1
 530 176 l 1,6,-1
 516 176 l 1,7,-1
 174 479 l 1,0,-1
EndSplineSet
Validated: 1
EndChar

StartChar: guilsinglright
Encoding: 8250 8250 213
Width: 631
GlyphClass: 1
Flags: W
LayerCount: 2
Fore
SplineSet
115 176 m 1,0,-1
 101 176 l 1,1,-1
 101 213 l 1,2,-1
 306 479 l 1,3,-1
 101 745 l 1,4,-1
 101 782 l 1,5,-1
 115 782 l 1,6,-1
 457 479 l 1,7,-1
 115 176 l 1,0,-1
EndSplineSet
Validated: 1
EndChar

StartChar: fraction
Encoding: 8260 8260 214
AltUni2: 002215.ffffffff.0 002215.ffffffff.0
Width: 342
GlyphClass: 1
Flags: W
LayerCount: 2
Fore
SplineSet
-342 -29 m 1,0,-1
 598 1432 l 1,1,-1
 682 1432 l 1,2,-1
 -256 -29 l 1,3,-1
 -342 -29 l 1,0,-1
EndSplineSet
Validated: 1
EndChar

StartChar: franc
Encoding: 8355 8355 215
Width: 1014
GlyphClass: 1
Flags: W
LayerCount: 2
Fore
SplineSet
247 357 m 1,0,-1
 53 357 l 1,1,-1
 53 417 l 1,2,-1
 247 417 l 1,3,-1
 247 1149 l 2,4,5
 247 1384 247 1384 144 1384 c 2,6,-1
 48 1384 l 1,7,-1
 48 1434 l 1,8,-1
 963 1434 l 1,9,-1
 1066 1203 l 1,10,-1
 1017 1203 l 1,11,12
 958 1385 958 1385 827 1385 c 2,13,-1
 511 1384 l 2,14,15
 409 1384 409 1384 409 1149 c 2,16,-1
 409 797 l 1,17,-1
 770 797 l 2,18,19
 870 797 870 797 870 860 c 2,20,-1
 870 918 l 1,21,-1
 920 918 l 1,22,-1
 920 576 l 1,23,-1
 870 576 l 1,24,-1
 870 636 l 2,25,26
 870 698 870 698 770 698 c 2,27,-1
 409 698 l 1,28,-1
 409 417 l 1,29,-1
 603 417 l 1,30,-1
 603 357 l 1,31,-1
 409 357 l 1,32,-1
 409 285 l 2,33,34
 409 50 409 50 511 50 c 2,35,-1
 608 50 l 1,36,-1
 608 0 l 1,37,-1
 48 0 l 1,38,-1
 48 50 l 1,39,-1
 144 50 l 2,40,41
 247 50 247 50 247 285 c 2,42,-1
 247 357 l 1,0,-1
EndSplineSet
Validated: 1
EndChar

StartChar: lira
Encoding: 8356 8356 216
Width: 1014
GlyphClass: 1
Flags: W
LayerCount: 2
Fore
SplineSet
748 1347 m 1,0,1
 676 1378 676 1378 588 1378 c 2,2,-1
 586 1378 l 2,3,4
 486 1378 486 1378 396 1277 c 0,5,6
 312 1184 312 1184 312 1036 c 0,7,8
 312 1021 312 1021 313 1006 c 0,9,10
 313 900 313 900 346 793 c 1,11,-1
 726 793 l 1,12,-1
 726 733 l 1,13,-1
 366 733 l 1,14,15
 378 703 378 703 392 673 c 1,16,-1
 744 673 l 1,17,-1
 744 613 l 1,18,-1
 423 613 l 1,19,20
 458 550 458 550 458 475 c 0,21,22
 458 314 458 314 296 100 c 1,23,-1
 698 100 l 2,24,25
 828 100 828 100 887 232 c 1,26,-1
 936 231 l 1,27,-1
 833 0 l 1,28,-1
 114 0 l 1,29,-1
 115 50 l 1,30,31
 302 288 302 288 302 468 c 0,32,33
 302 545 302 545 268 611 c 1,34,-1
 266 613 l 1,35,-1
 94 613 l 1,36,-1
 94 673 l 1,37,-1
 237 673 l 1,38,39
 223 704 223 704 211 733 c 1,40,-1
 76 733 l 1,41,-1
 76 793 l 1,42,-1
 189 793 l 1,43,44
 153 900 153 900 153 986 c 0,45,46
 153 1212 153 1212 276.5 1333 c 128,-1,47
 400 1454 400 1454 587 1454 c 0,48,49
 662 1454 662 1454 772.5 1440 c 128,-1,50
 883 1426 883 1426 883 1406 c 2,51,-1
 883 1245 l 1,52,-1
 825 1245 l 1,53,54
 820 1306 820 1306 748 1347 c 1,0,1
EndSplineSet
Validated: 1
EndChar

StartChar: peseta
Encoding: 8359 8359 217
Width: 2028
GlyphClass: 1
Flags: W
LayerCount: 2
Fore
SplineSet
409 1384 m 1,0,-1
 409 722 l 2,1,2
 412 713 412 713 416 705 c 0,3,4
 457 603 457 603 524 552 c 0,5,6
 581 508 581 508 640 508 c 0,7,8
 650 508 650 508 659 509 c 0,9,10
 727 517 727 517 786 584 c 128,-1,11
 845 651 845 651 873 761 c 0,12,13
 895 848 895 848 895 940 c 0,14,15
 895 964 895 964 894 987 c 0,16,17
 887 1103 887 1103 844.5 1205.5 c 128,-1,18
 802 1308 802 1308 736 1350 c 0,19,20
 680 1385 680 1385 624 1385 c 0,21,22
 614 1385 614 1385 603 1384 c 2,23,-1
 409 1384 l 1,0,-1
1496 908 m 1,24,-1
 1317 908 l 1,25,-1
 1317 223 l 2,26,27
 1317 142 1317 142 1351 104 c 0,28,29
 1379 73 1379 73 1432 67 c 1,30,-1
 1361 259 l 1,31,-1
 1410 260 l 1,32,33
 1465 130 1465 130 1524 86 c 0,34,35
 1581 42 1581 42 1651 42 c 2,36,-1
 1658 42 l 2,37,38
 1750 42 1750 42 1809 94 c 0,39,40
 1868 147 1868 147 1868 230 c 0,41,42
 1868 332 1868 332 1609 456 c 0,43,44
 1508 508 1508 508 1465 568 c 128,-1,45
 1422 628 1422 628 1422 713 c 0,46,47
 1422 834 1422 834 1495 907 c 2,48,-1
 1496 908 l 1,24,-1
1039 910 m 1,49,50
 1032 809 1032 809 991 716 c 0,51,52
 941 602 941 602 850 538.5 c 128,-1,53
 759 475 759 475 660 475 c 0,54,55
 560 475 560 475 469 539 c 0,56,57
 436 561 436 561 409 590 c 1,58,-1
 409 285 l 2,59,60
 409 50 409 50 511 50 c 2,61,-1
 608 50 l 1,62,-1
 608 0 l 1,63,-1
 48 0 l 1,64,-1
 48 50 l 1,65,-1
 144 50 l 2,66,67
 247 50 247 50 247 285 c 2,68,-1
 247 1149 l 2,69,70
 247 1384 247 1384 144 1384 c 2,71,-1
 48 1384 l 1,72,-1
 48 1434 l 1,73,-1
 666 1434 l 2,74,75
 758 1432 758 1432 847 1372 c 0,76,77
 938 1310 938 1310 990 1195 c 0,78,79
 1040 1082 1040 1082 1041 958 c 1,80,-1
 1051 958 l 2,81,82
 1267 958 1267 958 1267 1313 c 1,83,-1
 1317 1313 l 1,84,-1
 1317 958 l 1,85,-1
 1576 958 l 1,86,87
 1618 977 1618 977 1686 978 c 2,88,-1
 1688 978 l 2,89,90
 1742 978 1742 978 1821.5 964.5 c 128,-1,91
 1901 951 1901 951 1901 931 c 2,92,-1
 1901 772 l 1,93,-1
 1859 772 l 1,94,95
 1855 838 1855 838 1793.5 880 c 128,-1,96
 1732 922 1732 922 1660 922 c 0,97,98
 1596 922 1596 922 1557.5 885.5 c 128,-1,99
 1519 849 1519 849 1519 789 c 0,100,101
 1519 681 1519 681 1754 569 c 0,102,103
 1876 514 1876 514 1921.5 451.5 c 128,-1,104
 1967 389 1967 389 1967 298 c 0,105,106
 1967 158 1967 158 1884 67 c 1,107,108
 1782 -17 1782 -17 1656 -19 c 0,109,110
 1598 -19 1598 -19 1551 -8 c 0,111,112
 1523 -2 1523 -2 1495 -2 c 0,113,114
 1477 -2 1477 -2 1459 -5 c 0,115,116
 1431 -10 1431 -10 1400 -10 c 0,117,118
 1276 -10 1276 -10 1226.5 47 c 128,-1,119
 1177 104 1177 104 1169 223 c 1,120,-1
 1168 223 l 1,121,-1
 1168 910 l 1,122,-1
 1039 910 l 1,49,50
EndSplineSet
Validated: 1
EndChar

StartChar: Euro
Encoding: 8364 8364 218
Width: 1014
GlyphClass: 1
Flags: W
LayerCount: 2
Fore
SplineSet
140 372 m 0,0,1
 78 507 78 507 64 653 c 1,2,-1
 -44 653 l 1,3,-1
 -27 713 l 1,4,-1
 60 713 l 1,5,-1
 60 742 l 2,6,7
 60 758 60 758 61 773 c 1,8,-1
 -10 773 l 1,9,-1
 7 833 l 1,10,-1
 65 833 l 1,11,12
 79 978 79 978 141 1114 c 0,13,14
 222 1292 222 1292 367 1388 c 128,-1,15
 512 1484 512 1484 665 1484 c 0,16,17
 708 1484 708 1484 752 1476 c 0,18,19
 792 1466 792 1466 834 1447 c 0,20,21
 842 1441 842 1441 850 1441 c 0,22,23
 870 1441 870 1441 884 1486 c 1,24,-1
 925 1486 l 1,25,-1
 1009 1205 l 1,26,-1
 969 1204 l 1,27,28
 920 1338 920 1338 831 1382 c 0,29,30
 788 1404 788 1404 750 1414 c 1,31,-1
 750 1417 l 1,32,33
 700 1433 700 1433 649 1433 c 0,34,35
 632 1433 632 1433 615 1431 c 0,36,37
 495 1419 495 1419 389 1317.5 c 128,-1,38
 283 1216 283 1216 232 1044 c 0,39,40
 200 940 200 940 193 833 c 1,41,-1
 899 833 l 1,42,-1
 882 773 l 1,43,-1
 190 773 l 1,44,45
 190 743 190 743 192 713 c 1,46,-1
 866 713 l 1,47,-1
 849 653 l 1,48,-1
 197 653 l 1,49,50
 214 495 214 495 280 355 c 0,51,52
 354 198 354 198 473 119 c 0,53,54
 575 51 575 51 689 50 c 0,55,56
 875 53 875 53 945 141 c 0,57,58
 1019 232 1019 232 1019 326 c 1,59,-1
 1067 326 l 1,60,-1
 1067 183 l 2,61,62
 1067 113 1067 113 956 56 c 0,63,64
 851 2 851 2 689 0 c 0,65,66
 508 0 508 0 363.5 98 c 128,-1,67
 219 196 219 196 140 372 c 0,0,1
EndSplineSet
Validated: 1
EndChar

StartChar: partialdiff
Encoding: 8706 8706 221
Width: 1014
GlyphClass: 1
Flags: W
LayerCount: 2
Fore
SplineSet
232 537 m 0,0,1
 232 496 232 496 237 458 c 0,2,3
 251 336 251 336 298.5 228 c 128,-1,4
 346 120 346 120 417 63 c 0,5,6
 481 10 481 10 545 10 c 0,7,8
 551 10 551 10 558 11 c 0,9,10
 628 16 628 16 685.5 81.5 c 128,-1,11
 743 147 743 147 766 261 c 0,12,13
 782 334 782 334 782 410 c 0,14,15
 782 452 782 452 777 495 c 0,16,17
 763 617 763 617 714.5 726.5 c 128,-1,18
 666 836 666 836 595 892 c 0,19,20
 530 942 530 942 467 942 c 2,21,-1
 456 942 l 1,22,23
 388 937 388 937 330 872.5 c 128,-1,24
 272 808 272 808 248 694 c 0,25,26
 232 610 232 610 232 537 c 0,0,1
937 477 m 0,27,28
 937 345 937 345 880.5 226 c 128,-1,29
 824 107 824 107 721.5 41 c 128,-1,30
 619 -25 619 -25 507 -25 c 256,31,32
 395 -25 395 -25 292.5 41 c 128,-1,33
 190 107 190 107 133.5 226 c 128,-1,34
 77 345 77 345 77 477 c 0,35,36
 77 608 77 608 135 728 c 128,-1,37
 193 848 193 848 296 913 c 128,-1,38
 399 978 399 978 507 978 c 0,39,40
 616 978 616 978 719 913 c 0,41,42
 748 895 748 895 773 872 c 1,43,44
 689 1107 689 1107 539.5 1249 c 128,-1,45
 390 1391 390 1391 213 1404 c 1,46,-1
 213 1459 l 1,47,48
 519 1459 519 1459 728 1174 c 128,-1,49
 937 889 937 889 937 477 c 0,27,28
EndSplineSet
Validated: 1
EndChar

StartChar: Delta
Encoding: 8710 8710 222
Width: 1081
GlyphClass: 1
Flags: W
LayerCount: 2
Fore
SplineSet
514 1195 m 1,0,-1
 108 123 l 1,1,-1
 909 123 l 1,2,-1
 514 1195 l 1,0,-1
547 1434 m 1,3,-1
 1073 0 l 1,4,-1
 6 0 l 1,5,-1
 547 1434 l 1,3,-1
EndSplineSet
Validated: 1
EndChar

StartChar: product
Encoding: 8719 8719 223
Width: 1515
GlyphClass: 1
Flags: W
LayerCount: 2
Fore
SplineSet
511 1384 m 2,0,1
 409 1384 409 1384 409 1149 c 2,2,-1
 409 -132 l 2,3,4
 409 -367 409 -367 511 -367 c 2,5,-1
 608 -367 l 1,6,-1
 608 -418 l 1,7,-1
 48 -418 l 1,8,-1
 48 -367 l 1,9,-1
 144 -367 l 2,10,11
 247 -367 247 -367 247 -132 c 2,12,-1
 247 1149 l 2,13,14
 247 1384 247 1384 144 1384 c 2,15,-1
 48 1384 l 1,16,-1
 48 1434 l 1,17,-1
 1467 1434 l 1,18,-1
 1467 1384 l 1,19,-1
 1370 1384 l 2,20,21
 1268 1384 1268 1384 1268 1149 c 2,22,-1
 1268 -132 l 2,23,24
 1268 -367 1268 -367 1370 -367 c 2,25,-1
 1467 -367 l 1,26,-1
 1467 -417 l 1,27,-1
 907 -417 l 1,28,-1
 907 -367 l 1,29,-1
 1003 -367 l 2,30,31
 1106 -367 1106 -367 1106 -132 c 2,32,-1
 1106 1149 l 2,33,34
 1106 1384 1106 1384 1003 1384 c 2,35,-1
 511 1384 l 2,0,1
EndSplineSet
Validated: 1
EndChar

StartChar: summation
Encoding: 8721 8721 224
Width: 1206
GlyphClass: 1
Flags: W
LayerCount: 2
Fore
SplineSet
1059 548 m 1,0,-1
 271 -366 l 1,1,-1
 906 -366 l 2,2,3
 1036 -366 1036 -366 1095 -184 c 1,4,-1
 1144 -184 l 1,5,-1
 1041 -416 l 1,6,-1
 120 -416 l 1,7,-1
 120 -366 l 1,8,9
 182 -366 182 -366 226 -313 c 2,10,-1
 889 468 l 1,11,-1
 226 1327 l 2,12,13
 182 1384 182 1384 120 1384 c 1,14,-1
 120 1434 l 1,15,-1
 1041 1434 l 1,16,-1
 1144 1202 l 1,17,-1
 1095 1202 l 1,18,19
 1036 1384 1036 1384 906 1384 c 2,20,-1
 421 1384 l 1,21,-1
 1059 548 l 1,0,-1
EndSplineSet
Validated: 1
EndChar

StartChar: minus
Encoding: 8722 8722 225
Width: 1014
GlyphClass: 1
Flags: W
LayerCount: 2
Fore
SplineSet
87 647 m 1,0,-1
 87 787 l 1,1,-1
 926 787 l 1,2,-1
 927 786 l 1,3,-1
 927 647 l 1,4,-1
 87 647 l 1,0,-1
EndSplineSet
Validated: 1
EndChar

StartChar: radical
Encoding: 8730 8730 226
Width: 1014
GlyphClass: 1
Flags: W
LayerCount: 2
Fore
SplineSet
181 0 m 1,0,-1
 17 359 l 1,1,-1
 91 394 l 1,2,-1
 176 209 l 1,3,-1
 904 1679 l 1,4,-1
 1054 1679 l 1,5,-1
 1054 1619 l 1,6,-1
 982 1619 l 1,7,-1
 181 0 l 1,0,-1
EndSplineSet
Validated: 1
EndChar

StartChar: infinity
Encoding: 8734 8734 227
Width: 1014
GlyphClass: 1
Flags: W
LayerCount: 2
Fore
SplineSet
439 755 m 1,0,1
 424 858 424 858 365 888 c 0,2,3
 319 910 319 910 281 910 c 0,4,5
 269 910 269 910 258 908 c 0,6,7
 209 898 209 898 165.5 863.5 c 128,-1,8
 122 829 122 829 100 779 c 0,9,10
 80 733 80 733 80 689 c 2,11,-1
 80 681 l 2,12,13
 82 633 82 633 107.5 592 c 128,-1,14
 133 551 133 551 179 534 c 0,15,16
 208 523 208 523 240 523 c 0,17,18
 256 523 256 523 273 526 c 0,19,20
 320 536 320 536 363.5 569.5 c 128,-1,21
 407 603 407 603 439 755 c 1,0,1
466 687 m 1,22,23
 478 591 478 591 560 534 c 0,24,25
 629 486 629 486 683 486 c 0,26,27
 694 486 694 486 704 488 c 0,28,29
 766 500 766 500 821.5 540 c 128,-1,30
 877 580 877 580 906 641 c 0,31,32
 932 695 932 695 932 749 c 2,33,-1
 932 760 l 2,34,35
 930 820 930 820 896.5 868.5 c 128,-1,36
 863 917 863 917 805 937 c 0,37,38
 768 950 768 950 729 950 c 0,39,40
 707 950 707 950 685 946 c 0,41,42
 618 937 618 937 558 884 c 128,-1,43
 498 831 498 831 466 687 c 1,22,23
450 827 m 1,44,45
 459 862 459 862 471 896 c 0,46,47
 505 984 505 984 566 1033 c 128,-1,48
 627 1082 627 1082 694 1082 c 256,49,50
 761 1082 761 1082 822 1034 c 128,-1,51
 883 986 883 986 917 899 c 128,-1,52
 951 812 951 812 951 717 c 256,53,54
 951 622 951 622 917 535 c 128,-1,55
 883 448 883 448 822 400 c 128,-1,56
 761 352 761 352 694 352 c 256,57,58
 627 352 627 352 566 401 c 128,-1,59
 505 450 505 450 471 537 c 0,60,61
 459 572 459 572 450 607 c 1,62,63
 445 586 445 586 438 566 c 0,64,65
 411 493 411 493 364 453 c 128,-1,66
 317 413 317 413 265 413 c 256,67,68
 213 413 213 413 165 454 c 128,-1,69
 117 495 117 495 91.5 567.5 c 128,-1,70
 66 640 66 640 66 717 c 0,71,72
 66 793 66 793 91.5 866 c 128,-1,73
 117 939 117 939 165 980 c 128,-1,74
 213 1021 213 1021 265 1021 c 256,75,76
 317 1021 317 1021 364 981 c 128,-1,77
 411 941 411 941 438 869 c 0,78,79
 445 848 445 848 450 827 c 1,44,45
EndSplineSet
Validated: 1
EndChar

StartChar: integral
Encoding: 8747 8747 228
Width: 665
GlyphClass: 1
Flags: W
LayerCount: 2
Fore
SplineSet
-12 -281 m 0,0,1
 -72 -281 -72 -281 -72 -252 c 2,2,-1
 -72 -93 l 1,3,-1
 -36 -93 l 1,4,5
 -35 -136 -35 -136 -1.5 -157.5 c 128,-1,6
 32 -179 32 -179 62 -179 c 2,7,-1
 63 -179 l 2,8,9
 145 -179 145 -179 178 -17 c 0,10,11
 210 145 210 145 218 299 c 1,12,-1
 288 1033 l 1,13,-1
 296 1095 l 2,14,15
 323 1333 323 1333 431 1524.5 c 128,-1,16
 539 1716 539 1716 665 1716 c 0,17,18
 725 1716 725 1716 725 1687 c 2,19,-1
 725 1528 l 1,20,-1
 689 1528 l 1,21,22
 688 1571 688 1571 654 1592.5 c 128,-1,23
 620 1614 620 1614 591 1614 c 0,24,25
 520 1614 520 1614 475 1458.5 c 128,-1,26
 430 1303 430 1303 426 1095 c 1,27,-1
 353 328 l 2,28,29
 333 97 333 97 222.5 -92 c 128,-1,30
 112 -281 112 -281 -12 -281 c 0,0,1
EndSplineSet
Validated: 1
EndChar

StartChar: approxequal
Encoding: 8776 8776 229
Width: 1014
GlyphClass: 1
Flags: W
LayerCount: 2
Fore
SplineSet
923 1053 m 1,0,-1
 923 897 l 1,1,2
 860 825 860 825 801 799.5 c 128,-1,3
 742 774 742 774 685 774 c 0,4,5
 625 774 625 774 507.5 822.5 c 128,-1,6
 390 871 390 871 331 871 c 0,7,8
 280 871 280 871 223.5 843 c 128,-1,9
 167 815 167 815 94 731 c 1,10,-1
 94 887 l 1,11,12
 158 960 158 960 217 986 c 128,-1,13
 276 1012 276 1012 331 1012 c 0,14,15
 395 1012 395 1012 512.5 962.5 c 128,-1,16
 630 913 630 913 685 913 c 0,17,18
 737 913 737 913 793.5 941 c 128,-1,19
 850 969 850 969 923 1053 c 1,0,-1
923 705 m 1,20,-1
 923 549 l 1,21,22
 860 477 860 477 801 451.5 c 128,-1,23
 742 426 742 426 685 426 c 0,24,25
 625 426 625 426 507.5 474.5 c 128,-1,26
 390 523 390 523 331 523 c 0,27,28
 280 523 280 523 223.5 495 c 128,-1,29
 167 467 167 467 94 383 c 1,30,-1
 94 539 l 1,31,32
 158 612 158 612 217 638 c 128,-1,33
 276 664 276 664 331 664 c 0,34,35
 395 664 395 664 512.5 614.5 c 128,-1,36
 630 565 630 565 685 565 c 0,37,38
 737 565 737 565 793.5 593 c 128,-1,39
 850 621 850 621 923 705 c 1,20,-1
EndSplineSet
Validated: 1
EndChar

StartChar: lessequal
Encoding: 8804 8804 230
Width: 1014
GlyphClass: 1
Flags: W
LayerCount: 2
Fore
SplineSet
927 1074 m 1,0,-1
 302 715 l 1,1,-1
 927 360 l 1,2,-1
 927 193 l 1,3,-1
 87 674 l 1,4,-1
 87 757 l 1,5,-1
 927 1241 l 1,6,-1
 927 1074 l 1,0,-1
87 1 m 1,7,-1
 87 141 l 1,8,-1
 926 141 l 1,9,-1
 927 140 l 1,10,-1
 927 1 l 1,11,-1
 87 1 l 1,7,-1
EndSplineSet
Validated: 1
EndChar

StartChar: greaterequal
Encoding: 8805 8805 231
Width: 1014
GlyphClass: 1
Flags: W
LayerCount: 2
Fore
SplineSet
87 1241 m 1,0,-1
 927 757 l 1,1,-1
 927 674 l 1,2,-1
 87 193 l 1,3,-1
 87 360 l 1,4,-1
 712 715 l 1,5,-1
 87 1074 l 1,6,-1
 87 1241 l 1,0,-1
87 2 m 1,7,-1
 87 142 l 1,8,-1
 926 142 l 1,9,-1
 927 141 l 1,10,-1
 927 2 l 1,11,-1
 87 2 l 1,7,-1
EndSplineSet
Validated: 1
EndChar

